<svg width="60" height="60" viewBox="0 0 60 60" fill="none" xmlns="http://www.w3.org/2000/svg">
<circle cx="30" cy="30" r="30" fill="#936DFF"/>
<path d="M37.9118 13.2701C38.2004 13.4185 38.2854 13.6651 38.2804 13.9734C38.2704 14.5901 38.2771 15.2084 38.2771 15.865C38.4172 15.865 38.529 15.865 38.6407 15.865C40.1136 15.8667 41.5848 15.8667 43.0576 15.8683C43.9116 15.87 44.2869 16.26 44.2686 17.1116C44.2219 19.1965 44.0067 21.2597 43.3995 23.2646C42.9358 24.7995 42.282 26.2327 41.0777 27.3477C40.3321 28.0376 39.4514 28.4576 38.4406 28.5826C38.2504 28.6059 38.1854 28.6743 38.1453 28.8626C37.4681 32.0524 35.5732 34.1339 32.4457 35.0872C32.3106 35.1289 32.2022 35.1606 32.2022 35.3489C32.2089 37.3238 32.2089 39.2986 32.2105 41.2735C32.2105 41.3035 32.2239 41.3335 32.2389 41.3935C32.344 41.3985 32.4557 41.4085 32.5675 41.4085C33.2297 41.4102 33.8919 41.4135 34.5541 41.4069C34.841 41.4035 35.0528 41.5052 35.2196 41.7468C35.8868 42.7151 36.5641 43.6784 37.2379 44.6417C37.3764 44.84 37.5115 45.0717 37.3297 45.2716C37.1996 45.4133 36.9627 45.53 36.7725 45.5316C32.399 45.5466 28.0238 45.5416 23.6503 45.545C23.4168 45.545 23.21 45.505 23.0849 45.2816C22.9514 45.0417 23.0482 44.8417 23.1883 44.6417C23.8571 43.6867 24.5277 42.7335 25.1866 41.7718C25.3667 41.5102 25.5935 41.4035 25.9021 41.4069C26.6577 41.4152 27.4133 41.4085 28.2023 41.4085C28.209 41.2735 28.219 41.1619 28.219 41.0502C28.2207 39.1903 28.2157 37.3321 28.224 35.4722C28.2257 35.2372 28.1623 35.1389 27.9204 35.0639C24.8813 34.1173 22.9964 32.0941 22.3109 28.9826C22.2492 28.7026 22.1541 28.6076 21.8589 28.5609C20.406 28.3359 19.3118 27.531 18.4728 26.3527C17.5037 24.9911 16.9983 23.4396 16.658 21.828C16.3277 20.2631 16.176 18.6748 16.1526 17.0749C16.1409 16.2383 16.5246 15.865 17.3669 15.8633C18.8281 15.8617 20.2909 15.86 21.7521 15.86C21.8672 15.86 21.9823 15.86 22.1474 15.86C22.1474 15.565 22.1474 15.2867 22.1474 15.0084C22.1474 14.6617 22.1558 14.3151 22.1458 13.9684C22.1358 13.6601 22.2258 13.4118 22.5144 13.2651C27.6469 13.2701 32.7793 13.2701 37.9118 13.2701ZM30.2123 18.5782C29.8937 19.2215 29.5601 19.7748 29.3416 20.3714C29.108 21.0097 28.7144 21.2663 28.0472 21.293C27.4167 21.3197 26.7912 21.4647 26.1106 21.5647C26.2207 21.6813 26.2891 21.7563 26.3625 21.828C26.8963 22.3496 27.4384 22.8629 27.9571 23.3979C28.0539 23.4979 28.1156 23.6895 28.1006 23.8279C28.0555 24.2445 27.9621 24.6545 27.8904 25.0678C27.8187 25.4928 27.7503 25.9194 27.6719 26.3994C28.4642 25.9827 29.2031 25.6078 29.9287 25.2078C30.1405 25.0911 30.299 25.1028 30.5042 25.2145C31.2298 25.6111 31.967 25.9877 32.7226 26.3827C32.7226 26.2894 32.731 26.2277 32.721 26.1711C32.5892 25.4061 32.4657 24.6395 32.3173 23.8779C32.2739 23.6529 32.3223 23.5079 32.4874 23.3546C32.9328 22.9396 33.3615 22.5046 33.8001 22.0813C33.9619 21.9246 34.1321 21.7763 34.3639 21.5663C33.4599 21.4363 32.6642 21.313 31.8653 21.2097C31.6067 21.1764 31.4399 21.0964 31.3215 20.833C30.9862 20.0964 30.6076 19.3731 30.2123 18.5782ZM42.2803 17.8915C40.9209 17.8915 39.6065 17.8915 38.3004 17.8915C38.3004 20.8014 38.3004 23.6829 38.3004 26.6444C38.6507 26.496 38.9743 26.3994 39.2545 26.2311C40.1503 25.6928 40.6607 24.8395 41.056 23.9095C41.5981 22.6363 41.8933 21.2963 42.0735 19.9314C42.1602 19.2565 42.2103 18.5798 42.2803 17.8915ZM22.1291 26.586C22.1291 23.6712 22.1291 20.7814 22.1291 17.8849C20.8013 17.8849 19.4953 17.8849 18.1809 17.8849C18.1776 17.9465 18.1709 17.9865 18.1726 18.0265C18.2743 19.6964 18.4978 21.3463 19.0132 22.9429C19.3268 23.9129 19.7188 24.8545 20.4277 25.6194C20.8864 26.1161 21.4252 26.4744 22.1291 26.586Z" fill="white"/>
</svg>
