<svg width="60" height="60" viewBox="0 0 60 60" fill="none" xmlns="http://www.w3.org/2000/svg">
<circle cx="30" cy="30" r="30" fill="#F2994A"/>
<path d="M41.8283 28.0146C41.4072 29.4708 41.0641 30.8588 40.5806 32.1942C40.4617 32.5237 39.8846 32.8902 39.5142 32.8941C35.1806 32.9447 30.8469 32.9272 26.5133 32.9292C25.8719 32.9292 25.4625 32.6133 25.3163 31.9993C24.6301 29.1297 23.9381 26.26 23.283 23.3846C23.0842 22.5151 23.4799 21.979 24.3182 21.9732C27.8506 21.9498 31.383 21.9634 35.0032 21.9634C34.9603 23.8388 35.4711 25.4783 36.8922 26.7279C38.2822 27.958 39.9256 28.3245 41.8283 28.0146Z" fill="white"/>
<path d="M24.4166 33.9331C27.333 33.9331 30.1987 33.9331 33.0644 33.9331C34.9398 33.9331 36.8152 33.9292 38.6906 33.9351C39.5639 33.937 40.0591 34.3289 40.0825 35.0053C40.1059 35.7169 39.5951 36.1497 38.6867 36.1497C33.7214 36.1536 28.7581 36.1536 23.7928 36.1497C22.7869 36.1497 22.5081 35.904 22.2878 34.8884C21.3443 30.5255 20.3929 26.1645 19.4669 21.7977C19.3578 21.285 19.157 20.9965 18.6287 20.8347C17.418 20.4643 16.2308 20.0159 15.0358 19.5948C14.0318 19.24 13.6595 18.6981 13.9324 18.0021C14.2014 17.314 14.7843 17.1385 15.7376 17.4699C17.2211 17.9846 18.691 18.5382 20.1902 19.0061C20.9466 19.242 21.3072 19.6689 21.4671 20.4331C22.3814 24.7746 23.3308 29.1082 24.2724 33.4438C24.2996 33.5725 24.3464 33.7012 24.4166 33.9331Z" fill="white"/>
<path d="M35.6934 22.6285C35.6798 19.9227 37.8729 17.7237 40.5788 17.7334C43.23 17.7412 45.4134 19.9441 45.4095 22.609C45.4056 25.2662 43.2144 27.4632 40.5573 27.469C37.9022 27.4749 35.7071 25.2915 35.6934 22.6285ZM42.6257 20.4685C41.7465 21.4101 40.8848 22.3342 39.8614 23.4317C39.3721 22.7669 38.9763 22.2328 38.524 21.6207C38.0698 22.0963 37.7696 22.4102 37.5747 22.6168C38.4051 23.4746 39.1986 24.2914 39.9316 25.0498C41.1207 23.8567 42.345 22.6305 43.6726 21.299C43.4562 21.1274 43.1969 20.9208 42.9357 20.7142C42.8538 20.6459 42.77 20.5835 42.6257 20.4685Z" fill="white"/>
<path d="M37.4845 37.0504C39.2058 37.0348 40.6094 38.3878 40.6426 40.0955C40.6757 41.8325 39.2643 43.2575 37.5137 43.2575C35.804 43.2575 34.4063 41.8675 34.3985 40.1657C34.3926 38.456 35.7689 37.068 37.4845 37.0504ZM38.892 40.1442C38.89 39.3898 38.2974 38.7777 37.5527 38.7621C36.7807 38.7445 36.1374 39.382 36.1413 40.1598C36.1452 40.9065 36.7476 41.5264 37.4845 41.5459C38.2564 41.5654 38.8959 40.9299 38.892 40.1442Z" fill="white"/>
<path d="M24.8731 43.2576C23.1537 43.2439 21.7735 41.8618 21.7774 40.156C21.7832 38.3956 23.1771 37.0291 24.9472 37.0485C26.6549 37.068 28.0254 38.4756 28.0059 40.1891C27.9844 41.9027 26.5886 43.2693 24.8731 43.2576ZM26.2689 40.1579C26.2709 39.3743 25.6314 38.7446 24.8536 38.7641C24.1206 38.7836 23.4948 39.4171 23.4948 40.1462C23.4929 40.8773 24.1128 41.5187 24.8419 41.544C25.6158 41.5713 26.267 40.9377 26.2689 40.1579Z" fill="white"/>
</svg>
