<svg width="60" height="60" viewBox="0 0 60 60" fill="none" xmlns="http://www.w3.org/2000/svg">
<circle cx="30" cy="30" r="30" fill="#22C55E"/>
<path d="M29.9703 43.7387C27.4494 43.7387 24.9286 43.7507 22.4077 43.7347C20.2721 43.7227 19.0338 42.5095 19.0197 40.3804C18.9955 37.0221 18.9915 33.6638 19.0197 30.3055C19.0378 28.2083 20.3265 26.9731 22.4481 26.9692C27.4212 26.9592 32.3964 26.9612 37.3695 26.9692C39.604 26.9731 40.8564 28.2203 40.8644 30.4452C40.8745 33.7376 40.8786 37.0301 40.8644 40.3225C40.8544 42.5055 39.6242 43.7247 37.43 43.7367C34.9434 43.7487 32.4569 43.7387 29.9703 43.7387ZM27.5321 33.7237C27.6108 33.9212 27.6592 34.5398 27.9919 34.7972C28.8954 35.4976 28.7542 36.4035 28.7563 37.3154C28.7563 37.7464 28.6272 38.2533 28.8107 38.5885C29.0467 39.0175 29.5367 39.5822 29.9219 39.5862C30.3131 39.5902 30.8496 39.0495 31.0613 38.6224C31.261 38.2174 31.1319 37.6487 31.1319 37.1538C31.1319 36.3018 31.0936 35.5215 31.868 34.8212C32.6041 34.1547 32.4871 32.8876 31.8841 32.0615C31.2811 31.2354 30.2002 30.8802 29.2019 31.1795C28.2521 31.4648 27.5483 32.4147 27.5321 33.7237Z" fill="white"/>
<path d="M37.5315 26.0274C36.3356 26.0274 35.2466 26.0274 34.0345 26.0274C34.0345 25.1634 34.0446 24.3452 34.0325 23.5251C33.9982 21.0827 32.2397 19.235 29.9467 19.223C27.6497 19.211 25.8851 21.0428 25.8448 23.4972C25.8306 24.3193 25.8427 25.1434 25.8427 26.0254C24.6448 26.0254 23.5558 26.0254 22.4729 26.0254C21.7126 21.0947 23.5054 17.4331 27.7546 16.1141C32.5603 14.6215 37.3984 18.1275 37.5274 23.1101C37.5516 24.0639 37.5315 25.0197 37.5315 26.0274Z" fill="white"/>
</svg>
