<svg width="60" height="60" viewBox="0 0 60 60" fill="none" xmlns="http://www.w3.org/2000/svg">
<circle cx="30" cy="30" r="30" fill="#2DD4BF"/>
<path d="M41.8283 27.5958C41.4072 29.0508 41.0641 30.4376 40.5806 31.7718C40.4617 32.101 39.8846 32.4672 39.5142 32.4711C35.1806 32.5217 30.8469 32.5042 26.5133 32.5061C25.8719 32.5061 25.4625 32.1906 25.3163 31.577C24.6301 28.7099 23.9381 25.8428 23.283 22.9698C23.0842 22.1011 23.4799 21.5654 24.3182 21.5596C27.8506 21.5362 31.383 21.5499 35.0032 21.5499C34.9603 23.4236 35.4711 25.0617 36.8922 26.3102C38.2822 27.5393 39.9256 27.9055 41.8283 27.5958Z" fill="white"/>
<path d="M24.4186 33.5096C27.335 33.5096 30.2007 33.5096 33.0664 33.5096C34.9418 33.5096 36.8171 33.5057 38.6925 33.5116C39.5659 33.5135 40.061 33.905 40.0844 34.5809C40.1078 35.2918 39.5971 35.7242 38.6886 35.7242C33.7234 35.7281 28.76 35.7281 23.7947 35.7242C22.7888 35.7242 22.51 35.4788 22.2898 34.464C21.3462 30.1049 20.3949 25.7477 19.4689 21.3847C19.3597 20.8724 19.1589 20.5841 18.6306 20.4225C17.42 20.0524 16.2328 19.6044 15.0378 19.1837C14.0338 18.8292 13.6614 18.2877 13.9344 17.5924C14.2034 16.9048 14.7863 16.7295 15.7396 17.0606C17.2231 17.5748 18.693 18.128 20.1921 18.5955C20.9485 18.8311 21.3092 19.2577 21.469 20.0212C22.3833 24.3589 23.3327 28.6889 24.2743 33.0207C24.3016 33.1493 24.3484 33.2778 24.4186 33.5096Z" fill="white"/>
<path d="M35.6934 22.2146C35.6798 19.5111 37.8729 17.314 40.5788 17.3238C43.23 17.3316 45.4134 19.5325 45.4095 22.1952C45.4056 24.85 43.2144 27.0451 40.5573 27.051C37.9022 27.0568 35.7071 24.8753 35.6934 22.2146ZM42.6257 20.0565C41.7465 20.9973 40.8848 21.9205 39.8614 23.0171C39.3721 22.3529 38.9763 21.8192 38.524 21.2076C38.0698 21.6829 37.7696 21.9965 37.5747 22.203C38.4051 23.06 39.1986 23.8761 39.9316 24.6338C41.1207 23.4417 42.345 22.2166 43.6726 20.8863C43.4562 20.7148 43.1969 20.5084 42.9357 20.3019C42.8538 20.2337 42.77 20.1714 42.6257 20.0565Z" fill="white"/>
<path d="M37.4845 36.6246C39.2058 36.6091 40.6094 37.9608 40.6426 39.6671C40.6757 41.4026 39.2643 42.8264 37.5137 42.8264C35.804 42.8264 34.4063 41.4376 34.3985 39.7372C34.3926 38.029 35.7689 36.6422 37.4845 36.6246ZM38.892 39.7158C38.89 38.962 38.2974 38.3504 37.5527 38.3348C36.7807 38.3173 36.1374 38.9542 36.1413 39.7314C36.1452 40.4774 36.7476 41.0967 37.4845 41.1162C38.2564 41.1357 38.8959 40.5007 38.892 39.7158Z" fill="white"/>
<path d="M24.8751 42.8255C23.1556 42.8118 21.7754 41.4309 21.7793 39.7265C21.7852 37.9677 23.179 36.6023 24.9491 36.6218C26.6569 36.6413 28.0273 38.0476 28.0078 39.7597C27.9864 41.4718 26.5906 42.8372 24.8751 42.8255ZM26.2709 39.7285C26.2728 38.9455 25.6334 38.3164 24.8556 38.3358C24.1226 38.3553 23.4968 38.9883 23.4968 39.7168C23.4948 40.4472 24.1148 41.088 24.8439 41.1134C25.6178 41.1406 26.2689 40.5076 26.2709 39.7285Z" fill="white"/>
</svg>
