<svg width="60" height="60" viewBox="0 0 60 60" fill="none" xmlns="http://www.w3.org/2000/svg">
<circle cx="30" cy="30" r="30" fill="#0A82FD"/>
<path d="M29.9407 28.1174C29.3978 27.9382 28.8874 27.8361 28.4342 27.6119C24.4201 25.6248 20.4135 23.6178 16.4044 21.6207C16.1106 21.4738 15.884 21.2846 15.879 20.9335C15.874 20.5674 16.1006 20.3632 16.4094 20.2088C20.3911 18.2242 24.3728 16.2346 28.352 14.245C29.4974 13.6723 30.6255 13.737 31.756 14.3072C34.3133 15.5946 36.8806 16.8696 39.443 18.1495C40.7503 18.8019 42.0551 19.4568 43.3599 20.1117C43.4346 20.1491 43.5093 20.1839 43.5865 20.2213C43.8853 20.3607 44.092 20.5774 44.092 20.9235C44.092 21.2746 43.8704 21.4713 43.5766 21.6157C41.7214 22.5396 39.8688 23.4684 38.0136 24.3922C35.8721 25.4605 33.7406 26.5437 31.5866 27.5846C31.0737 27.8336 30.4935 27.9431 29.9407 28.1174Z" fill="white"/>
<path d="M28.9083 38.6009C28.9083 40.8271 28.9108 43.0532 28.9058 45.2794C28.9033 46.0712 28.4576 46.3501 27.728 46.014C24.0775 44.3331 20.4245 42.6573 16.7814 40.964C15.6086 40.4187 15.0109 39.465 15.006 38.1751C14.996 33.9319 15.001 29.6888 15.0035 25.4456C15.0035 24.6263 15.4641 24.3226 16.1962 24.6612C19.9713 26.4018 23.7438 28.1524 27.5213 29.8855C28.48 30.3262 28.9232 31.0434 28.9158 32.0917C28.9008 34.2631 28.9108 36.432 28.9108 38.6034C28.9108 38.6009 28.9108 38.6009 28.9083 38.6009Z" fill="white"/>
<path d="M31.0591 38.5387C31.0591 36.3548 31.0641 34.171 31.0567 31.9872C31.0542 31.0011 31.5049 30.3213 32.3889 29.9129C36.1888 28.1599 39.9912 26.4118 43.7911 24.6613C44.4834 24.3425 44.959 24.6289 44.959 25.3834C44.964 29.6689 44.9714 33.9519 44.954 38.2374C44.949 39.5497 44.2767 40.466 43.0939 41.0139C40.1406 42.3784 37.1848 43.7405 34.2316 45.1026C33.5991 45.394 32.9691 45.6853 32.3391 45.9767C31.4825 46.3701 31.0567 46.1037 31.0567 45.1724C31.0567 42.9611 31.0567 40.7474 31.0567 38.5362C31.0591 38.5387 31.0591 38.5387 31.0591 38.5387Z" fill="white"/>
</svg>
