<svg width="60" height="60" viewBox="0 0 60 60" fill="none" xmlns="http://www.w3.org/2000/svg">
<circle cx="30" cy="30" r="30" fill="#FFC837"/>
<path d="M29.9407 27.7853C29.3978 27.6062 28.8874 27.5042 28.4342 27.2802C24.4201 25.2948 20.4135 23.2895 16.4044 21.2942C16.1106 21.1474 15.884 20.9583 15.879 20.6075C15.874 20.2418 16.1006 20.0378 16.4094 19.8835C20.3911 17.9006 24.3728 15.9127 28.352 13.9248C29.4974 13.3526 30.6255 13.4173 31.756 13.987C34.3133 15.2733 36.8806 16.5471 39.443 17.826C40.7503 18.4778 42.0551 19.1321 43.3599 19.7865C43.4346 19.8238 43.5093 19.8586 43.5865 19.896C43.8853 20.0353 44.092 20.2517 44.092 20.5976C44.092 20.9484 43.8704 21.1449 43.5766 21.2892C41.7214 22.2123 39.8688 23.1403 38.0136 24.0633C35.8721 25.1306 33.7406 26.2129 31.5866 27.2529C31.0737 27.5017 30.4935 27.6111 29.9407 27.7853Z" fill="white"/>
<path d="M28.9083 38.2601C28.9083 40.4844 28.9108 42.7086 28.9058 44.9329C28.9033 45.724 28.4576 46.0027 27.728 45.6668C24.0775 43.9874 20.4245 42.313 16.7814 40.6212C15.6086 40.0763 15.0109 39.1235 15.006 37.8347C14.996 33.5952 15.001 29.3557 15.0035 25.1162C15.0035 24.2976 15.4641 23.9941 16.1962 24.3325C19.9713 26.0716 23.7438 27.8206 27.5213 29.5522C28.48 29.9926 28.9232 30.7091 28.9158 31.7566C28.9008 33.9261 28.9108 36.0931 28.9108 38.2626C28.9108 38.2601 28.9108 38.2601 28.9083 38.2601Z" fill="white"/>
<path d="M31.0591 38.198C31.0591 36.016 31.0641 33.8341 31.0567 31.6521C31.0542 30.6669 31.5049 29.9877 32.3889 29.5797C36.1888 27.8281 39.9912 26.0816 43.7911 24.3325C44.4834 24.0141 44.959 24.3002 44.959 25.054C44.964 29.3358 44.9714 33.6151 44.954 37.8969C44.949 39.2081 44.2767 40.1237 43.0939 40.671C40.1406 42.0344 37.1848 43.3954 34.2316 44.7563C33.5991 45.0474 32.9691 45.3385 32.3391 45.6295C31.4825 46.0226 31.0567 45.7564 31.0567 44.8259C31.0567 42.6166 31.0567 40.4048 31.0567 38.1955C31.0591 38.198 31.0591 38.198 31.0591 38.198Z" fill="white"/>
</svg>
