<svg width="15" height="9" viewBox="0 0 15 9" fill="none" xmlns="http://www.w3.org/2000/svg">
<path d="M7.31803 6.19855C9.21227 4.22908 11.0103 2.34913 12.8274 0.487273C13.035 0.274898 13.3331 0.0977596 13.6188 0.0263329C14.0198 -0.0746168 14.3702 0.122521 14.5826 0.483464C14.8017 0.856788 14.7893 1.24249 14.5378 1.60248C14.4474 1.73105 14.3331 1.84438 14.2226 1.95771C12.2541 4.00528 10.2856 6.05189 8.3161 8.09755C7.61231 8.82896 7.1228 8.83372 6.43044 8.11565C4.44954 6.05856 2.46959 4.00052 0.490592 1.94152C0.381071 1.82724 0.26774 1.71391 0.178219 1.58439C-0.103679 1.17773 -0.0436793 0.615841 0.304883 0.279659C0.654398 -0.0565226 1.21819 -0.0946169 1.61247 0.202518C1.73818 0.296802 1.84579 0.415846 1.95627 0.530129C3.65051 2.29104 5.3438 4.05194 7.03518 5.81571C7.13137 5.91761 7.20375 6.04332 7.31803 6.19855Z" fill="#0A82FD"/>
</svg>
