<svg width="11" height="14" viewBox="0 0 11 14" fill="none" xmlns="http://www.w3.org/2000/svg">
<path d="M5.83203 6.99984H6.66537C7.43891 6.99984 8.18078 7.30713 8.72776 7.85411C9.27474 8.40109 9.58203 9.14296 9.58203 9.91651C9.58203 10.6901 9.27474 11.4319 8.72776 11.9789C8.18078 12.5259 7.43891 12.8332 6.66537 12.8332H0.832031V6.99984M0.832031 1.1665H5.83203C6.60558 1.1665 7.34745 1.47379 7.89443 2.02078C8.44141 2.56776 8.7487 3.30962 8.7487 4.08317C8.7487 4.85672 8.44141 5.59858 7.89443 6.14557C7.34745 6.69255 6.60558 6.99984 5.83203 6.99984H0.832031V1.1665Z" stroke="#A0AEC0" stroke-width="1.5" stroke-linecap="round" stroke-linejoin="round"/>
</svg>
