<svg width="505" height="266" viewBox="0 0 505 266" fill="none" xmlns="http://www.w3.org/2000/svg">
<path d="M459.047 95.5713L286.823 239.957L196.208 162.599C179.249 177.565 153.055 200.667 126.706 223.847C108.699 239.69 94.1191 252.49 82.3017 262.85L0 262.754C22.8233 243.282 114.718 162.358 176.629 107.668L195.559 90.9466L287.158 169.146L421.607 56.4277L459.047 95.5713Z" fill="#D5E5FB"/>
<path d="M399.805 38.6707L481.829 121.118L505 26.9336L399.805 38.6707Z" fill="#D5E5FB"/>
<path d="M130.914 212.395C130.608 204.846 129.948 198.278 129.158 193.699C127.898 186.398 126.763 182.198 126.75 182.155C126.584 181.512 124.186 178.915 118.856 178.994C113.526 179.075 114.031 182.481 114.031 182.481C114.031 182.595 114.047 182.702 114.069 182.784C114.119 182.959 119.014 200.739 118.802 223.694C118.799 224.016 118.762 224.573 118.786 224.943C118.786 224.945 131.14 225.263 131.142 224.943C131.573 222.938 131.363 217.379 130.914 212.395Z" fill="#B7D3F3"/>
<path d="M132.467 223.582C132.463 223.902 132.294 224.158 132.089 224.158H132.084C131.879 224.154 131.715 223.897 131.713 223.582H121.127C121.122 223.902 120.954 224.158 120.748 224.158H120.744C120.534 224.154 120.368 223.889 120.372 223.564C120.433 216.993 120.059 210.856 119.493 205.442C118.086 191.936 115.484 182.911 115.447 182.786C115.422 182.705 115.409 182.597 115.409 182.483C115.409 182.483 114.904 179.077 120.234 178.996C125.567 178.915 127.964 181.514 128.13 182.157C128.139 182.189 128.782 184.568 129.635 188.844C129.917 190.26 130.223 191.884 130.536 193.701C131.325 198.282 131.986 204.848 132.292 212.397C132.741 217.379 132.898 221.576 132.467 223.582Z" fill="#D2E3FC"/>
<path d="M119.589 224.158H161.094C161.094 224.158 160.127 220.239 136.092 220.822C119.082 221.234 119.589 224.158 119.589 224.158Z" fill="#C5DCF8"/>
<path d="M116.212 265.097C121.024 240.685 119.786 225.704 119.781 225.515C119.768 225.14 120.462 224.798 120.833 224.785C121.21 224.779 122.872 224.673 123.062 224.996C123.314 225.417 124.283 243.874 117.111 265.097H116.212Z" fill="#B7D3F3"/>
<path d="M154.962 265.097C150.151 240.685 151.388 225.704 151.393 225.515C151.406 225.14 150.715 224.798 150.341 224.785C149.965 224.779 148.302 224.673 148.112 224.996C147.861 225.417 146.892 243.874 154.063 265.097H154.962Z" fill="#B7D3F3"/>
<path d="M162.641 265.097C157.829 240.685 159.067 225.704 159.072 225.515C159.085 225.14 158.391 224.798 158.02 224.785C157.643 224.779 155.981 224.673 155.791 224.996C155.539 225.417 154.57 243.874 161.742 265.097H162.641Z" fill="#B7D3F3"/>
<path d="M123.944 265.097C128.756 240.685 127.518 225.704 127.514 225.515C127.501 225.14 128.194 224.798 128.566 224.785C128.942 224.779 130.604 224.673 130.795 224.996C131.046 225.417 132.015 243.874 124.843 265.097H123.944Z" fill="#B7D3F3"/>
<path d="M161.117 225.407H119.615C119.147 225.407 118.764 225.023 118.764 224.554V223.995C118.764 223.526 119.147 223.143 119.615 223.143H161.119C161.587 223.143 161.97 223.526 161.97 223.995V224.554C161.968 225.023 161.585 225.407 161.117 225.407Z" fill="#B7D3F3"/>
<path d="M159.661 187.847L173.457 184.853L174.269 186.836C174.269 186.836 159.046 195.912 157.62 195.47C156.194 195.025 159.661 187.847 159.661 187.847Z" fill="#FFB27D"/>
<path d="M147.117 250.375C146.772 250.772 146.728 251.215 146.899 251.688C146.899 251.69 146.901 251.693 146.903 251.695C147.22 252.572 148.263 253.549 149.477 254.524C149.633 254.649 149.77 254.763 149.891 254.871C149.921 254.899 149.954 254.926 149.983 254.954C150.007 254.976 150.031 254.998 150.055 255.018C151.186 256.063 150.761 256.302 152.793 258.424C155.112 260.841 156.708 260.885 157.161 260.664C157.546 260.475 156.765 259.193 155.899 257.753C155.857 257.683 155.816 257.613 155.772 257.543C155.656 257.352 155.542 257.157 155.429 256.964C154.416 255.23 154.676 254.417 154.915 251.835C155.109 249.738 158.171 240.118 158.171 240.118L153.729 239.351C153.729 239.351 152.391 247.011 150.917 248.19C150.129 248.819 149.246 248.828 148.489 249.293C148.436 249.326 148.384 249.358 148.331 249.393C147.903 249.683 147.465 249.976 147.117 250.375Z" fill="#FFB27D"/>
<path d="M147.117 250.374C146.772 250.771 146.728 251.214 146.899 251.687C146.899 251.69 146.901 251.692 146.903 251.694C147.29 252.569 148.309 253.542 149.482 254.515C149.635 254.642 149.77 254.76 149.891 254.87C149.921 254.898 149.954 254.925 149.983 254.953C150.007 254.975 150.031 254.997 150.055 255.017C151.186 256.062 150.761 256.301 152.793 258.423C155.112 260.84 156.708 260.884 157.161 260.663C157.546 260.474 156.765 259.192 155.899 257.752C155.448 257.586 153.351 256.733 151.767 254.701C150.372 252.917 149.44 250.622 148.489 249.294C148.436 249.327 148.384 249.36 148.331 249.395C147.903 249.682 147.465 249.976 147.117 250.374Z" fill="#1C468A"/>
<path d="M182.941 247.594C183.215 248.968 185.17 248.738 187.355 248.203C189.54 247.668 189.019 248.304 192.127 247.96C195.235 247.616 196.178 246.454 196.272 245.989C196.357 245.577 194.822 245.433 193.173 245.244C192.965 245.22 192.757 245.196 192.549 245.17C190.69 244.935 189.328 243.734 187.637 242.746C186.036 241.81 183.648 237.998 183.648 237.998L179.385 238.336C179.385 238.336 181.622 241.739 182.486 243.221C182.996 244.091 182.967 245.242 182.904 246.132C182.876 246.616 182.845 247.109 182.941 247.594Z" fill="#FFB27D"/>
<path d="M187.355 248.204C189.54 247.669 189.019 248.305 192.127 247.961C195.235 247.617 196.178 246.455 196.272 245.99C196.357 245.578 194.822 245.434 193.173 245.245L193.158 245.276C193.158 245.276 191.294 246.6 188.707 246.663C186.598 246.714 184.365 246.109 182.908 246.133C182.876 246.615 182.845 247.11 182.941 247.595C183.215 248.967 185.17 248.739 187.355 248.204Z" fill="#1C468A"/>
<path d="M173.455 184.852C173.455 184.852 174.47 182.358 175.588 182.257C176.705 182.156 180.259 181.595 180.513 182.104C180.767 182.612 180.513 184.445 179.752 185.107C178.991 185.768 174.269 186.836 174.269 186.836L173.455 184.852Z" fill="#FFB27D"/>
<path d="M166.605 220.28L157.419 245.056C157.419 245.056 156.008 245.192 154.654 244.802C153.41 244.442 151.981 243.498 151.981 243.498C151.981 243.498 154.26 219.708 158.438 214.761C162.618 209.814 166.605 220.28 166.605 220.28Z" fill="#2F3032"/>
<path d="M130.269 210.256C130.269 210.256 156.667 201.311 162.555 203.214C168.442 205.116 186.119 240.361 186.119 240.361C186.119 240.361 185.721 240.893 184.632 241.301C183.619 241.682 181.168 241.656 181.168 241.656C181.168 241.656 165.214 227.953 163.316 223.957C161.417 219.961 160.656 216.154 158.758 216.536C156.859 216.917 134.259 225.862 129.132 220.531C124.005 215.203 125.346 208.279 125.346 208.279L130.269 210.256Z" fill="#2F3032"/>
<path d="M145.319 147.182C144.178 146.533 142.811 146.461 141.855 146.518C142.102 146.264 142.585 146.17 142.585 146.17C141.993 146.082 140.67 146.672 140.67 146.672C132.419 143.487 131.122 155.66 131.295 158.488C131.468 161.315 131.488 164.57 127.369 167.108C119.266 172.099 126.103 180.811 126.103 180.811C126.166 180.848 129.874 187.148 129.874 187.148C129.666 184.862 140.188 172.802 145.678 169.19C147.015 167.218 147.489 163.735 147.524 163.461C147.294 166.222 146.822 167.772 146.4 168.644C151.05 164.357 148.342 148.905 145.319 147.182Z" fill="#2F3032"/>
<path d="M145.353 169.37C145.381 169.384 142.702 170.775 140.687 170.225C138.793 169.708 137.555 167.244 137.579 167.24C138.382 167.08 138.614 165.975 138.596 161.226L138.96 161.298L145.06 162.508C145.06 162.508 144.922 164.432 144.917 166.243C144.913 167.766 145.005 169.208 145.353 169.37Z" fill="#FFB27D"/>
<path d="M145.06 162.508C145.06 162.508 144.922 164.432 144.917 166.243C141.503 166.146 139.699 163.025 138.959 161.296L145.06 162.508Z" fill="#ED975D"/>
<path d="M138.329 160.631C138.329 160.631 136.54 157.799 136.111 155.377C135.805 153.648 136.684 147.239 143.11 148.162C143.11 148.162 144.976 148.346 146.732 149.534C148.128 150.478 150.142 152.517 147.889 158.11L147.305 160L138.329 160.631Z" fill="#2F3032"/>
<path d="M146.199 164.223C146.199 164.223 138.124 164.357 138.118 159.316C138.111 154.275 137.066 150.897 142.223 150.599C147.378 150.301 148.382 152.223 148.793 153.904C149.204 155.586 148.301 164.059 146.199 164.223Z" fill="#FFB27D"/>
<path d="M145.901 150.475C145.901 150.475 143.69 156.388 140.298 157.263C136.903 158.137 135.431 157.225 135.431 157.225C135.431 157.225 138.034 155.154 138.574 151.535C138.574 151.538 144.232 147.66 145.901 150.475Z" fill="#2F3032"/>
<path d="M145.352 150.954C145.352 150.954 147.003 152.273 147.406 153.558C147.808 154.842 147.99 157.483 148.758 157.394C148.758 157.394 150.424 153.374 148.552 151.099C146.568 148.69 145.352 150.954 145.352 150.954Z" fill="#2F3032"/>
<path d="M127.369 191.144C126.573 187.797 129.283 181.303 132.111 175.924C134.677 171.049 137.341 167.098 137.581 167.24C144.351 171.266 144.961 167.92 144.961 167.92C144.963 167.92 151.109 168.737 152.85 171.74C155.009 175.466 157.342 185.877 159.661 187.85C159.304 188.941 159.458 189.522 159.836 190.874C159.917 191.164 160.006 191.44 160.105 191.701C160.455 192.652 160.89 193.423 161.269 194.094C160.09 194.811 157.815 196.176 156.14 195.194C153.585 193.695 151.59 189.134 150.468 187.317C150.464 187.31 150.459 187.304 150.455 187.297C148.016 201.13 151.332 204.282 149.655 205.739C147.883 207.28 145.35 205.005 139.779 207.425C136.125 209.014 131.055 211.311 127.64 211.71C125.849 211.92 124.515 211.609 124.08 210.397C122.811 206.875 128.889 197.524 127.369 191.144Z" fill="#1C468A"/>
<path d="M144.406 161.166C144.406 161.166 144.557 161.806 146.147 161.707C146.147 161.707 147.481 161.624 147.442 160.92C147.439 160.922 146.145 160.42 144.406 161.166Z" fill="white"/>
<path d="M124.077 210.397C124.512 211.609 125.849 211.92 127.638 211.709C130 210.677 140.208 206.714 140.094 204.032C139.923 200.056 138.132 199.928 139.398 195.023C140.416 191.085 130.984 183.757 129.48 182.166C126.652 187.543 126.573 187.797 127.369 191.144C128.889 197.524 122.811 206.874 124.077 210.397Z" fill="#163560"/>
<path d="M122.923 196.059C124.734 193.512 126.619 192.164 127.859 191.487C127.573 190.75 135.473 181.045 135.473 179.541C135.473 178.018 137.581 167.236 137.581 167.236C137.581 167.236 131 167.644 128.721 170.829C125.869 174.811 119.95 190.141 122.923 196.059Z" fill="#1C468A"/>
<path d="M127.859 191.488L141.011 194.927L139.777 197.148C139.777 197.148 123.772 197.036 122.923 196.058C122.074 195.083 127.859 191.488 127.859 191.488Z" fill="#FFB27D"/>
<path d="M150.466 187.316C151.588 189.133 153.58 193.695 156.137 195.194C157.813 196.174 160.087 194.81 161.266 194.093C160.89 193.423 160.453 192.651 160.103 191.7C159.162 191.915 158.016 192.191 157.275 192.415C155.835 192.851 150.466 187.316 150.466 187.316Z" fill="#163560"/>
<path d="M141.011 194.927C141.011 194.927 145.141 193.757 146.125 194.031C147.109 194.305 150.479 196.54 150.005 197.15C149.53 197.757 146.562 196.786 145.195 196.97C143.828 197.154 142.772 197.829 141.788 197.682C140.803 197.536 139.775 197.15 139.775 197.15L141.011 194.927Z" fill="#FFB27D"/>
<path d="M141.011 194.927C141.011 194.927 143.032 193.886 143.607 193.294C143.68 193.219 143.802 193.235 143.859 193.322C144.012 193.566 144.156 194.037 143.448 194.504C142.429 195.177 141.011 194.927 141.011 194.927Z" fill="#FFB27D"/>
<path d="M160.099 200.75H140.83C140.83 199.899 141.516 199.211 142.365 199.211H160.099V200.75Z" fill="#0A82FD"/>
<path d="M160.044 179.719H189.836L182.69 200.749H152.704L160.044 179.719Z" fill="#0A82FD"/>
<path d="M190.275 179.719L183.128 200.749H153.144L160.482 179.719H190.275Z" fill="#0A82FD"/>
<path d="M174.213 190.04C174.027 190.845 173.228 191.496 172.426 191.496C171.623 191.496 171.124 190.845 171.308 190.04C171.494 189.236 172.292 188.585 173.095 188.585C173.898 188.585 174.399 189.236 174.213 190.04Z" fill="#F9DDBF"/>
<path d="M190.275 179.719L183.128 200.749H163.27C176.424 196.249 179.925 182.531 180.514 179.719H190.275Z" fill="#0A82FD"/>
<path d="M103.784 265.095C104.161 265.095 104.484 264.83 104.548 264.468L108.29 243.214L113.673 212.647L115.177 204.099L111.343 203.989L110.678 208.952L106.009 243.821L103.24 264.49C103.196 264.81 103.452 265.095 103.784 265.095Z" fill="#95C0F4"/>
<path d="M110.678 208.952C113.163 210.05 113.672 212.647 113.672 212.647L115.177 204.099L111.343 203.989L110.678 208.952Z" fill="#78ACEA"/>
<path d="M199.132 265.095C198.756 265.095 198.432 264.83 198.369 264.468L194.626 243.214L189.246 212.647L187.741 204.099L191.575 203.989L192.24 208.952L196.91 243.821L199.679 264.49C199.72 264.81 199.465 265.095 199.132 265.095Z" fill="#95C0F4"/>
<path d="M192.239 208.952C189.756 210.05 189.245 212.647 189.245 212.647L187.74 204.099L191.574 203.989L192.239 208.952Z" fill="#78ACEA"/>
<path d="M101.226 207.455H199.393C200.679 207.455 201.731 206.401 201.731 205.112V203.087C201.731 201.798 200.679 200.744 199.393 200.744H101.226C99.9397 200.744 98.8877 201.798 98.8877 203.087V205.112C98.8877 206.401 99.9397 207.455 101.226 207.455Z" fill="#78ACEA"/>
<path d="M345.065 197.167C345.065 197.167 342.519 200.332 343.315 200.764C344.111 201.196 346.216 202.002 346.712 201.494C347.209 200.985 347.364 197.255 347.364 197.255L345.065 197.167Z" fill="#FFB27D"/>
<path d="M345.168 197.219C345.168 197.219 344.127 197.58 343.718 198.124C343.309 198.668 342.403 199.494 342.624 199.724C342.845 199.954 344.146 198.939 344.146 198.939L345.168 197.219Z" fill="#FFB27D"/>
<path d="M354.691 154.902C354.691 154.902 351.821 181.68 351.565 182.442C351.51 182.609 351.285 183.455 350.968 184.676C350.515 186.418 349.879 188.921 349.273 191.3C348.359 194.894 347.521 198.213 347.521 198.213L345.03 197.391C345.03 197.391 344.901 184.378 345.541 181.382C346.185 178.383 348.234 159.974 349.268 157.497C350.301 155.019 354.691 154.902 354.691 154.902Z" fill="#AEC3FF"/>
<path d="M348.722 219.114L333.068 215C331.032 214.465 329.8 212.357 330.334 210.314L332.112 203.515C332.646 201.472 334.75 200.241 336.788 200.775L352.442 204.889C354.478 205.424 355.71 207.533 355.174 209.575L353.396 216.374C352.864 218.417 350.76 219.649 348.722 219.114Z" fill="#F2C94C"/>
<path d="M334.179 204.054L332.379 210.932C332.031 212.265 332.429 213.624 333.311 214.56C333.604 214.871 333.949 215.134 334.339 215.336C334.339 215.336 334.339 215.336 334.341 215.336C334.584 215.463 334.844 215.564 335.12 215.636L350.747 219.741C352.792 220.278 354.903 219.042 355.441 216.993L357.241 210.115C357.777 208.065 356.543 205.948 354.498 205.411L349.118 203.997L349.503 202.531C349.68 201.854 349.273 201.157 348.597 200.979L348.007 200.824L344.734 199.964L343.921 199.752C343.595 199.666 343.252 199.712 342.958 199.883C342.665 200.054 342.458 200.33 342.372 200.657L341.987 202.123L338.871 201.304C338.746 201.271 338.626 201.247 338.501 201.227C338.499 201.227 338.499 201.227 338.499 201.227C337.246 201.028 336.005 201.472 335.152 202.338C334.697 202.801 334.354 203.384 334.179 204.054ZM348.35 203.796L342.757 202.327L343.142 200.861C343.208 200.609 343.468 200.455 343.72 200.523L345.124 200.892L347.7 201.569L348.396 201.753C348.444 201.766 348.488 201.786 348.527 201.81C348.698 201.917 348.787 202.128 348.735 202.332L348.35 203.796Z" fill="#F2C94C"/>
<path d="M346.552 201.563C346.552 201.563 347.248 200.391 346.987 199.981C346.727 199.571 345.789 201.197 345.789 201.197C345.789 201.197 346.43 199.801 346.191 199.571C345.953 199.341 344.971 200.945 344.971 200.945C344.971 200.945 345.581 199.588 345.367 199.542C345.152 199.496 344.424 200.682 344.424 200.682C344.424 200.682 344.802 199.667 344.457 199.715C344.111 199.764 343.363 200.691 343.363 200.691L346.552 201.563Z" fill="#FFB27D"/>
<path d="M350.968 184.676C350.515 186.418 349.879 188.921 349.273 191.299C348.881 190.199 348.387 188.448 348.072 186.048C347.495 181.616 349.269 172.176 349.269 172.176L350.968 184.676Z" fill="#9DB0F4"/>
<path d="M383.804 196.066C383.804 196.066 386.579 198.326 386.923 199.032C387.266 199.738 388.128 202.35 388.082 203.192C388.036 204.034 385.956 201.265 385.343 201.042C384.733 200.818 385.982 202.179 385.842 202.471C385.702 202.762 384.401 201.809 383.902 201.498C383.406 201.186 383.056 199.074 382.316 197.923C381.577 196.772 383.804 196.066 383.804 196.066Z" fill="#FFB27D"/>
<path d="M347.388 263.715H361.224C362.215 263.042 360.957 256.454 360.957 256.454C360.957 256.454 357.18 255.018 356.528 257.937C355.874 260.855 351.718 261.784 349.518 262.139C348.013 262.385 347.536 263.213 347.388 263.715Z" fill="#233862"/>
<path d="M367.908 263.715H381.744C382.735 263.042 381.477 256.454 381.477 256.454C381.477 256.454 377.7 255.018 377.048 257.937C376.394 260.855 372.238 261.784 370.038 262.139C368.533 262.385 368.059 263.213 367.908 263.715Z" fill="#233862"/>
<path d="M351.11 196.513C351.11 196.513 351.732 204.29 352.464 213.636C353.457 226.333 356.137 257.814 356.137 257.814C356.137 257.814 357.893 259.315 361.784 258.493C361.784 258.493 365.095 247.633 366.086 235.236C366.101 235.032 366.117 234.828 366.132 234.622C367.053 222.004 368.485 195.431 368.485 195.431L351.11 196.513Z" fill="#2B478B"/>
<path d="M350.897 193.829C350.897 193.829 351.731 204.293 352.463 213.639L366.087 235.241C366.103 235.037 366.118 234.834 366.133 234.627C367.054 222.009 368.487 195.436 368.487 195.436L350.897 193.829Z" fill="#233862"/>
<path d="M354.867 193.829C354.867 193.829 364.749 218.478 367.907 227.82C370.158 234.476 376.503 257.821 376.503 257.821C376.503 257.821 379.263 258.663 381.582 257.037C381.582 257.037 383.941 233.183 379.173 226.459C376.643 222.89 378.543 189.364 368.286 189.077C358.028 188.79 354.867 193.829 354.867 193.829Z" fill="#2B478B"/>
<path d="M373.697 196.067C369.576 198.397 351.925 198.345 351.107 196.517C349.281 192.433 348.824 171.688 349.686 165.323C349.686 165.323 350.132 155.543 351.107 155.975C357.627 152.972 368.181 155.698 368.181 155.698C371.026 156.538 370.781 163.054 371.575 172.205C371.678 173.384 371.789 174.614 371.916 175.883C372.478 181.533 373.294 188.025 374.537 194.873C374.622 195.322 374.309 195.721 373.697 196.067Z" fill="#AEC3FF"/>
<path d="M363.306 154.597C363.197 156.346 360.92 156.149 358.181 155.522C355.445 154.897 356.436 153.28 356.436 153.28C356.436 153.28 356.475 152.037 356.65 150.549C356.714 150.007 356.793 149.431 356.895 148.872C356.943 148.598 356.998 148.329 357.059 148.068C357.416 146.529 362.527 148.013 362.49 148.427C362.392 149.545 363.199 153.223 363.306 154.597Z" fill="#FFB27D"/>
<path d="M357.44 157.65L357.223 155.232L360.252 155.807L359.087 157.963L357.44 157.65Z" fill="#233862"/>
<path d="M356.501 152.142L354.69 154.901C354.69 154.901 354.69 156.598 356.26 157.829L358.736 155.519C358.738 155.519 357.137 154.908 356.501 152.142Z" fill="#9DB0F4"/>
<path d="M358.739 155.519C358.739 155.519 359.253 157.365 360.244 158.211C360.244 158.211 364.108 157.17 365.031 155.184L363.017 152.58C363.017 152.58 362.918 154.551 358.739 155.519Z" fill="#9DB0F4"/>
<path d="M362.52 149.298C362.52 149.298 360.06 150.937 356.65 150.549C356.713 150.008 356.792 149.432 356.895 148.873C357.569 148.708 358.131 148.607 358.131 148.607L362.52 149.298Z" fill="#E2915A"/>
<path d="M364.082 147.435C362.879 150.751 358.491 149.905 356.621 149.372C356.094 149.223 355.768 149.098 355.768 149.098C355.191 148.835 355.011 147.825 355.062 146.549C355.162 144.024 356.155 140.46 356.728 139.601C357.588 138.308 359.021 136.995 363.277 138.825C367.537 140.655 365.624 143.185 364.082 147.435Z" fill="#FFB27D"/>
<path d="M367.369 145.732C366.026 146.83 363.139 148.862 363.139 148.862C363.139 148.862 363.461 148.48 363.852 147.384C363.896 147.259 363.911 147.077 363.905 146.885C363.887 146.348 364.018 145.811 364.298 145.352C364.473 145.065 364.539 144.769 364.316 144.559C363.951 144.213 363.327 144.531 362.92 144.811C362.651 144.995 362.297 145.006 362.019 144.833C362.017 144.833 362.015 144.831 362.015 144.831C360.867 144.11 362.133 142.841 361.201 141.786C360.267 140.732 356.23 140.587 356.392 139.928C355.014 139.147 355.882 136.267 355.908 136.114C355.908 136.114 357.888 136.289 360.357 135.671C362.363 135.167 364.574 136.458 365.274 136.989C365.274 136.861 365.252 136.684 365.162 136.498C365.162 136.498 365.466 136.798 365.46 137.149C365.49 137.179 365.503 137.201 365.495 137.206C365.495 137.206 365.895 137.197 366.127 137.352C366.127 137.352 365.956 137.298 365.875 137.401C365.866 137.412 365.853 137.42 365.84 137.427C368.524 139.329 368.485 144.818 367.369 145.732Z" fill="#233862"/>
<path d="M357.735 146.954C357.735 146.954 357.519 147.373 356.434 147.027C356.434 147.027 355.522 146.735 355.673 146.255C355.673 146.255 356.657 146.135 357.735 146.954Z" fill="white"/>
<path d="M357.44 157.65C357.44 157.65 355.023 188.266 355.056 190.817C355.089 193.368 357.735 196.066 357.735 196.066C357.735 196.066 359.844 193.754 360.255 191.314C360.666 188.875 359.089 157.966 359.089 157.966L357.44 157.65Z" fill="#2A4E96"/>
<path d="M368.183 155.7C368.183 155.7 372.085 156.636 375.171 162.576C378.257 168.516 380.693 180.494 382.165 183.657C383.639 186.82 384.648 196.777 384.648 196.777L382.316 197.923C382.316 197.923 376.684 187.718 375.853 184.371C375.403 182.561 368.517 168.066 368.517 168.066L368.183 155.7Z" fill="#AEC3FF"/>
<path d="M373.697 196.067C373.694 196.067 373.694 196.067 373.692 196.067C366.343 195.006 368.45 170.635 369.027 170.539C369.604 170.442 371.717 174.896 371.717 174.896L371.918 175.884C372.481 181.535 373.296 188.027 374.539 194.874C374.622 195.321 374.309 195.72 373.697 196.067Z" fill="#9DB0F4"/>
<path d="M465.384 249.309C465.384 249.309 468.444 252.108 467.847 254.096C467.25 256.084 464.489 257.41 464.115 259.841C463.741 262.272 462.25 263.595 460.907 263.595C459.564 263.595 454.503 263.595 454.503 263.595C454.503 263.595 453.514 261.886 455.902 261.371C458.291 260.856 459.192 258 459.041 255.35C458.892 252.7 459.264 249.165 459.264 249.165L464.338 247.985L465.384 249.309Z" fill="#233862"/>
<path d="M427.848 256.547C427.848 256.547 428.397 262.914 427.054 263.578L409.862 263.543C409.862 263.543 409.862 261.555 412.623 261.112C415.383 260.669 420.234 259.05 421.056 255.442C421.877 251.832 427.848 256.547 427.848 256.547Z" fill="#233862"/>
<path d="M413.333 166.59C413.333 166.59 414.241 177.753 415.306 191.172C416.754 209.399 418.497 231.788 418.668 236.029C418.966 243.394 420.162 255.175 420.162 255.175C420.162 255.175 422.996 257.974 428.67 256.794C428.67 256.794 433.725 239.977 435.168 222.181C435.19 221.89 435.214 221.596 435.236 221.302C436.579 203.187 438.668 165.043 438.668 165.043L413.333 166.59Z" fill="#2A4E96"/>
<path d="M413.333 166.591C413.333 166.591 414.241 177.754 415.306 191.172L435.168 222.184C435.19 221.893 435.214 221.599 435.236 221.305C436.579 203.19 438.668 165.046 438.668 165.046L413.333 166.591Z" fill="#233862"/>
<path d="M417.474 167.916C417.474 167.916 433.816 208.342 444.564 227.341C455.31 246.339 458.669 251.641 458.669 251.641C458.669 251.641 464.826 249.21 465.386 247.553C465.386 247.553 461.276 210.876 454.081 201.935C450.015 196.883 446.506 185.674 446.684 180.37C446.985 171.224 443.558 160.624 443.558 160.624L417.474 167.916Z" fill="#2A4E96"/>
<path d="M404.422 168.51C404.422 168.51 401.371 172.65 401.146 173.755C400.92 174.859 400.658 178.805 401.023 179.96C401.389 181.115 403.291 176.514 404.061 175.984C404.831 175.453 403.58 177.794 403.88 178.152C404.179 178.507 405.649 176.714 406.229 176.1C406.808 175.488 406.537 172.422 407.154 170.557C407.771 168.692 404.422 168.51 404.422 168.51Z" fill="#FFB27D"/>
<path d="M417.879 108.337C417.879 108.337 413.756 146.805 413.389 147.901C413.308 148.14 412.987 149.357 412.529 151.11C411.88 153.613 410.963 157.208 410.093 160.627C408.781 165.791 407.363 170.258 407.363 170.258C407.363 170.258 406.74 170.661 405.24 170.534C404.216 170.446 403.663 169.57 403.663 169.57C403.663 169.57 403.814 150.683 404.732 146.378C405.655 142.071 408.599 115.625 410.089 112.065C411.574 108.501 417.879 108.337 417.879 108.337Z" fill="white"/>
<path d="M412.53 151.108C411.88 153.611 410.964 157.205 410.093 160.625C409.534 159.044 408.821 156.528 408.37 153.08C407.541 146.715 410.089 133.152 410.089 133.152L412.53 151.108Z" fill="#DCEAFF"/>
<path d="M445.185 167.473C439.267 170.82 413.909 170.745 412.734 168.117C410.109 162.252 409.453 132.448 410.691 123.305C410.691 123.305 411.332 109.256 412.734 109.876C422.1 105.565 437.261 109.48 437.261 109.48C441.349 110.687 440.999 120.046 442.139 133.193C442.285 134.887 442.447 136.654 442.631 138.477C443.438 146.596 444.61 155.92 446.395 165.757C446.515 166.405 446.065 166.977 445.185 167.473Z" fill="white"/>
<path d="M430.257 107.898C430.1 110.412 426.83 110.128 422.897 109.227C418.967 108.33 420.389 106.005 420.389 106.005C420.389 106.005 420.446 104.218 420.695 102.079C420.787 101.301 420.898 100.475 421.049 99.6704C421.119 99.278 421.196 98.8901 421.283 98.5153C421.797 96.3038 429.137 98.4386 429.087 99.0326C428.943 100.641 430.102 105.926 430.257 107.898Z" fill="#FFB27D"/>
<path d="M421.828 112.285L421.517 108.813L425.87 109.638L424.194 112.737L421.828 112.285Z" fill="#233862"/>
<path d="M420.48 104.372L417.88 108.337C417.88 108.337 417.88 110.777 420.137 112.545L423.693 109.227C423.693 109.225 421.395 108.346 420.48 104.372Z" fill="#DCEAFF"/>
<path d="M423.693 109.225C423.693 109.225 424.43 111.875 425.854 113.092C425.854 113.092 431.408 111.595 432.731 108.745L429.839 105.004C429.839 105.004 429.699 107.834 423.693 109.225Z" fill="#DCEAFF"/>
<path d="M429.126 100.285C429.126 100.285 425.592 102.641 420.695 102.082C420.787 101.304 420.898 100.478 421.049 99.6734C422.016 99.4388 422.825 99.292 422.825 99.292L429.126 100.285Z" fill="#E2915A"/>
<path d="M431.37 97.6096C429.642 102.375 423.337 101.158 420.653 100.393C419.896 100.178 419.428 100.001 419.428 100.001C418.599 99.6238 418.341 98.1729 418.413 96.3405C418.556 92.7131 419.986 87.593 420.806 86.359C422.04 84.5025 424.098 82.6154 430.215 85.2434C436.333 87.8713 433.586 91.5032 431.37 97.6096Z" fill="#FFB27D"/>
<path d="M436.095 95.1626C434.164 96.7407 430.017 99.6602 430.017 99.6602C430.017 99.6602 430.478 99.1145 431.043 97.5386C431.106 97.3588 431.128 97.098 431.119 96.8197C431.095 96.0481 431.281 95.2766 431.686 94.6191C431.939 94.207 432.029 93.7818 431.71 93.4793C431.185 92.9818 430.29 93.4377 429.704 93.841C429.317 94.1062 428.809 94.1215 428.411 93.8739C428.409 93.8717 428.407 93.8717 428.405 93.8695C426.756 92.8349 428.575 91.0113 427.237 89.4968C425.894 87.9823 420.094 87.7762 420.325 86.825C418.344 85.705 419.593 81.5668 419.63 81.3477C419.63 81.3477 422.471 81.5997 426.021 80.712C428.901 79.9865 432.077 81.8408 433.083 82.6058C433.083 82.4238 433.053 82.1674 432.924 81.9C432.924 81.9 433.359 82.3318 433.352 82.8359C433.396 82.8797 433.416 82.9104 433.403 82.9192C433.403 82.9192 433.978 82.9082 434.312 83.1296C434.312 83.1296 434.067 83.0529 433.952 83.1997C433.938 83.2173 433.921 83.2282 433.901 83.2392C437.753 85.9636 437.696 93.8497 436.095 95.1626Z" fill="#BC3F3F"/>
<path d="M422.253 96.9202C422.253 96.9202 421.942 97.5208 420.383 97.0233C420.383 97.0233 419.073 96.6046 419.291 95.9142C419.291 95.9142 420.704 95.741 422.253 96.9202Z" fill="white"/>
<path d="M421.827 112.285C421.827 112.285 418.354 156.268 418.402 159.933C418.45 163.598 422.25 167.473 422.25 167.473C422.25 167.473 425.277 164.152 425.869 160.645C426.46 157.138 424.194 112.737 424.194 112.737L421.827 112.285Z" fill="#2A4E96"/>
<path d="M445.184 167.472C445.182 167.472 445.182 167.472 445.177 167.472C434.62 165.949 437.645 130.937 438.474 130.799C439.303 130.661 442.338 137.057 442.338 137.057L442.629 138.477C443.436 146.595 444.609 155.919 446.394 165.756C446.514 166.405 446.063 166.977 445.184 167.472Z" fill="#DCEAFF"/>
<path d="M476.219 193.556L453.895 200.065C450.99 200.914 447.919 199.224 447.075 196.313L444.26 186.619C443.414 183.708 445.1 180.631 448.005 179.785L470.329 173.275C473.234 172.427 476.305 174.117 477.149 177.027L479.964 186.722C480.81 189.632 479.126 192.707 476.219 193.556Z" fill="#0A82FD"/>
<path d="M447.202 185.753L450.05 195.559C450.601 197.458 452.095 198.838 453.871 199.34C454.459 199.507 455.081 199.577 455.711 199.535C455.713 199.535 455.713 199.535 455.713 199.535H455.715C456.106 199.511 456.502 199.443 456.896 199.329L479.179 192.831C482.095 191.98 483.787 188.894 482.939 185.972L480.091 176.164C479.24 173.242 476.161 171.546 473.245 172.396L465.573 174.634L464.965 172.541C464.685 171.574 463.67 171.018 462.705 171.298L461.863 171.544L457.196 172.905L456.036 173.242C455.571 173.378 455.183 173.69 454.949 174.117C454.715 174.547 454.661 175.04 454.796 175.507L455.404 177.6L450.96 178.895C450.783 178.945 450.614 179.007 450.448 179.073C450.448 179.075 450.446 179.075 450.444 179.075H450.442C448.751 179.756 447.548 181.221 447.137 182.919V182.921C446.918 183.824 446.925 184.798 447.202 185.753ZM464.477 174.952L456.502 177.278L455.894 175.184C455.789 174.825 455.997 174.446 456.358 174.34L458.361 173.757L462.034 172.686L463.025 172.396C463.092 172.377 463.16 172.368 463.228 172.37C463.517 172.374 463.783 172.567 463.869 172.861L464.477 174.952Z" fill="#0A82FD"/>
<path d="M457.787 168.689C457.787 168.689 457.094 174.491 458.393 174.407C459.69 174.324 462.866 173.7 463.085 172.702C463.301 171.703 460.653 167.043 460.653 167.043L457.787 168.689Z" fill="#FFB27D"/>
<path d="M457.953 168.673C457.953 168.673 456.96 169.909 456.875 170.882C456.79 171.855 456.315 173.556 456.761 173.666C457.205 173.775 458.019 171.549 458.019 171.549L457.953 168.673Z" fill="#FFB27D"/>
<path d="M437.263 109.481C437.263 109.481 442.871 110.827 447.302 119.36C451.736 127.893 455.235 145.103 457.353 149.646C459.47 154.188 461.08 167.819 461.08 167.819C461.08 167.819 460.749 168.496 459.61 168.744C458.724 168.937 457.816 168.86 457.816 168.86C457.816 168.86 449.481 155.479 448.284 150.672C447.637 148.07 437.747 127.248 437.747 127.248L437.263 109.481Z" fill="white"/>
<path d="M68.003 258.04L67.1631 251.977L70.691 249.021L71.8043 257.049L68.003 258.04Z" fill="#FFB27D"/>
<path d="M79.7224 263.455H65.3351C65.3351 263.455 64.9895 261.259 65.7419 259.591C66.4615 257.991 67.5835 257.005 67.6841 255.779C68.5984 256.722 69.7226 257.329 71.8026 257.048C72.0585 257.463 73.4474 259.679 74.2982 260.29C75.2409 260.967 79.4337 260.726 79.7224 263.455Z" fill="#233862"/>
<path d="M76.8314 176.163C75.8909 183.746 75.121 190.898 74.4955 197.561C71.1469 233.071 71.8053 254.774 71.8053 254.774C71.8053 254.774 71.5625 255.416 69.4869 255.425C68.3145 255.432 67.1641 255.175 67.1641 255.175C67.1641 255.175 59.6686 231.988 60.246 218.793C60.316 217.206 60.5019 215.764 60.83 214.521C62.6278 207.771 54.1743 181.953 63.3649 172.338C72.5533 162.725 77.2645 172.682 76.8314 176.163Z" fill="#0A82FD"/>
<path d="M76.8314 176.163C75.8909 183.746 75.121 190.898 74.4955 197.561L60.246 218.793C60.316 217.206 60.5019 215.764 60.83 214.521C62.6278 207.771 54.1743 181.953 63.3649 172.338C72.5533 162.725 77.2645 172.682 76.8314 176.163Z" fill="#0A82FD"/>
<path d="M88.1537 103.817C88.1537 103.817 87.8059 102.083 87.4166 100.761C87.2438 100.176 88.449 96.3339 89.2823 95.8604C90.1156 95.387 92.2875 97.9755 91.6729 99.9635C91.3579 100.985 90.8396 104.305 90.8396 104.305L88.1537 103.817Z" fill="#FFB27D"/>
<path d="M88.1541 103.818C88.1541 103.818 87.7013 102.814 87.2923 102.649C86.8833 102.487 86.4437 100.843 86.144 100.192C86.144 100.192 86.4349 99.7672 86.9424 100.315C87.253 100.651 87.9419 101.63 87.9419 101.63L88.1541 103.818Z" fill="#FFB27D"/>
<path d="M28.7633 109.646C28.6758 109.828 28.5533 110.155 28.444 110.461C28.4418 110.378 28.4418 110.295 28.4396 110.214C28.433 109.604 26.1605 106.282 25.2244 106.073C24.2883 105.865 22.9694 108.978 24.1374 110.698C24.7367 111.581 26.2021 114.606 26.2021 114.606L28.6255 113.352C28.6255 113.352 28.7655 112.259 29.1089 111.983C29.4523 111.706 29.391 110.008 29.4894 109.295C29.4916 109.295 29.0892 108.971 28.7633 109.646Z" fill="#FFB27D"/>
<path d="M43.8768 256.222C43.6734 254.278 43.623 249.164 43.623 249.164C43.623 249.164 48.822 247.498 48.6317 248.643C47.6912 254.265 47.9471 257.048 47.9471 257.048L45.8452 258.306L43.8768 256.222Z" fill="#FFB27D"/>
<path d="M72.4891 175.801C72.4891 175.801 52.4042 230.975 48.4497 254.908C48.4497 254.908 47.5333 255.539 45.8251 255.328C43.8873 255.092 43.3558 253.742 43.3558 253.742C43.3558 253.742 39.7272 225.057 46.9384 215.098C51.8924 208.257 44.8015 178.207 56.3411 175.799C67.8829 173.392 72.4891 175.801 72.4891 175.801Z" fill="#0A82FD"/>
<path d="M68.922 122.727C68.922 122.725 68.922 122.725 68.922 122.727C68.9177 122.701 68.9133 122.677 68.9045 122.653C68.7864 122.166 68.6596 121.688 68.5218 121.215C68.5218 121.213 68.5218 121.213 68.5218 121.213C68.1018 119.762 67.601 118.381 67.0607 117.16C66.7502 116.461 66.4286 115.812 66.0984 115.235C66.0481 115.146 66 115.062 65.9518 114.979L65.9496 114.977C65.1732 113.671 64.3749 112.765 63.6553 112.487C62.343 111.978 60.8819 112.121 59.8758 112.329C60.0967 112.02 60.5976 111.845 60.5976 111.845C59.9546 111.845 58.6423 112.678 58.6423 112.678C49.3905 110.604 49.9329 123.718 50.5628 126.69C51.1905 129.662 48.2116 131.106 44.0122 134.149C35.9961 139.953 36.1295 146.103 36.1295 146.103C36.2017 146.133 36.2804 146.169 36.3636 146.21C36.6851 145.415 37.3697 143.909 38.0871 143.589C38.0674 143.659 37.4834 145.612 37.3172 146.703C38.5376 147.378 40.2283 148.422 42.0634 149.601C42.0634 149.601 42.0634 149.601 42.0656 149.603C44.5218 151.177 47.2295 152.989 49.4014 154.46C49.2986 153.862 49.1958 153.007 49.3467 152.525L50.0379 154.673L50.1275 154.953C51.5142 155.894 52.6078 156.648 53.1612 157.033C53.218 157.073 53.2683 157.108 53.3143 157.139C53.4761 157.25 53.5636 157.312 53.5636 157.312C53.3799 156.553 54.187 154.574 55.5452 152.08C55.6392 151.907 55.7377 151.729 55.8383 151.549C56.2757 150.76 56.7657 149.93 57.2928 149.073C57.483 148.764 57.6733 148.452 57.8724 148.139C57.8724 148.137 57.8745 148.137 57.8745 148.137C58.0342 147.883 58.1961 147.63 58.3623 147.374L58.3645 147.372C58.7582 146.762 59.165 146.149 59.5806 145.535C60.6567 143.944 61.794 142.364 62.9204 140.915C64.5542 138.804 66.1574 136.969 67.5004 135.771C67.5441 135.681 67.5857 135.586 67.6228 135.494C67.8328 135.006 67.9947 134.462 68.1193 133.91C68.1587 133.743 68.1937 133.577 68.2243 133.41C68.559 131.646 68.5655 129.894 68.5612 129.478C68.6683 131.183 68.6268 132.47 68.513 133.441C68.4868 133.653 68.4584 133.851 68.4277 134.035V134.037C68.3556 134.451 68.2746 134.795 68.185 135.08C68.4037 134.806 68.5983 134.508 68.7689 134.179C68.8805 133.967 68.9833 133.741 69.073 133.506C70.1512 130.734 69.8603 126.602 68.922 122.727Z" fill="#163560"/>
<path d="M67.1835 136.012C67.2141 136.02 64.5938 137.921 62.3695 137.656C60.2785 137.406 58.5769 134.99 58.6053 134.982C59.4321 134.686 59.5021 133.476 58.7366 128.443L59.1324 128.463L65.7924 128.783C65.7924 128.783 65.9477 130.846 66.2299 132.768C66.4661 134.379 66.7898 135.893 67.1835 136.012Z" fill="#FFB27D"/>
<path d="M65.7945 128.78C65.7945 128.78 65.9498 130.842 66.232 132.765C62.5969 133.203 60.1931 130.178 59.1367 128.46L65.7945 128.78Z" fill="#ED975D"/>
<path d="M58.361 127.854C58.361 127.854 56.0185 125.134 55.1808 122.633C54.5837 120.849 54.5072 113.912 61.4668 113.875C61.4668 113.875 63.4747 113.774 65.524 114.758C67.1535 115.539 69.6097 117.384 68.1027 123.67L67.779 125.766L58.361 127.854Z" fill="#163560"/>
<path d="M77.6711 174.742C77.6711 174.742 69.0055 179.904 58.1243 177.25C57.9952 177.219 49.1655 175.805 49.1655 175.805C49.3164 175.389 50.4582 168.552 50.6069 168.171C52.5382 163.18 56.0639 136.087 59.0122 134.75C59.7646 135.572 61.9168 136.133 63.7563 135.971C65.8756 135.783 66.5865 134.866 66.4093 133.878C68.7562 134.989 70.5584 136.024 70.5584 136.024C72.704 139.243 77.6711 174.742 77.6711 174.742Z" fill="white"/>
<path d="M67.2732 130.419C67.2732 130.419 58.73 131.837 57.9295 126.491C57.1312 121.145 55.4886 117.728 60.9107 116.597C66.3327 115.466 67.6997 117.347 68.3996 119.065C69.0973 120.786 69.4735 129.913 67.2732 130.419Z" fill="#FFB27D"/>
<path d="M64.7909 115.888C64.7909 115.888 63.378 122.509 59.9156 123.973C56.4533 125.438 54.7495 124.703 54.7495 124.703C54.7495 124.703 57.1839 122.095 57.1882 118.174C57.1882 118.172 62.5796 113.166 64.7909 115.888Z" fill="#163560"/>
<path d="M64.2856 116.481C64.2856 116.481 66.2454 117.621 66.8731 118.918C67.503 120.216 68.111 122.99 68.9115 122.774C68.9115 122.774 70.0445 118.247 67.702 116.132C65.2174 113.888 64.2856 116.481 64.2856 116.481Z" fill="#163560"/>
<path d="M90.8965 103.939C90.5487 103.816 90.0369 103.527 89.3698 103.465C88.7749 103.413 88.0269 103.605 88.0269 103.605C88.0269 103.605 85.6166 118.622 85.4372 119.417C85.2579 120.213 75.0984 131.683 72.3601 131.637C69.8863 131.595 66.9555 133.508 66.4131 133.877C66.4131 133.877 72.1741 146.083 72.4607 148.375C72.7734 150.87 75.7546 189.292 75.7546 189.292C75.7546 189.292 75.5774 191.081 78.9107 190.118C82.244 189.158 83.0773 188.363 83.0773 188.363C83.0773 188.363 80.0152 158.116 79.3744 148.709C79.2891 147.446 79.0835 146.278 78.7904 145.199C78.5082 144.161 78.7313 143.047 79.3634 142.177C83.5759 136.382 90.2294 126.99 90.6012 124.995C91.1414 122.063 90.8965 103.939 90.8965 103.939Z" fill="#F2C94C"/>
<path d="M55.8625 263.455H41.4752C41.4752 263.455 41.1296 261.259 41.882 259.591C42.6016 257.991 43.7236 257.005 43.8243 255.779C44.7385 256.722 45.8627 257.329 47.9427 257.048C48.1986 257.463 49.5875 259.679 50.4383 260.29C51.381 260.967 55.5738 260.726 55.8625 263.455Z" fill="#233862"/>
<path d="M65.7463 149.563C65.2607 146.573 59.071 134.567 59.071 134.567C59.071 134.567 55.1581 133.394 52.5816 134.33C50.0051 135.266 36.6785 127.724 36.252 127.031C35.8255 126.336 28.6866 113.008 28.6866 113.008C28.6866 113.008 28.0938 112.664 27.1468 113.159C26.2085 113.65 26.2041 114.606 26.2041 114.606C26.2041 114.606 31.7136 131.388 33.179 133.984C34.0627 135.549 41.4925 141 47.2536 145.081C48.3538 145.861 48.9312 147.187 48.7496 148.524C47.9754 154.262 47.7785 157.495 46.8862 167.341C46.1469 175.51 45.8647 191.324 45.8647 191.324C45.8647 191.324 52.3104 193.559 56.7613 193.855C61.21 194.151 62.179 189.452 62.179 189.452C62.179 189.452 66.245 152.638 65.7463 149.563Z" fill="#F2C94C"/>
<path d="M64.4741 127.777C64.4741 127.777 65.513 128.389 66.7379 128.205C67.5777 128.077 67.768 127.08 67.768 127.08C67.768 127.08 67.184 126.896 66.2523 127.082C65.3206 127.269 64.4741 127.777 64.4741 127.777Z" fill="white"/>
<path d="M337.359 25.8785C337.359 25.8785 333.36 18.7595 337.359 17.3107C341.357 15.8619 343.165 17.199 343.356 18.8187C343.546 20.4406 341.833 26.832 341.833 26.832L337.359 25.8785Z" fill="#FFB27D"/>
<path d="M340.562 71.411C333.272 72.7283 326.571 73.3376 320.523 73.4735C314.782 73.6028 309.629 73.3047 305.119 72.7787C303.907 72.6384 302.746 72.4828 301.628 72.314C289.826 70.5211 283.311 67.3408 283.311 67.3408C283.311 67.3408 294.093 44.7213 302.803 45.5892C313.021 46.6106 330.339 55.7987 332.061 53.2233C333.999 50.3192 335.622 25.418 335.622 25.418C340.153 22.3078 342.857 25.5868 342.857 25.5868C342.857 25.5868 351.708 69.3967 340.562 71.411Z" fill="#0A82FD"/>
<path d="M340.562 71.411C333.272 72.7283 326.57 73.3376 320.523 73.4735C314.781 73.6028 309.628 73.3047 305.118 72.7787C302.4 64.1145 300.444 55.2639 305.912 60.5988C315.56 70.0126 340.562 71.411 340.562 71.411Z" fill="#0A82FD"/>
<path d="M282.492 254.037C282.492 254.037 281.715 263.028 283.614 263.964L307.887 263.913C307.887 263.913 307.887 261.106 303.987 260.483C300.088 259.858 293.24 257.572 292.08 252.476C290.921 247.383 282.492 254.037 282.492 254.037Z" fill="#233862"/>
<path d="M300.314 145.21C300.193 151.091 299.911 157.155 299.36 162.604C296.738 188.468 295.817 219.718 295.441 225.742C294.787 236.201 292.726 252.909 292.726 252.909C292.726 252.909 288.636 256.799 280.666 254.943C280.666 254.943 274.061 230.879 272.587 205.54C272.565 205.123 272.541 204.707 272.521 204.288C272.35 200.937 272.171 197.108 271.987 192.976C270.773 165.309 269.455 124.21 269.455 124.21L299.916 117.043C299.911 117.043 300.613 130.553 300.314 145.21Z" fill="#2F3032"/>
<path d="M300.314 145.21C292.595 158.556 277.88 183.146 271.985 192.976C270.772 165.309 269.453 124.21 269.453 124.21L299.914 117.043C299.911 117.043 300.614 130.553 300.314 145.21Z" fill="#233862"/>
<path d="M223.187 119.354C223.187 119.354 218.23 125.196 217.784 126.815C217.338 128.435 216.544 134.27 216.971 136.023C217.395 137.777 220.691 131.133 221.89 130.425C223.088 129.715 220.991 133.066 221.4 133.628C221.809 134.186 224.175 131.67 225.098 130.82C226.021 129.969 225.929 125.386 227.038 122.677C228.147 119.968 223.187 119.354 223.187 119.354Z" fill="#FFB27D"/>
<path d="M222.025 243.819C222.025 243.819 217.705 247.771 218.547 250.579C219.389 253.386 223.289 255.258 223.816 258.688C224.343 262.119 226.45 263.99 228.348 263.99C230.244 263.99 237.39 263.99 237.39 263.99C237.39 263.99 238.785 261.575 235.415 260.847C232.042 260.12 230.772 256.087 230.981 252.345C231.191 248.602 230.664 243.611 230.664 243.611L223.499 241.947L222.025 243.819Z" fill="#233862"/>
<path d="M295.112 124.838C295.112 124.838 266.598 185.976 251.423 212.802C236.248 239.627 231.507 247.115 231.507 247.115C231.507 247.115 222.813 243.682 222.023 241.343C222.023 241.343 227.826 189.555 237.987 176.931C243.729 169.796 250.474 148.389 250.791 140.904C251.108 133.416 257.768 115.549 257.768 115.549L295.112 124.838Z" fill="#2F3032"/>
<path d="M303.448 127.718C303.448 127.718 292.109 135.315 276.06 134.609C269.017 134.3 255.045 132.299 252.79 126.686C252.261 125.369 252.648 123.696 253.444 121.128C255.504 114.456 260.31 101.75 258.86 73.5784C258.724 70.9569 258.798 68.4934 259.048 66.1854C260.559 52.309 268.494 44.0919 276.165 41.4069C294.869 34.8556 301.105 43.9319 301.105 43.9319C301.105 43.9319 309.373 50.4964 310.619 64.1952C313.111 91.6016 303.448 127.718 303.448 127.718Z" fill="#0A82FD"/>
<path d="M281.646 39.8384C281.646 39.8384 290.229 45.0702 299.537 43.5908C299.537 43.5908 301.377 43.1217 300.473 40.9562C301.04 39.2093 300.972 39.3671 301.3 38.0674C302.116 35.08 302.365 33.355 302.365 33.355L297.083 27.79L292.079 22.4727C290.697 35.183 281.646 39.8384 281.646 39.8384Z" fill="#FFB27D"/>
<path d="M291.278 27.293C291.278 27.293 294.152 34.9928 301.3 38.0679C302.115 35.0805 302.647 31.9528 302.647 31.9528L297.083 27.7905L291.278 27.293Z" fill="#ED985F"/>
<path d="M308.293 33.0854C308.293 33.0854 291.911 35.1369 290.76 25.048C289.61 14.9591 286.72 8.42966 297.134 6.69374C307.545 4.95783 310.02 8.58308 311.234 11.8598C312.446 15.1366 312.525 32.2919 308.293 33.0854Z" fill="#FFB27D"/>
<path d="M285.587 5.05438C285.445 4.87904 285.11 4.73 284.354 4.65986C284.354 4.65986 284.975 4.30259 285.786 4.31355C285.985 3.26148 286.617 1.41159 288.45 1.02583C288.45 1.02583 287.455 1.51022 287.284 2.63024C289.469 0.545826 294.034 -0.859126 306.477 0.600621C322.872 2.52503 317.054 12.8704 314.878 14.0474C312.702 15.2244 307.472 11.5728 303.494 11.7372C299.515 11.9016 298.544 17.6179 297.168 18.3543C295.793 19.0907 296.374 17.7187 294.585 16.8244C292.796 15.9302 292.507 18.9483 292.96 20.9341C293.413 22.9198 290.812 25.4185 290.812 25.4185C290.812 25.4185 290.812 25.4185 288.387 22.5933C285.961 19.768 284.015 8.12292 285.257 5.70316C285.366 5.48836 285.476 5.27137 285.587 5.05438Z" fill="#2C3A64"/>
<path d="M335.621 21.1584L307.808 21.4061L307.618 17.2131L335.343 15.0586L335.621 21.1584Z" fill="#2A4E96"/>
<path d="M356.615 21.8581L326.334 22.2965L325.988 14.6734L356.182 12.3281L356.615 21.8581Z" fill="#2A4E96"/>
<path d="M377.033 22.4567L351.498 22.4896L351.032 12.1969L376.462 9.87793L377.033 22.4567Z" fill="#233862"/>
<path d="M377.398 24.1941C378.186 24.159 378.796 23.4883 378.761 22.6993L378.162 9.47826C378.127 8.68921 377.458 8.0777 376.67 8.11276C375.883 8.14783 375.273 8.81853 375.31 9.60758L375.909 22.8286C375.942 23.6176 376.611 24.2292 377.398 24.1941Z" fill="#233862"/>
<path d="M307.721 22.3C307.022 22.3329 306.427 21.7893 306.396 21.088L306.241 17.6578C306.208 16.9564 306.75 16.3624 307.45 16.3295C308.15 16.2967 308.745 16.8402 308.776 17.5416L308.931 20.9718C308.964 21.6732 308.421 22.2694 307.721 22.3Z" fill="#2A4E96"/>
<path d="M253.444 121.131C255.505 114.459 260.31 101.754 258.86 73.5822C258.724 70.9608 258.799 68.4972 259.048 66.1892H259.05C265.205 65.6588 274.616 72.3285 274.616 72.3285C274.616 72.3285 268.82 107.735 253.444 121.131Z" fill="#0A82FD"/>
<path d="M281.646 39.8379C281.646 39.8379 265.861 42.5579 257.628 52.6293C249.395 62.7007 236.152 76.9014 233.022 81.8747C229.89 86.8479 221.198 120.692 221.198 120.692C221.198 120.692 221.771 121.779 224.168 122.412C226.463 123.017 228.127 122.079 228.127 122.079C228.127 122.079 239.643 102.329 243.978 92.4633C245.778 88.3646 276.921 72.1299 288.629 73.811C293.229 74.4685 281.646 39.8379 281.646 39.8379Z" fill="#0A82FD"/>
<path d="M335.455 13.859C335.455 13.859 338.85 15.939 340.882 15.0601C342.913 14.179 342.734 13.3746 342.734 13.3746C342.734 13.3746 336.597 11.6672 335.455 13.859Z" fill="#FFB27D"/>
<path d="M296.963 50.8726C296.963 50.8726 290.036 94.6979 240.887 107.459L235.533 118.043L244.938 119.638C244.938 119.638 300.891 103.395 300.138 50.0967L296.963 50.8726Z" fill="#F2C94C"/>
<path d="M295.889 43.876L293.621 44.0995V47.3895L296.963 50.8722L300.141 50.0963V45.5308L297.855 43.876H295.889Z" fill="#F2C94C"/>
<path d="M286.987 35.1611C286.987 35.1611 284.791 35.6587 279.771 39.8385C279.771 39.8385 284.765 50.46 295.298 51.7312C295.298 51.7312 295.128 46.8018 295.889 43.878C295.889 43.8758 287.54 40.8818 286.987 35.1611Z" fill="#0A82FD"/>
<path d="M295.889 43.8756C295.889 43.8756 301.029 46.6109 301.409 50.8718C301.409 50.8718 303.373 47.7529 302.805 45.5917C302.234 43.4306 300.473 40.9561 300.473 40.9561C300.473 40.9561 300.648 43.5577 295.889 43.8756Z" fill="#0A82FD"/>
</svg>
