<svg width="1920" height="1000" viewBox="0 0 1920 1000" fill="none" xmlns="http://www.w3.org/2000/svg">
<path d="M0 0H1920V1000H0V0Z" fill="#F0F6FF"/>
<mask id="mask0_1385_16752" style="mask-type:alpha" maskUnits="userSpaceOnUse" x="0" y="-4" width="1920" height="1012">
<rect y="-4" width="1920" height="1012" fill="#F4F8FA"/>
</mask>
<g mask="url(#mask0_1385_16752)">
<path opacity="0.6" d="M0 334.65C155.323 320.233 285.574 377.69 419.837 476.201C568.441 585.223 786.416 654.482 1063.43 561.654C1374.02 457.583 1471.14 225.035 1920 244.925V0H1472.85C1472.85 0 1240.75 29.9314 1073.92 204.587C900.708 385.918 880.549 417.924 665.561 390.625C450.572 363.343 368.633 213.895 0 235.546V334.65Z" fill="white"/>
<g opacity="0.6" filter="url(#filter0_f_1385_16752)">
<path d="M1664.24 953.423C1612.78 957.659 1561.09 948.869 1513.93 927.863C1466.77 906.858 1425.65 874.314 1394.38 833.233C1363.11 792.152 1342.68 743.858 1334.99 692.804C1327.3 641.751 1332.59 589.583 1350.38 541.113C1368.16 492.643 1397.86 449.431 1436.74 415.464C1475.62 381.497 1522.43 357.869 1572.85 346.759C1623.27 335.649 1675.68 337.415 1725.24 351.894C1774.8 366.373 1819.91 393.099 1856.42 429.607" stroke="url(#paint0_linear_1385_16752)" stroke-width="71"/>
</g>
<g opacity="0.6" filter="url(#filter1_f_1385_16752)">
<path d="M532.232 821.422C480.777 825.658 429.084 816.868 381.92 795.862C334.757 774.857 293.643 742.313 262.371 701.232C231.099 660.151 210.676 611.857 202.985 560.803C195.295 509.75 200.585 457.582 218.367 409.112C236.15 360.642 265.852 317.43 304.735 283.463C343.617 249.496 390.427 225.868 440.847 214.758C491.267 203.648 543.672 205.414 593.23 219.893C642.787 234.372 687.901 261.098 724.408 297.606" stroke="url(#paint1_linear_1385_16752)" stroke-width="71"/>
</g>
<path d="M243.343 118.672C243.343 89.582 219.762 66 190.672 66C161.582 66 138 89.582 138 118.672C138 147.762 161.582 171.343 190.672 171.343C219.762 171.343 243.343 147.762 243.343 118.672Z" stroke="url(#paint2_linear_1385_16752)" stroke-opacity="0.06" stroke-width="12" stroke-miterlimit="10"/>
<g opacity="0.4">
<path d="M265.431 612.725C265.15 612.723 264.874 612.804 264.639 612.959C264.404 613.114 264.221 613.334 264.111 613.594C264.002 613.853 263.972 614.139 264.026 614.415C264.079 614.691 264.214 614.945 264.412 615.145C264.61 615.345 264.863 615.481 265.139 615.537C265.414 615.592 265.7 615.565 265.961 615.458C266.221 615.351 266.443 615.169 266.6 614.935C266.756 614.701 266.84 614.426 266.84 614.145C266.84 613.77 266.692 613.411 266.428 613.145C266.164 612.879 265.806 612.728 265.431 612.725Z" fill="#203F79"/>
<path d="M265.431 589.55C265.153 589.55 264.88 589.632 264.649 589.787C264.417 589.942 264.237 590.162 264.13 590.419C264.024 590.676 263.996 590.96 264.05 591.233C264.104 591.506 264.238 591.757 264.435 591.954C264.632 592.151 264.883 592.285 265.157 592.339C265.43 592.394 265.713 592.366 265.97 592.259C266.228 592.153 266.448 591.972 266.602 591.74C266.757 591.509 266.84 591.237 266.84 590.958C266.84 590.584 266.691 590.226 266.427 589.962C266.163 589.698 265.805 589.55 265.431 589.55Z" fill="#203F79"/>
<path d="M265.431 566.363C265.149 566.36 264.873 566.442 264.638 566.597C264.403 566.752 264.219 566.974 264.11 567.234C264.001 567.494 263.972 567.78 264.027 568.057C264.081 568.333 264.217 568.587 264.416 568.786C264.615 568.986 264.869 569.121 265.146 569.175C265.422 569.23 265.709 569.201 265.968 569.092C266.228 568.983 266.45 568.799 266.605 568.564C266.76 568.329 266.842 568.053 266.84 567.771C266.84 567.397 266.691 567.039 266.427 566.775C266.163 566.511 265.805 566.363 265.431 566.363Z" fill="#203F79"/>
<path d="M265.431 543.187C265.153 543.187 264.88 543.27 264.649 543.424C264.417 543.579 264.237 543.799 264.13 544.056C264.024 544.314 263.996 544.597 264.05 544.87C264.104 545.143 264.238 545.394 264.435 545.591C264.632 545.788 264.883 545.922 265.157 545.977C265.43 546.031 265.713 546.003 265.97 545.897C266.228 545.79 266.448 545.609 266.602 545.378C266.757 545.146 266.84 544.874 266.84 544.595C266.84 544.222 266.691 543.864 266.427 543.6C266.163 543.335 265.805 543.187 265.431 543.187Z" fill="#203F79"/>
<path d="M265.431 520C265.153 520 264.88 520.083 264.649 520.237C264.417 520.392 264.237 520.612 264.13 520.869C264.024 521.127 263.996 521.41 264.05 521.683C264.104 521.956 264.238 522.207 264.435 522.404C264.632 522.601 264.883 522.735 265.157 522.79C265.43 522.844 265.713 522.816 265.97 522.71C266.228 522.603 266.448 522.422 266.602 522.191C266.757 521.959 266.84 521.687 266.84 521.408C266.84 521.035 266.691 520.677 266.427 520.413C266.163 520.148 265.805 520 265.431 520Z" fill="#203F79"/>
<path d="M286.844 612.725C286.647 612.707 286.449 612.731 286.262 612.794C286.076 612.857 285.904 612.958 285.758 613.091C285.613 613.224 285.497 613.386 285.417 613.567C285.338 613.747 285.296 613.942 285.296 614.139C285.296 614.336 285.338 614.532 285.417 614.712C285.497 614.892 285.613 615.054 285.758 615.187C285.904 615.32 286.076 615.422 286.262 615.485C286.449 615.548 286.647 615.571 286.844 615.553C287.197 615.522 287.525 615.359 287.764 615.097C288.003 614.835 288.136 614.494 288.136 614.139C288.136 613.785 288.003 613.443 287.764 613.181C287.525 612.92 287.197 612.757 286.844 612.725Z" fill="#203F79"/>
<path d="M286.843 589.55C286.565 589.55 286.293 589.632 286.061 589.787C285.829 589.942 285.649 590.162 285.542 590.419C285.436 590.676 285.408 590.96 285.462 591.233C285.516 591.506 285.651 591.757 285.848 591.954C286.045 592.151 286.296 592.285 286.569 592.339C286.842 592.394 287.125 592.366 287.382 592.259C287.64 592.153 287.86 591.972 288.015 591.74C288.169 591.509 288.252 591.237 288.252 590.958C288.249 590.585 288.1 590.229 287.836 589.965C287.573 589.702 287.216 589.553 286.843 589.55Z" fill="#203F79"/>
<path d="M286.844 566.363C286.562 566.36 286.286 566.442 286.051 566.597C285.815 566.752 285.632 566.974 285.523 567.234C285.414 567.494 285.385 567.78 285.439 568.057C285.494 568.333 285.629 568.587 285.828 568.786C286.028 568.986 286.282 569.121 286.558 569.175C286.835 569.23 287.121 569.201 287.381 569.092C287.641 568.983 287.862 568.799 288.018 568.564C288.173 568.329 288.254 568.053 288.252 567.771C288.249 567.398 288.1 567.042 287.836 566.778C287.573 566.515 287.216 566.366 286.844 566.363Z" fill="#203F79"/>
<path d="M286.843 543.187C286.565 543.187 286.293 543.27 286.061 543.424C285.829 543.579 285.649 543.799 285.542 544.056C285.436 544.314 285.408 544.597 285.462 544.87C285.516 545.143 285.651 545.394 285.848 545.591C286.045 545.788 286.296 545.922 286.569 545.977C286.842 546.031 287.125 546.003 287.382 545.897C287.64 545.79 287.86 545.609 288.015 545.378C288.169 545.146 288.252 544.874 288.252 544.595C288.249 544.223 288.1 543.866 287.836 543.603C287.573 543.339 287.216 543.19 286.843 543.187Z" fill="#203F79"/>
<path d="M286.843 520C286.565 520 286.293 520.083 286.061 520.237C285.829 520.392 285.649 520.612 285.542 520.869C285.436 521.127 285.408 521.41 285.462 521.683C285.516 521.956 285.651 522.207 285.848 522.404C286.045 522.601 286.296 522.735 286.569 522.79C286.842 522.844 287.125 522.816 287.382 522.71C287.64 522.603 287.86 522.422 288.015 522.191C288.169 521.959 288.252 521.687 288.252 521.408C288.249 521.036 288.1 520.679 287.836 520.416C287.573 520.152 287.216 520.003 286.843 520Z" fill="#203F79"/>
<path d="M308.199 612.725C307.917 612.723 307.642 612.804 307.407 612.959C307.172 613.114 306.988 613.334 306.879 613.594C306.769 613.853 306.74 614.139 306.793 614.415C306.847 614.691 306.981 614.945 307.179 615.145C307.377 615.345 307.63 615.481 307.906 615.537C308.182 615.592 308.468 615.565 308.728 615.458C308.988 615.351 309.21 615.169 309.367 614.935C309.523 614.701 309.607 614.426 309.607 614.145C309.607 613.77 309.459 613.411 309.195 613.145C308.931 612.879 308.573 612.728 308.199 612.725Z" fill="#203F79"/>
<path d="M308.199 589.55C307.92 589.55 307.648 589.632 307.416 589.787C307.185 589.942 307.004 590.162 306.897 590.419C306.791 590.676 306.763 590.96 306.817 591.233C306.872 591.506 307.006 591.757 307.203 591.954C307.4 592.151 307.651 592.285 307.924 592.339C308.197 592.394 308.48 592.366 308.738 592.259C308.995 592.153 309.215 591.972 309.37 591.74C309.524 591.509 309.607 591.237 309.607 590.958C309.607 590.584 309.459 590.226 309.194 589.962C308.93 589.698 308.572 589.55 308.199 589.55Z" fill="#203F79"/>
<path d="M308.199 566.363C307.917 566.36 307.641 566.442 307.405 566.597C307.17 566.752 306.986 566.974 306.878 567.234C306.769 567.494 306.74 567.78 306.794 568.057C306.848 568.333 306.984 568.587 307.183 568.786C307.382 568.986 307.636 569.121 307.913 569.175C308.189 569.23 308.476 569.201 308.736 569.092C308.996 568.983 309.217 568.799 309.372 568.564C309.528 568.329 309.609 568.053 309.607 567.771C309.607 567.397 309.459 567.039 309.194 566.775C308.93 566.511 308.572 566.363 308.199 566.363Z" fill="#203F79"/>
<path d="M308.199 543.187C307.92 543.187 307.648 543.27 307.416 543.424C307.185 543.579 307.004 543.799 306.897 544.056C306.791 544.314 306.763 544.597 306.817 544.87C306.872 545.143 307.006 545.394 307.203 545.591C307.4 545.788 307.651 545.922 307.924 545.977C308.197 546.031 308.48 546.003 308.738 545.897C308.995 545.79 309.215 545.609 309.37 545.378C309.524 545.146 309.607 544.874 309.607 544.595C309.607 544.222 309.459 543.864 309.194 543.6C308.93 543.335 308.572 543.187 308.199 543.187Z" fill="#203F79"/>
<path d="M308.199 520C307.92 520 307.648 520.083 307.416 520.237C307.185 520.392 307.004 520.612 306.897 520.869C306.791 521.127 306.763 521.41 306.817 521.683C306.872 521.956 307.006 522.207 307.203 522.404C307.4 522.601 307.651 522.735 307.924 522.79C308.197 522.844 308.48 522.816 308.738 522.71C308.995 522.603 309.215 522.422 309.37 522.191C309.524 521.959 309.607 521.687 309.607 521.408C309.607 521.035 309.459 520.677 309.194 520.413C308.93 520.148 308.572 520 308.199 520Z" fill="#203F79"/>
<path d="M329.588 612.725C329.306 612.723 329.031 612.804 328.796 612.959C328.561 613.114 328.377 613.334 328.268 613.594C328.159 613.853 328.129 614.139 328.182 614.415C328.236 614.691 328.37 614.945 328.568 615.145C328.766 615.345 329.019 615.481 329.295 615.537C329.571 615.592 329.857 615.565 330.117 615.458C330.377 615.351 330.6 615.169 330.756 614.935C330.913 614.701 330.996 614.426 330.996 614.145C330.996 613.77 330.848 613.411 330.584 613.145C330.321 612.879 329.962 612.728 329.588 612.725Z" fill="#203F79"/>
<path d="M329.588 589.55C329.309 589.55 329.037 589.632 328.805 589.787C328.574 589.942 328.393 590.162 328.287 590.419C328.18 590.676 328.152 590.96 328.206 591.233C328.261 591.506 328.395 591.757 328.592 591.954C328.789 592.151 329.04 592.285 329.313 592.339C329.586 592.394 329.869 592.366 330.127 592.259C330.384 592.153 330.604 591.972 330.759 591.74C330.914 591.509 330.996 591.237 330.996 590.958C330.996 590.584 330.848 590.226 330.584 589.962C330.32 589.698 329.961 589.55 329.588 589.55Z" fill="#203F79"/>
<path d="M329.588 566.363C329.306 566.36 329.03 566.442 328.795 566.597C328.559 566.752 328.376 566.974 328.267 567.234C328.158 567.494 328.129 567.78 328.183 568.057C328.238 568.333 328.373 568.587 328.572 568.786C328.772 568.986 329.026 569.121 329.302 569.175C329.579 569.23 329.865 569.201 330.125 569.092C330.385 568.983 330.606 568.799 330.762 568.564C330.917 568.329 330.998 568.053 330.996 567.771C330.996 567.397 330.848 567.039 330.584 566.775C330.32 566.511 329.961 566.363 329.588 566.363Z" fill="#203F79"/>
<path d="M329.588 543.187C329.309 543.187 329.037 543.27 328.805 543.424C328.574 543.579 328.393 543.799 328.287 544.056C328.18 544.314 328.152 544.597 328.206 544.87C328.261 545.143 328.395 545.394 328.592 545.591C328.789 545.788 329.04 545.922 329.313 545.977C329.586 546.031 329.869 546.003 330.127 545.897C330.384 545.79 330.604 545.609 330.759 545.378C330.914 545.146 330.996 544.874 330.996 544.595C330.996 544.222 330.848 543.864 330.584 543.6C330.32 543.335 329.961 543.187 329.588 543.187Z" fill="#203F79"/>
<path d="M329.588 520C329.309 520 329.037 520.083 328.805 520.237C328.574 520.392 328.393 520.612 328.287 520.869C328.18 521.127 328.152 521.41 328.206 521.683C328.261 521.956 328.395 522.207 328.592 522.404C328.789 522.601 329.04 522.735 329.313 522.79C329.586 522.844 329.869 522.816 330.127 522.71C330.384 522.603 330.604 522.422 330.759 522.191C330.914 521.959 330.996 521.687 330.996 521.408C330.996 521.035 330.848 520.677 330.584 520.413C330.32 520.148 329.961 520 329.588 520Z" fill="#203F79"/>
<path d="M350.966 612.725C350.685 612.725 350.41 612.808 350.177 612.964C349.943 613.12 349.761 613.342 349.654 613.602C349.546 613.861 349.518 614.147 349.573 614.422C349.628 614.697 349.763 614.95 349.962 615.149C350.16 615.348 350.413 615.483 350.689 615.538C350.964 615.592 351.249 615.564 351.509 615.457C351.768 615.349 351.99 615.167 352.146 614.934C352.302 614.7 352.385 614.426 352.385 614.145C352.385 613.768 352.236 613.407 351.97 613.141C351.703 612.875 351.342 612.725 350.966 612.725Z" fill="#203F79"/>
<path d="M350.966 589.55C350.688 589.552 350.416 589.636 350.186 589.793C349.956 589.949 349.777 590.169 349.673 590.427C349.568 590.684 349.541 590.967 349.597 591.24C349.653 591.512 349.788 591.762 349.985 591.958C350.183 592.154 350.434 592.287 350.706 592.34C350.979 592.394 351.262 592.365 351.519 592.258C351.775 592.151 351.995 591.971 352.149 591.739C352.303 591.508 352.385 591.236 352.385 590.958C352.385 590.772 352.349 590.588 352.277 590.416C352.206 590.245 352.101 590.089 351.969 589.958C351.837 589.827 351.68 589.724 351.508 589.654C351.336 589.583 351.152 589.548 350.966 589.55Z" fill="#203F79"/>
<path d="M350.966 566.363C350.613 566.394 350.284 566.557 350.045 566.819C349.806 567.08 349.673 567.422 349.673 567.777C349.673 568.131 349.806 568.473 350.045 568.735C350.284 568.996 350.613 569.159 350.966 569.191C351.162 569.209 351.36 569.185 351.547 569.122C351.734 569.059 351.905 568.958 352.051 568.825C352.197 568.692 352.313 568.53 352.392 568.349C352.472 568.169 352.513 567.974 352.513 567.777C352.513 567.58 352.472 567.384 352.392 567.204C352.313 567.024 352.197 566.862 352.051 566.729C351.905 566.596 351.734 566.494 351.547 566.431C351.36 566.368 351.162 566.345 350.966 566.363Z" fill="#203F79"/>
<path d="M350.966 543.187C350.688 543.189 350.416 543.274 350.186 543.43C349.956 543.586 349.777 543.807 349.673 544.064C349.568 544.322 349.541 544.605 349.597 544.877C349.653 545.15 349.788 545.4 349.985 545.595C350.183 545.791 350.434 545.924 350.706 545.978C350.979 546.031 351.262 546.002 351.519 545.896C351.775 545.789 351.995 545.608 352.149 545.377C352.303 545.145 352.385 544.874 352.385 544.595C352.385 544.41 352.349 544.225 352.277 544.054C352.206 543.882 352.101 543.726 351.969 543.596C351.837 543.465 351.68 543.361 351.508 543.291C351.336 543.221 351.152 543.186 350.966 543.187Z" fill="#203F79"/>
<path d="M350.966 520C350.688 520.002 350.416 520.087 350.186 520.243C349.956 520.399 349.777 520.62 349.673 520.877C349.568 521.135 349.541 521.418 349.597 521.69C349.653 521.963 349.788 522.212 349.985 522.408C350.183 522.604 350.434 522.737 350.706 522.791C350.979 522.844 351.262 522.815 351.519 522.709C351.775 522.602 351.995 522.421 352.149 522.19C352.303 521.958 352.385 521.687 352.385 521.408C352.385 521.223 352.349 521.038 352.277 520.867C352.206 520.695 352.101 520.539 351.969 520.408C351.837 520.278 351.68 520.174 351.508 520.104C351.336 520.034 351.152 519.999 350.966 520Z" fill="#203F79"/>
</g>
<path d="M1796.43 354.726C1796.15 354.726 1795.88 354.809 1795.65 354.963C1795.42 355.118 1795.24 355.338 1795.13 355.596C1795.02 355.853 1795 356.136 1795.05 356.409C1795.1 356.682 1795.24 356.933 1795.44 357.13C1795.63 357.327 1795.88 357.462 1796.16 357.516C1796.43 357.57 1796.71 357.542 1796.97 357.436C1797.23 357.329 1797.45 357.149 1797.6 356.917C1797.76 356.685 1797.84 356.413 1797.84 356.135C1797.84 355.762 1797.69 355.405 1797.42 355.142C1797.16 354.878 1796.8 354.729 1796.43 354.726Z" fill="white"/>
<path d="M1796.43 331.551C1796.15 331.551 1795.88 331.633 1795.65 331.788C1795.42 331.943 1795.24 332.163 1795.13 332.42C1795.02 332.677 1795 332.96 1795.05 333.234C1795.1 333.507 1795.24 333.758 1795.44 333.955C1795.63 334.152 1795.88 334.286 1796.16 334.34C1796.43 334.395 1796.71 334.367 1796.97 334.26C1797.23 334.153 1797.45 333.973 1797.6 333.741C1797.76 333.51 1797.84 333.237 1797.84 332.959C1797.84 332.586 1797.69 332.23 1797.42 331.966C1797.16 331.703 1796.8 331.554 1796.43 331.551Z" fill="white"/>
<path d="M1796.43 308.364C1796.15 308.364 1795.88 308.446 1795.65 308.601C1795.42 308.756 1795.24 308.976 1795.13 309.233C1795.02 309.49 1795 309.773 1795.05 310.047C1795.1 310.32 1795.24 310.571 1795.44 310.768C1795.63 310.965 1795.88 311.099 1796.16 311.153C1796.43 311.208 1796.71 311.18 1796.97 311.073C1797.23 310.966 1797.45 310.786 1797.6 310.554C1797.76 310.323 1797.84 310.05 1797.84 309.772C1797.84 309.399 1797.69 309.043 1797.42 308.779C1797.16 308.516 1796.8 308.367 1796.43 308.364Z" fill="white"/>
<path d="M1796.43 285.177C1796.15 285.174 1795.87 285.256 1795.64 285.411C1795.4 285.566 1795.22 285.788 1795.11 286.048C1795 286.308 1794.97 286.594 1795.03 286.871C1795.08 287.147 1795.22 287.401 1795.42 287.6C1795.62 287.8 1795.87 287.935 1796.15 287.99C1796.42 288.044 1796.71 288.015 1796.97 287.906C1797.23 287.797 1797.45 287.613 1797.61 287.378C1797.76 287.143 1797.84 286.867 1797.84 286.585C1797.84 286.212 1797.69 285.856 1797.42 285.592C1797.16 285.329 1796.8 285.18 1796.43 285.177Z" fill="white"/>
<path d="M1796.43 262.001C1796.15 262.001 1795.88 262.084 1795.65 262.238C1795.42 262.393 1795.24 262.613 1795.13 262.871C1795.02 263.128 1795 263.411 1795.05 263.684C1795.1 263.957 1795.24 264.208 1795.44 264.405C1795.63 264.602 1795.88 264.737 1796.16 264.791C1796.43 264.845 1796.71 264.817 1796.97 264.711C1797.23 264.604 1797.45 264.424 1797.6 264.192C1797.76 263.96 1797.84 263.688 1797.84 263.41C1797.84 263.037 1797.69 262.68 1797.42 262.417C1797.16 262.153 1796.8 262.004 1796.43 262.001Z" fill="white"/>
<path d="M1817.81 354.726C1817.53 354.737 1817.27 354.829 1817.04 354.991C1816.82 355.152 1816.65 355.376 1816.55 355.634C1816.45 355.892 1816.43 356.173 1816.49 356.443C1816.55 356.712 1816.69 356.958 1816.89 357.149C1817.09 357.34 1817.34 357.469 1817.61 357.519C1817.88 357.568 1818.16 357.537 1818.42 357.429C1818.67 357.321 1818.89 357.141 1819.04 356.911C1819.19 356.681 1819.27 356.411 1819.27 356.135C1819.28 355.945 1819.24 355.757 1819.16 355.582C1819.09 355.407 1818.98 355.249 1818.84 355.118C1818.71 354.986 1818.54 354.884 1818.37 354.816C1818.19 354.749 1818 354.718 1817.81 354.726Z" fill="white"/>
<path d="M1817.81 331.551C1817.53 331.562 1817.27 331.654 1817.04 331.815C1816.82 331.977 1816.65 332.2 1816.55 332.458C1816.45 332.717 1816.43 332.998 1816.49 333.267C1816.55 333.536 1816.69 333.782 1816.89 333.973C1817.09 334.165 1817.34 334.293 1817.61 334.343C1817.88 334.393 1818.16 334.362 1818.42 334.254C1818.67 334.146 1818.89 333.965 1819.04 333.735C1819.19 333.505 1819.27 333.235 1819.27 332.959C1819.28 332.769 1819.24 332.581 1819.16 332.406C1819.09 332.232 1818.98 332.074 1818.84 331.942C1818.71 331.811 1818.54 331.708 1818.37 331.641C1818.19 331.574 1818 331.543 1817.81 331.551Z" fill="white"/>
<path d="M1817.81 308.364C1817.53 308.375 1817.27 308.467 1817.04 308.628C1816.82 308.79 1816.65 309.013 1816.55 309.271C1816.45 309.53 1816.43 309.811 1816.49 310.08C1816.55 310.349 1816.69 310.595 1816.89 310.786C1817.09 310.978 1817.34 311.106 1817.61 311.156C1817.88 311.206 1818.16 311.175 1818.42 311.067C1818.67 310.959 1818.89 310.778 1819.04 310.548C1819.19 310.318 1819.27 310.048 1819.27 309.772C1819.28 309.582 1819.24 309.394 1819.16 309.219C1819.09 309.045 1818.98 308.887 1818.84 308.755C1818.71 308.624 1818.54 308.521 1818.37 308.454C1818.19 308.387 1818 308.356 1817.81 308.364Z" fill="white"/>
<path d="M1817.81 285.176C1817.53 285.185 1817.26 285.277 1817.03 285.439C1816.8 285.6 1816.63 285.826 1816.53 286.087C1816.43 286.347 1816.41 286.632 1816.47 286.905C1816.53 287.177 1816.67 287.426 1816.87 287.619C1817.07 287.813 1817.33 287.943 1817.6 287.993C1817.88 288.042 1818.16 288.01 1818.42 287.9C1818.67 287.789 1818.89 287.606 1819.04 287.372C1819.2 287.138 1819.28 286.864 1819.27 286.585C1819.27 286.395 1819.24 286.207 1819.16 286.032C1819.09 285.858 1818.98 285.7 1818.84 285.568C1818.71 285.437 1818.54 285.334 1818.37 285.267C1818.19 285.199 1818 285.169 1817.81 285.176Z" fill="white"/>
<path d="M1817.81 262.001C1817.53 262.012 1817.27 262.104 1817.04 262.266C1816.82 262.427 1816.65 262.651 1816.55 262.909C1816.45 263.167 1816.43 263.448 1816.49 263.718C1816.55 263.987 1816.69 264.233 1816.89 264.424C1817.09 264.615 1817.34 264.744 1817.61 264.794C1817.88 264.843 1818.16 264.812 1818.42 264.704C1818.67 264.596 1818.89 264.416 1819.04 264.186C1819.19 263.956 1819.27 263.686 1819.27 263.41C1819.28 263.22 1819.24 263.032 1819.16 262.857C1819.09 262.682 1818.98 262.524 1818.84 262.393C1818.71 262.261 1818.54 262.159 1818.37 262.091C1818.19 262.024 1818 261.993 1817.81 262.001Z" fill="white"/>
<path d="M1839.2 354.726C1838.92 354.726 1838.65 354.809 1838.42 354.963C1838.18 355.118 1838 355.338 1837.9 355.596C1837.79 355.853 1837.76 356.136 1837.82 356.409C1837.87 356.682 1838.01 356.933 1838.2 357.13C1838.4 357.327 1838.65 357.462 1838.92 357.516C1839.2 357.57 1839.48 357.542 1839.74 357.436C1840 357.329 1840.22 357.149 1840.37 356.917C1840.52 356.685 1840.61 356.413 1840.61 356.135C1840.61 355.761 1840.46 355.403 1840.19 355.139C1839.93 354.874 1839.57 354.726 1839.2 354.726Z" fill="white"/>
<path d="M1839.2 331.551C1838.92 331.551 1838.65 331.633 1838.42 331.788C1838.18 331.943 1838 332.163 1837.9 332.42C1837.79 332.677 1837.76 332.96 1837.82 333.234C1837.87 333.507 1838.01 333.758 1838.2 333.955C1838.4 334.152 1838.65 334.286 1838.92 334.34C1839.2 334.395 1839.48 334.367 1839.74 334.26C1840 334.153 1840.22 333.973 1840.37 333.741C1840.52 333.51 1840.61 333.237 1840.61 332.959C1840.61 332.585 1840.46 332.227 1840.19 331.963C1839.93 331.699 1839.57 331.551 1839.2 331.551Z" fill="white"/>
<path d="M1839.2 308.364C1838.92 308.364 1838.65 308.446 1838.42 308.601C1838.18 308.756 1838 308.976 1837.9 309.233C1837.79 309.49 1837.76 309.773 1837.82 310.047C1837.87 310.32 1838.01 310.571 1838.2 310.768C1838.4 310.965 1838.65 311.099 1838.92 311.153C1839.2 311.208 1839.48 311.18 1839.74 311.073C1840 310.966 1840.22 310.786 1840.37 310.554C1840.52 310.323 1840.61 310.05 1840.61 309.772C1840.61 309.398 1840.46 309.04 1840.19 308.776C1839.93 308.512 1839.57 308.364 1839.2 308.364Z" fill="white"/>
<path d="M1839.2 285.177C1838.92 285.174 1838.64 285.256 1838.41 285.411C1838.17 285.566 1837.99 285.788 1837.88 286.048C1837.77 286.308 1837.74 286.594 1837.79 286.871C1837.85 287.147 1837.98 287.401 1838.18 287.6C1838.38 287.8 1838.64 287.935 1838.91 287.99C1839.19 288.044 1839.48 288.015 1839.74 287.906C1840 287.797 1840.22 287.613 1840.37 287.378C1840.53 287.143 1840.61 286.867 1840.61 286.585C1840.61 286.211 1840.46 285.853 1840.19 285.589C1839.93 285.325 1839.57 285.177 1839.2 285.177Z" fill="white"/>
<path d="M1839.2 262.001C1838.92 262.001 1838.65 262.084 1838.42 262.238C1838.18 262.393 1838 262.613 1837.9 262.871C1837.79 263.128 1837.76 263.411 1837.82 263.684C1837.87 263.957 1838.01 264.208 1838.2 264.405C1838.4 264.602 1838.65 264.737 1838.92 264.791C1839.2 264.845 1839.48 264.817 1839.74 264.711C1840 264.604 1840.22 264.424 1840.37 264.192C1840.52 263.96 1840.61 263.688 1840.61 263.41C1840.61 263.036 1840.46 262.678 1840.19 262.414C1839.93 262.149 1839.57 262.001 1839.2 262.001Z" fill="white"/>
<path d="M1860.58 354.726C1860.3 354.728 1860.03 354.813 1859.8 354.969C1859.57 355.125 1859.39 355.346 1859.28 355.603C1859.18 355.861 1859.15 356.144 1859.21 356.416C1859.26 356.689 1859.4 356.939 1859.6 357.134C1859.79 357.33 1860.04 357.463 1860.32 357.517C1860.59 357.57 1860.87 357.542 1861.13 357.435C1861.39 357.328 1861.61 357.147 1861.76 356.916C1861.91 356.684 1862 356.413 1862 356.135C1862 355.949 1861.96 355.765 1861.89 355.593C1861.82 355.421 1861.71 355.266 1861.58 355.135C1861.45 355.004 1861.29 354.9 1861.12 354.83C1860.95 354.76 1860.76 354.725 1860.58 354.726Z" fill="white"/>
<path d="M1860.58 331.551C1860.3 331.553 1860.03 331.637 1859.8 331.793C1859.57 331.95 1859.39 332.17 1859.28 332.428C1859.18 332.685 1859.15 332.968 1859.21 333.241C1859.26 333.513 1859.4 333.763 1859.6 333.959C1859.79 334.155 1860.04 334.288 1860.32 334.341C1860.59 334.395 1860.87 334.366 1861.13 334.259C1861.39 334.152 1861.61 333.972 1861.76 333.74C1861.91 333.509 1862 333.237 1862 332.959C1862 332.773 1861.96 332.589 1861.89 332.417C1861.82 332.246 1861.71 332.09 1861.58 331.959C1861.45 331.828 1861.29 331.725 1861.12 331.654C1860.95 331.584 1860.76 331.549 1860.58 331.551Z" fill="white"/>
<path d="M1860.58 308.364C1860.3 308.366 1860.03 308.45 1859.8 308.606C1859.57 308.763 1859.39 308.983 1859.28 309.241C1859.18 309.498 1859.15 309.781 1859.21 310.054C1859.26 310.326 1859.4 310.576 1859.6 310.772C1859.79 310.968 1860.04 311.101 1860.32 311.154C1860.59 311.207 1860.87 311.179 1861.13 311.072C1861.39 310.965 1861.61 310.785 1861.76 310.553C1861.91 310.322 1862 310.05 1862 309.772C1862 309.586 1861.96 309.402 1861.89 309.23C1861.82 309.059 1861.71 308.903 1861.58 308.772C1861.45 308.641 1861.29 308.538 1861.12 308.467C1860.95 308.397 1860.76 308.362 1860.58 308.364Z" fill="white"/>
<path d="M1860.58 285.177C1860.22 285.208 1859.9 285.371 1859.66 285.633C1859.42 285.894 1859.28 286.236 1859.28 286.591C1859.28 286.945 1859.42 287.287 1859.66 287.549C1859.9 287.81 1860.22 287.973 1860.58 288.005C1860.77 288.022 1860.97 287.999 1861.16 287.936C1861.34 287.873 1861.52 287.772 1861.66 287.639C1861.81 287.506 1861.92 287.344 1862 287.163C1862.08 286.983 1862.12 286.788 1862.12 286.591C1862.12 286.393 1862.08 286.198 1862 286.018C1861.92 285.838 1861.81 285.676 1861.66 285.543C1861.52 285.41 1861.34 285.308 1861.16 285.245C1860.97 285.182 1860.77 285.159 1860.58 285.177Z" fill="white"/>
<path d="M1860.58 262.001C1860.3 262.003 1860.03 262.088 1859.8 262.244C1859.57 262.4 1859.39 262.621 1859.28 262.878C1859.18 263.136 1859.15 263.419 1859.21 263.691C1859.26 263.964 1859.4 264.214 1859.6 264.409C1859.79 264.605 1860.04 264.738 1860.32 264.792C1860.59 264.845 1860.87 264.817 1861.13 264.71C1861.39 264.603 1861.61 264.422 1861.76 264.191C1861.91 263.959 1862 263.688 1862 263.41C1862 263.224 1861.96 263.04 1861.89 262.868C1861.82 262.696 1861.71 262.541 1861.58 262.41C1861.45 262.279 1861.29 262.175 1861.12 262.105C1860.95 262.035 1860.76 262 1860.58 262.001Z" fill="white"/>
<path d="M1881.97 354.726C1881.69 354.731 1881.42 354.817 1881.19 354.975C1880.96 355.132 1880.78 355.354 1880.68 355.611C1880.58 355.869 1880.55 356.151 1880.61 356.423C1880.67 356.695 1880.8 356.944 1881 357.138C1881.2 357.333 1881.45 357.465 1881.72 357.517C1881.99 357.57 1882.28 357.541 1882.53 357.433C1882.79 357.326 1883.01 357.146 1883.16 356.915C1883.31 356.683 1883.4 356.412 1883.4 356.135C1883.4 355.948 1883.36 355.763 1883.29 355.59C1883.22 355.418 1883.11 355.262 1882.98 355.13C1882.84 354.999 1882.69 354.896 1882.51 354.827C1882.34 354.757 1882.15 354.723 1881.97 354.726Z" fill="white"/>
<path d="M1881.97 331.551C1881.69 331.551 1881.41 331.633 1881.18 331.788C1880.95 331.943 1880.77 332.163 1880.66 332.42C1880.56 332.677 1880.53 332.96 1880.58 333.234C1880.64 333.507 1880.77 333.758 1880.97 333.955C1881.17 334.152 1881.42 334.286 1881.69 334.34C1881.96 334.395 1882.25 334.367 1882.5 334.26C1882.76 334.153 1882.98 333.973 1883.14 333.741C1883.29 333.51 1883.37 333.237 1883.37 332.959C1883.37 332.585 1883.23 332.227 1882.96 331.963C1882.7 331.699 1882.34 331.551 1881.97 331.551Z" fill="white"/>
<path d="M1881.97 308.364C1881.69 308.364 1881.41 308.446 1881.18 308.601C1880.95 308.756 1880.77 308.976 1880.66 309.233C1880.56 309.49 1880.53 309.773 1880.58 310.047C1880.64 310.32 1880.77 310.571 1880.97 310.768C1881.17 310.965 1881.42 311.099 1881.69 311.153C1881.96 311.208 1882.25 311.18 1882.5 311.073C1882.76 310.966 1882.98 310.786 1883.14 310.554C1883.29 310.323 1883.37 310.05 1883.37 309.772C1883.37 309.398 1883.23 309.04 1882.96 308.776C1882.7 308.512 1882.34 308.364 1881.97 308.364Z" fill="white"/>
<path d="M1881.97 285.177C1881.68 285.174 1881.41 285.256 1881.17 285.411C1880.94 285.566 1880.75 285.788 1880.64 286.048C1880.54 286.308 1880.51 286.594 1880.56 286.871C1880.62 287.147 1880.75 287.401 1880.95 287.6C1881.15 287.8 1881.4 287.935 1881.68 287.99C1881.96 288.044 1882.24 288.015 1882.5 287.906C1882.76 287.797 1882.98 287.613 1883.14 287.378C1883.29 287.143 1883.38 286.867 1883.37 286.585C1883.37 286.211 1883.23 285.853 1882.96 285.589C1882.7 285.325 1882.34 285.177 1881.97 285.177Z" fill="white"/>
<path d="M1881.97 262.001C1881.69 262.001 1881.41 262.084 1881.18 262.238C1880.95 262.393 1880.77 262.613 1880.66 262.871C1880.56 263.128 1880.53 263.411 1880.58 263.684C1880.64 263.957 1880.77 264.208 1880.97 264.405C1881.17 264.602 1881.42 264.737 1881.69 264.791C1881.96 264.845 1882.25 264.817 1882.5 264.711C1882.76 264.604 1882.98 264.424 1883.14 264.192C1883.29 263.96 1883.37 263.688 1883.37 263.41C1883.37 263.036 1883.23 262.678 1882.96 262.414C1882.7 262.149 1882.34 262.001 1881.97 262.001Z" fill="white"/>
<path d="M299.805 767.382C293.256 767.382 293.256 759 286.706 759C280.156 759 280.156 767.382 273.607 767.382C267.057 767.382 267.057 759 260.519 759C253.981 759 253.969 767.382 247.42 767.382C240.87 767.382 240.87 759 234.309 759C227.748 759 227.76 767.382 221.21 767.382C214.66 767.382 214.66 759 208.111 759C201.561 759 201.55 767.382 195 767.382" stroke="#2662FA" stroke-miterlimit="10"/>
<path d="M1661.8 412.382C1655.26 412.382 1655.26 404 1648.71 404C1642.16 404 1642.16 412.382 1635.61 412.382C1629.06 412.382 1629.06 404 1622.52 404C1615.98 404 1615.97 412.382 1609.42 412.382C1602.87 412.382 1602.87 404 1596.31 404C1589.75 404 1589.77 412.382 1583.22 412.382C1576.67 412.382 1576.66 404 1570.11 404C1563.56 404 1563.55 412.382 1557 412.382" stroke="white" stroke-miterlimit="10"/>
<path opacity="0.8" d="M1716.81 885.382C1710.26 885.382 1710.26 877 1703.71 877C1697.16 877 1697.16 885.382 1690.61 885.382C1684.06 885.382 1684.06 877 1677.52 877C1670.98 877 1670.97 885.382 1664.42 885.382C1657.87 885.382 1657.87 877 1651.31 877C1644.75 877 1644.76 885.382 1638.21 885.382C1631.66 885.382 1631.66 877 1625.11 877C1618.56 877 1618.55 885.382 1612 885.382" stroke="white" stroke-miterlimit="10"/>
<mask id="path-12-inside-1_1385_16752" fill="white">
<path d="M202.829 999.962C204.233 990.971 204.962 981.756 204.962 972.371C204.962 874.412 125.55 795 27.591 795C18.2059 795 8.99107 795.729 -8.86592e-06 797.133L-8.72636e-06 800.326C8.98649 798.896 18.202 798.153 27.591 798.153C123.809 798.153 201.808 876.153 201.809 972.371C201.809 981.76 201.066 990.975 199.636 999.962L202.829 999.962Z"/>
<path d="M173.802 999.962C175.479 991.021 176.355 981.799 176.355 972.371C176.355 890.211 109.751 823.607 27.5912 823.607C18.1636 823.607 8.94083 824.484 -7.5971e-06 826.161L-7.45678e-06 829.371C8.93378 827.657 18.1577 826.76 27.5912 826.76C108.01 826.76 173.202 891.952 173.202 972.371C173.202 981.804 172.305 991.028 170.592 999.962L173.802 999.962Z"/>
<path d="M144.591 999.962C146.672 991.102 147.773 981.865 147.773 972.371C147.773 905.996 93.9657 852.189 27.5912 852.189C18.0967 852.189 8.85944 853.29 -6.32026e-06 855.371L-6.17854e-06 858.613C8.84731 856.475 18.0869 855.342 27.5912 855.342C92.2242 855.342 144.62 907.738 144.62 972.371C144.62 981.875 143.487 991.115 141.349 999.962L144.591 999.962Z"/>
<path d="M114.962 999.962C117.709 991.255 119.19 981.986 119.19 972.371C119.19 921.782 78.18 880.772 27.5911 880.772C17.9761 880.772 8.70716 882.253 -5.02514e-06 885L-4.88031e-06 888.313C8.68199 885.465 17.9566 883.925 27.5911 883.925C76.4385 883.925 116.037 923.524 116.037 972.371C116.037 982.005 114.497 991.28 111.649 999.962L114.962 999.962Z"/>
<path d="M84.2654 999.962C96.2293 975.394 91.1431 944.919 69.8625 925.664C50.2214 907.892 22.4455 904.799 -3.68267e-06 915.712L-3.52839e-06 919.242C21.5543 908.06 48.6838 910.753 67.7469 928.002C88.3629 946.656 92.9796 976.394 80.7349 999.962L84.2654 999.962Z"/>
</mask>
<path d="M202.829 999.962L202.829 1109.96L296.982 1109.96L311.511 1016.94L202.829 999.962ZM-8.86592e-06 797.133L-16.9747 688.451L-110 702.98L-110 797.133L-8.86592e-06 797.133ZM-8.72636e-06 800.326L-110 800.326L-110 929.212L17.2851 908.959L-8.72636e-06 800.326ZM199.636 999.962L91.0025 982.677L70.7496 1109.96L199.636 1109.96L199.636 999.962ZM173.802 999.962L173.802 1109.96L265.09 1109.96L281.917 1020.24L173.802 999.962ZM-7.5971e-06 826.161L-20.2764 718.046L-110 734.873L-110 826.161L-7.5971e-06 826.161ZM-7.45678e-06 829.371L-110 829.371L-110 962.474L20.7202 937.402L-7.45678e-06 829.371ZM170.592 999.962L62.5608 979.242L37.4894 1109.96L170.592 1109.96L170.592 999.962ZM144.591 999.962L144.591 1109.96L231.744 1109.96L251.676 1025.12L144.591 999.962ZM147.773 972.371L257.773 972.371L257.773 972.371L147.773 972.371ZM-6.32026e-06 855.371L-25.1561 748.286L-110 768.218L-110 855.371L-6.32026e-06 855.371ZM-6.17854e-06 858.613L-110 858.613L-110 998.366L25.8412 965.535L-6.17854e-06 858.613ZM144.62 972.371L254.62 972.371L254.62 972.371L144.62 972.371ZM141.349 999.962L34.4269 974.121L1.59629 1109.96L141.349 1109.96L141.349 999.962ZM114.962 999.962L114.962 1109.96L195.603 1109.96L219.865 1033.06L114.962 999.962ZM-5.02514e-06 885L-33.0962 780.097L-110 804.36L-110 885L-5.02514e-06 885ZM-4.88031e-06 888.313L-110 888.313L-110 1040.17L34.2869 992.833L-4.88031e-06 888.313ZM111.649 999.962L7.12878 965.675L-40.2029 1109.96L111.649 1109.96L111.649 999.962ZM84.2654 999.962L84.2654 1109.96L153.048 1109.96L183.163 1048.12L84.2654 999.962ZM69.8625 925.664L143.666 844.098L69.8625 925.664ZM-3.68267e-06 915.712L-48.1006 816.786L-110 846.884L-110 915.712L-3.68267e-06 915.712ZM-3.52839e-06 919.242L-110 919.242L-110 1100.23L50.6546 1016.88L-3.52839e-06 919.242ZM67.7469 928.002L-6.05702 1009.57L-6.05701 1009.57L67.7469 928.002ZM80.7349 999.962L-16.8768 949.247L-100.376 1109.96L80.7349 1109.96L80.7349 999.962ZM311.511 1016.94C313.789 1002.35 314.962 987.46 314.962 972.371L94.9618 972.371C94.9618 976.052 94.6765 979.592 94.1462 982.987L311.511 1016.94ZM314.962 972.371C314.962 813.66 186.301 685 27.591 685L27.591 905C64.7988 905 94.9618 935.163 94.9618 972.371L314.962 972.371ZM27.591 685C12.5017 685 -2.38817 686.173 -16.9747 688.451L16.9747 905.816C20.3703 905.285 23.9101 905 27.591 905L27.591 685ZM-110 797.133L-110 800.326L110 800.326L110 797.133L-110 797.133ZM17.2851 908.959C20.576 908.436 24.0121 908.153 27.591 908.153L27.591 688.153C12.3919 688.153 -2.60302 689.356 -17.2851 691.693L17.2851 908.959ZM27.591 908.153C63.0573 908.153 91.8085 936.905 91.8085 972.371L311.809 972.371C311.808 815.402 184.56 688.153 27.591 688.153L27.591 908.153ZM91.8085 972.371C91.8085 975.95 91.5261 979.386 91.0025 982.677L308.269 1017.25C310.605 1002.56 311.809 987.57 311.809 972.371L91.8085 972.371ZM199.636 1109.96L202.829 1109.96L202.829 889.962L199.636 889.962L199.636 1109.96ZM281.917 1020.24C284.841 1004.64 286.355 988.634 286.355 972.371L66.3555 972.371C66.3555 974.963 66.1157 977.398 65.6867 979.686L281.917 1020.24ZM286.355 972.371C286.355 829.46 170.503 713.607 27.5912 713.607L27.5912 933.607C49.0001 933.607 66.3555 950.962 66.3555 972.371L286.355 972.371ZM27.5912 713.607C11.3276 713.607 -4.68252 715.121 -20.2764 718.046L20.2764 934.276C22.5642 933.847 24.9996 933.607 27.5912 933.607L27.5912 713.607ZM-110 826.161L-110 829.371L110 829.371L110 826.161L-110 826.161ZM20.7202 937.402C22.8599 936.991 25.1467 936.76 27.5912 936.76L27.5912 716.76C11.1688 716.76 -4.99237 718.323 -20.7202 721.34L20.7202 937.402ZM27.5912 936.76C47.2586 936.76 63.2022 952.704 63.2022 972.371L283.202 972.371C283.202 831.201 168.761 716.76 27.5912 716.76L27.5912 936.76ZM63.2022 972.371C63.2022 974.816 62.9712 977.102 62.5608 979.242L278.623 1020.68C281.639 1004.95 283.202 988.793 283.202 972.371L63.2022 972.371ZM170.592 1109.96L173.802 1109.96L173.802 889.962L170.592 889.962L170.592 1109.96ZM251.676 1025.12C255.68 1008.07 257.773 990.396 257.773 972.371L37.773 972.371C37.773 973.335 37.6642 974.132 37.5059 974.806L251.676 1025.12ZM257.773 972.371C257.773 845.245 154.717 742.189 27.5912 742.189L27.5912 962.189C33.2144 962.189 37.773 966.747 37.773 972.371L257.773 972.371ZM27.5912 742.189C9.56606 742.189 -8.11111 744.282 -25.1561 748.286L25.1561 962.456C25.83 962.298 26.6274 962.189 27.5912 962.189L27.5912 742.189ZM-110 855.371L-110 858.613L110 858.613L110 855.371L-110 855.371ZM25.8412 965.535C26.2912 965.426 26.858 965.342 27.5912 965.342L27.5912 745.342C9.31589 745.342 -8.59656 747.524 -25.8412 751.692L25.8412 965.535ZM27.5912 965.342C31.4729 965.342 34.6197 968.489 34.6197 972.371L254.62 972.371C254.62 846.986 152.976 745.342 27.5912 745.342L27.5912 965.342ZM34.6197 972.371C34.6197 973.104 34.5356 973.671 34.4269 974.121L248.27 1025.8C252.438 1008.56 254.62 990.646 254.62 972.371L34.6197 972.371ZM141.349 1109.96L144.591 1109.96L144.591 889.962L141.349 889.962L141.349 1109.96ZM219.865 1033.06C225.951 1013.77 229.19 993.344 229.19 972.371L9.19046 972.371C9.19046 970.628 9.46739 968.741 10.059 966.866L219.865 1033.06ZM229.19 972.371C229.19 861.031 138.931 770.772 27.5911 770.772L27.5911 990.772C17.4287 990.772 9.19046 982.533 9.19046 972.371L229.19 972.371ZM27.5911 770.772C6.61812 770.772 -13.8069 774.011 -33.0962 780.097L33.0962 989.903C31.2212 990.495 29.3341 990.772 27.5911 990.772L27.5911 770.772ZM-110 885L-110 888.313L110 888.313L110 885L-110 885ZM34.2869 992.833C32.0395 993.571 29.7474 993.925 27.5911 993.925L27.5911 773.925C6.16586 773.925 -14.6756 777.36 -34.2869 783.793L34.2869 992.833ZM27.5911 993.925C15.6872 993.925 6.0372 984.275 6.0372 972.371L226.037 972.371C226.037 862.772 137.19 773.925 27.5911 773.925L27.5911 993.925ZM6.0372 972.371C6.0372 970.215 6.39153 967.923 7.12878 965.675L216.169 1034.25C222.602 1014.64 226.037 993.796 226.037 972.371L6.0372 972.371ZM111.649 1109.96L114.962 1109.96L114.962 889.962L111.649 889.962L111.649 1109.96ZM183.163 1048.12C215.979 980.732 202.213 897.073 143.666 844.098L-3.94137 1007.23C-19.9266 992.765 -23.5206 970.056 -14.6317 951.802L183.163 1048.12ZM143.666 844.098C89.6119 795.187 13.3306 786.917 -48.1006 816.786L48.1006 1014.64C31.5604 1022.68 10.8308 1020.6 -3.94136 1007.23L143.666 844.098ZM-110 915.712L-110 919.242L110 919.242L110 915.712L-110 915.712ZM50.6546 1016.88C32.7637 1026.17 10.0368 1024.13 -6.05702 1009.57L141.551 846.436C87.3309 797.376 10.3449 789.954 -50.6546 821.599L50.6546 1016.88ZM-6.05701 1009.57C-23.4361 993.842 -27.1175 968.958 -16.8768 949.247L178.347 1050.68C213.077 983.83 200.162 899.47 141.551 846.436L-6.05701 1009.57ZM80.7349 1109.96L84.2654 1109.96L84.2654 889.962L80.7349 889.962L80.7349 1109.96Z" fill="url(#paint3_linear_1385_16752)" fill-opacity="0.32" mask="url(#path-12-inside-1_1385_16752)"/>
</g>
<defs>
<filter id="filter0_f_1385_16752" x="1005.06" y="13.0562" width="1167.46" height="1267.9" filterUnits="userSpaceOnUse" color-interpolation-filters="sRGB">
<feFlood flood-opacity="0" result="BackgroundImageFix"/>
<feBlend mode="normal" in="SourceGraphic" in2="BackgroundImageFix" result="shape"/>
<feGaussianBlur stdDeviation="145.5" result="effect1_foregroundBlur_1385_16752"/>
</filter>
<filter id="filter1_f_1385_16752" x="-126.945" y="-118.945" width="1167.46" height="1267.9" filterUnits="userSpaceOnUse" color-interpolation-filters="sRGB">
<feFlood flood-opacity="0" result="BackgroundImageFix"/>
<feBlend mode="normal" in="SourceGraphic" in2="BackgroundImageFix" result="shape"/>
<feGaussianBlur stdDeviation="145.5" result="effect1_foregroundBlur_1385_16752"/>
</filter>
<linearGradient id="paint0_linear_1385_16752" x1="1559.83" y1="1024.65" x2="2012" y2="562.807" gradientUnits="userSpaceOnUse">
<stop stop-color="#310BE8"/>
<stop offset="0.348958" stop-color="#0027FE"/>
<stop offset="0.651042" stop-color="#8200FF"/>
<stop offset="1" stop-color="#D703FF"/>
</linearGradient>
<linearGradient id="paint1_linear_1385_16752" x1="427.827" y1="892.653" x2="879.996" y2="430.806" gradientUnits="userSpaceOnUse">
<stop stop-color="#0A82FD"/>
<stop offset="0.348958" stop-color="#0027FE"/>
<stop offset="0.651042" stop-color="#0A82FD"/>
<stop offset="1" stop-color="#FED055"/>
</linearGradient>
<linearGradient id="paint2_linear_1385_16752" x1="262.5" y1="119" x2="138" y2="93.4999" gradientUnits="userSpaceOnUse">
<stop stop-color="#F0D8FD"/>
<stop offset="1" stop-color="#08B8E1"/>
</linearGradient>
<linearGradient id="paint3_linear_1385_16752" x1="151.5" y1="851.462" x2="0" y2="999.962" gradientUnits="userSpaceOnUse">
<stop stop-color="#F6DBFD" stop-opacity="0.66"/>
<stop offset="0.65625" stop-color="#2662FA" stop-opacity="0"/>
</linearGradient>
</defs>
</svg>
