<svg width="22" height="22" viewBox="0 0 22 22" fill="none" xmlns="http://www.w3.org/2000/svg">
<path d="M21 10.7512V16.7415C21 18.947 19.2091 20.735 17 20.735H5C2.79086 20.735 1 18.947 1 16.7415V4.76097C1 2.55543 2.79086 0.767479 5 0.767479H11M14.6864 2.78694C14.6864 2.78694 14.6864 4.21491 16.1167 5.64288C17.547 7.07085 18.9773 7.07085 18.9773 7.07085M8.15467 14.7343L11.1583 14.3059C11.5916 14.2441 11.9931 14.0437 12.3025 13.7347L20.4076 5.64288C21.1975 4.85423 21.1975 3.57558 20.4076 2.78694L18.9773 1.35896C18.1873 0.570317 16.9066 0.570317 16.1167 1.35896L8.01164 9.4508C7.70217 9.75977 7.50142 10.1606 7.43952 10.5932L7.01044 13.5919C6.91508 14.2583 7.4872 14.8295 8.15467 14.7343Z" stroke="#2F3032" stroke-width="1.5" stroke-linecap="round"/>
</svg>
