<svg width="20" height="21" viewBox="0 0 20 21" fill="none" xmlns="http://www.w3.org/2000/svg">
<path d="M4.16667 16.7201H5.345L13.1067 8.95845L11.9283 7.78012L4.16667 15.5418V16.7201ZM5.83333 18.3868H3.5C2.94771 18.3868 2.5 17.9391 2.5 17.3868V14.851L13.6958 3.65512C13.8521 3.4989 14.064 3.41113 14.285 3.41113C14.506 3.41113 14.7179 3.4989 14.8742 3.65512L17.2317 6.01262C17.3879 6.16889 17.4757 6.38082 17.4757 6.60179C17.4757 6.82276 17.3879 7.03468 17.2317 7.19095L7.7025 16.7201L5.83333 18.3868ZM13.1067 6.60179L14.285 7.78012L15.4633 6.60179L14.285 5.42345L13.1067 6.60179Z" fill="#B8BABF"/>
<rect x="10" y="16.7441" width="6.66667" height="1.66667" rx="0.833333" fill="#C4C4C4"/>
</svg>
