<svg width="16" height="19" viewBox="0 0 16 19" fill="none" xmlns="http://www.w3.org/2000/svg">
<path d="M9.83398 1.24951V4.91618C9.83398 5.15929 9.93056 5.39245 10.1025 5.56436C10.2744 5.73627 10.5075 5.83285 10.7507 5.83285H14.4173" stroke="#194BFB" stroke-width="1.5" stroke-linecap="round" stroke-linejoin="round"/>
<path d="M12.584 17.7495H3.41732C2.93109 17.7495 2.46477 17.5564 2.12096 17.2125C1.77714 16.8687 1.58398 16.4024 1.58398 15.9162V3.08285C1.58398 2.59661 1.77714 2.1303 2.12096 1.78648C2.46477 1.44267 2.93109 1.24951 3.41732 1.24951H9.83398L14.4173 5.83285V15.9162C14.4173 16.4024 14.2242 16.8687 13.8803 17.2125C13.5365 17.5564 13.0702 17.7495 12.584 17.7495Z" stroke="#194BFB" stroke-width="1.5" stroke-linecap="round" stroke-linejoin="round"/>
<path d="M5.25 6.74951H6.16667" stroke="#194BFB" stroke-width="1.5" stroke-linecap="round" stroke-linejoin="round"/>
<path d="M5.25 10.416H10.75" stroke="#194BFB" stroke-width="1.5" stroke-linecap="round" stroke-linejoin="round"/>
<path d="M5.25 14.083H10.75" stroke="#194BFB" stroke-width="1.5" stroke-linecap="round" stroke-linejoin="round"/>
</svg>
