<svg width="16" height="16" viewBox="0 0 16 16" fill="none" xmlns="http://www.w3.org/2000/svg">
<path d="M1.49913 1H14.4991C14.6431 1.05051 14.7737 1.13331 14.8808 1.24206C14.9878 1.35082 15.0686 1.48264 15.1169 1.62742C15.1651 1.77221 15.1796 1.92612 15.1592 2.07737C15.1388 2.22861 15.084 2.37318 14.9991 2.5L9.99913 8V15L5.99913 12V8L0.999131 2.5C0.914222 2.37318 0.859466 2.22861 0.839059 2.07737C0.818651 1.92612 0.833133 1.77221 0.881395 1.62742C0.929657 1.48264 1.01042 1.35082 1.11749 1.24206C1.22457 1.13331 1.35511 1.05051 1.49913 1Z" stroke="#94A3B8" stroke-width="1.5" stroke-linecap="round" stroke-linejoin="round"/>
</svg>
