<svg width="25" height="25" viewBox="0 0 25 25" fill="none" xmlns="http://www.w3.org/2000/svg">
<path d="M23.4278 22.1789C23.4278 20.9139 23.4278 19.6479 23.4278 18.383C23.4278 18.22 23.4215 18.0571 23.4321 17.8953C23.4619 17.4364 23.7824 17.1137 24.203 17.1116C24.6151 17.1095 24.9792 17.4364 24.9824 17.89C24.9952 20.0035 24.9963 22.1171 24.9814 24.2307C24.9782 24.6896 24.6577 24.9867 24.1913 24.9899C22.0937 25.0006 19.9961 25.0006 17.8984 24.9899C17.4395 24.9878 17.1126 24.6428 17.1052 24.2275C17.0977 23.7952 17.4363 23.446 17.9229 23.4385C18.8823 23.4236 19.8417 23.4332 20.801 23.4332C21.2557 23.4332 21.7104 23.4332 22.2832 23.4332C22.1118 23.249 22.0042 23.1265 21.8892 23.0105C19.9705 21.0896 18.0507 19.1698 16.132 17.2479C16.017 17.1329 15.8935 17.0211 15.8051 16.888C15.5794 16.5462 15.6038 16.2002 15.8892 15.9095C16.1746 15.6188 16.5227 15.5922 16.8667 15.8104C17.0147 15.9052 17.1382 16.0415 17.2649 16.1671C19.1634 18.0625 21.0619 19.9588 22.9561 21.8573C23.0807 21.9819 23.1755 22.1342 23.2841 22.2737C23.332 22.2428 23.3799 22.2108 23.4278 22.1789Z" fill="#2F3032"/>
<path d="M2.70008 1.56808C2.90026 1.77784 3.01738 1.90668 3.13983 2.02913C5.03621 3.92657 6.93258 5.824 8.82895 7.72144C8.9546 7.84815 9.09089 7.9706 9.18778 8.11754C9.41139 8.45933 9.38583 8.80752 9.09941 9.09501C8.81192 9.38356 8.46373 9.40805 8.12087 9.18764C7.97287 9.09288 7.85042 8.95552 7.72371 8.82988C5.82627 6.93457 3.9299 5.03607 2.03353 3.13969C1.91001 3.01618 1.78117 2.89799 1.59697 2.7223C1.58419 2.93419 1.56928 3.07048 1.56928 3.20784C1.56715 4.46002 1.57141 5.71114 1.56609 6.96332C1.56396 7.53298 1.25517 7.88861 0.786669 7.88648C0.32349 7.88435 0.00831531 7.5202 0.00725053 6.95586C0.00192663 4.95621 0.000861849 2.95549 0.00618575 0.955831C0.00831531 0.288214 0.291547 0.00498221 0.958099 0.00391743C2.95776 -0.000341693 4.95848 0.00072311 6.95813 0.00604701C7.5246 0.00711179 7.88769 0.319092 7.89088 0.782272C7.89407 1.24758 7.53311 1.56382 6.96772 1.56595C5.5867 1.57127 4.20568 1.56808 2.70008 1.56808Z" fill="#2F3032"/>
<path d="M2.70614 23.4332C4.22664 23.4332 5.6247 23.4247 7.02169 23.4374C7.70421 23.4438 8.12587 24.0784 7.76597 24.5863C7.62223 24.7897 7.29534 24.975 7.04831 24.9782C4.9837 25.009 2.91909 25.0005 0.854486 24.992C0.313578 24.9899 0.0101154 24.6843 0.00692107 24.1359C-0.00266195 22.0884 -0.00159717 20.0397 0.00585629 17.9911C0.00798585 17.4661 0.340197 17.1148 0.789534 17.1158C1.24313 17.118 1.56043 17.464 1.56256 17.9953C1.56895 19.3902 1.56469 20.7851 1.56469 22.2885C1.75529 22.1139 1.88306 22.0064 2.00125 21.8882C3.9104 19.9812 5.81955 18.0741 7.7287 16.166C7.83199 16.0628 7.93208 15.9531 8.04601 15.8637C8.38887 15.5943 8.8233 15.6156 9.10653 15.9073C9.3887 16.198 9.40041 16.6314 9.12676 16.97C9.03519 17.0828 8.92552 17.1818 8.82117 17.2851C6.9248 19.1826 5.02842 21.0789 3.13311 22.9774C3.01279 23.0999 2.8978 23.2287 2.70614 23.4332Z" fill="#2F3032"/>
<path d="M23.3128 2.75628C22.8251 3.2546 22.3406 3.75718 21.8487 4.25017C20.3676 5.73447 18.8822 7.21558 17.399 8.69882C17.3415 8.75632 17.284 8.81382 17.2265 8.87131C16.7026 9.39199 16.2426 9.46546 15.8806 9.08746C15.5229 8.71373 15.5942 8.28994 16.1042 7.77991C17.8749 6.00919 19.6457 4.23846 21.4175 2.46986C21.6879 2.1994 21.969 1.9396 22.1884 1.56799C21.1396 1.56799 20.0897 1.56799 19.0409 1.56799C18.7161 1.56799 18.3903 1.57118 18.0655 1.56692C17.4639 1.56053 17.0945 1.25068 17.1062 0.769403C17.1179 0.307289 17.4789 0.0070207 18.0506 0.00489114C19.6276 0.000632024 21.2056 0.00276159 22.7825 0.00276159C23.2212 0.00276159 23.661 -0.00469188 24.0997 0.00489114C24.6778 0.0176685 24.9855 0.30303 24.9877 0.872687C24.9962 2.92132 24.9962 4.96996 24.9877 7.01753C24.9855 7.54034 24.6448 7.89172 24.1955 7.88426C23.7419 7.87681 23.4331 7.53182 23.431 6.99517C23.4246 5.60137 23.4288 4.20758 23.4288 2.81378C23.3894 2.79568 23.3511 2.77545 23.3128 2.75628Z" fill="#2F3032"/>
</svg>
