<svg width="26" height="28" viewBox="0 0 26 28" fill="none" xmlns="http://www.w3.org/2000/svg">
<path d="M17.0319 23.7846C16.2625 26.1695 14.9968 27.2637 13.0578 27.2465C11.1736 27.2294 9.90916 26.1078 9.18774 23.7846C7.4728 23.7846 5.74528 23.7949 4.01776 23.7812C2.53605 23.7697 1.28986 22.7236 1.04519 21.3185C0.731931 19.5178 1.94725 17.9332 3.84512 17.7411C4.33788 17.6908 4.45221 17.5033 4.45107 17.0563C4.4465 15.2042 4.36647 13.3452 4.50138 11.5022C4.75976 7.95682 6.63476 5.50217 9.86915 4.06733C9.93317 4.03875 9.9972 4.01246 10.0601 3.98273C10.0909 3.96787 10.1184 3.94614 10.147 3.92671C10.2899 1.59324 11.3486 0.365343 13.1847 0.404216C14.9522 0.440801 15.9983 1.72243 16.0567 3.85697C16.8284 4.33029 17.6218 4.71787 18.2998 5.25064C20.6001 7.05705 21.7365 9.46254 21.7697 12.3837C21.7869 13.9214 21.788 15.4591 21.764 16.9969C21.756 17.4862 21.8726 17.692 22.4157 17.748C24.1089 17.9241 25.3425 19.3475 25.2259 20.8955C25.0967 22.6127 23.8162 23.7789 22.0452 23.7823C20.3703 23.7869 18.6954 23.7846 17.0319 23.7846ZM13.0521 22.0468C15.9332 22.0468 18.8131 22.0468 21.6942 22.0468C21.8863 22.0468 22.0795 22.0514 22.2705 22.0342C22.9896 21.9725 23.4789 21.4637 23.4892 20.7755C23.4984 20.1318 23.017 19.583 22.3505 19.4824C22.2305 19.4641 22.107 19.4664 21.9858 19.4527C20.7842 19.3109 20.0399 18.4843 20.0319 17.2655C20.0239 16.0079 20.041 14.7503 20.0262 13.4938C20.017 12.7095 20.033 11.9172 19.9233 11.1443C19.4214 7.62527 16.1744 4.93624 12.7708 5.17862C8.9728 5.44958 6.20946 8.36384 6.19002 12.1264C6.18202 13.7156 6.18888 15.3048 6.18888 16.894C6.18888 18.6066 5.61151 19.264 3.9263 19.4767C3.31349 19.5544 2.81844 20.0049 2.73841 20.5594C2.65267 21.1516 2.97622 21.7518 3.53644 21.9428C3.79368 22.0296 4.08407 22.0422 4.35961 22.0434C7.25557 22.0491 10.1538 22.0468 13.0521 22.0468ZM11.0433 23.8086C11.2331 24.8547 12.1535 25.559 13.2281 25.4995C14.2331 25.4435 15.0769 24.7015 15.1477 23.8086C13.7815 23.8086 12.4141 23.8086 11.0433 23.8086ZM14.3177 3.47282C14.336 2.89088 14.1108 2.48616 13.6214 2.26093C13.155 2.04599 12.6931 2.10201 12.3055 2.44728C11.9991 2.72053 11.8253 3.06238 11.9305 3.47282C12.7365 3.47282 13.498 3.47282 14.3177 3.47282Z" fill="#2F3032"/>
</svg>
