<svg width="60" height="60" viewBox="0 0 60 60" fill="none" xmlns="http://www.w3.org/2000/svg">
<circle cx="30" cy="30" r="30" fill="#0A82FD"/>
<path d="M29.9703 43.9959C27.4494 43.9959 24.9286 44.0078 22.4077 43.9919C20.2721 43.9799 19.0338 42.7656 19.0197 40.6347C18.9955 37.2735 18.9915 33.9123 19.0197 30.5511C19.0378 28.4521 20.3265 27.2158 22.4481 27.2118C27.4212 27.2019 32.3964 27.2039 37.3695 27.2118C39.604 27.2158 40.8564 28.4641 40.8644 30.6909C40.8745 33.9862 40.8786 37.2815 40.8644 40.5767C40.8544 42.7616 39.6242 43.9819 37.43 43.9939C34.9434 44.0059 32.4569 43.9959 29.9703 43.9959ZM27.5321 33.9722C27.6108 34.1699 27.6592 34.789 27.9919 35.0466C28.8954 35.7476 28.7542 36.6544 28.7563 37.567C28.7563 37.9984 28.6272 38.5057 28.8107 38.8412C29.0467 39.2706 29.5367 39.8358 29.9219 39.8398C30.3131 39.8438 30.8496 39.3026 31.0613 38.8752C31.261 38.4698 31.1319 37.9006 31.1319 37.4053C31.1319 36.5525 31.0936 35.7716 31.868 35.0706C32.6041 34.4036 32.4871 33.1354 31.8841 32.3086C31.2811 31.4817 30.2002 31.1262 29.2019 31.4258C28.2521 31.7114 27.5483 32.6621 27.5321 33.9722Z" fill="white"/>
<path d="M37.5315 26.2691C36.3356 26.2691 35.2466 26.2691 34.0345 26.2691C34.0345 25.4044 34.0446 24.5856 34.0325 23.7647C33.9982 21.3202 32.2397 19.4709 29.9467 19.4589C27.6497 19.4469 25.8851 21.2803 25.8448 23.7368C25.8306 24.5596 25.8427 25.3844 25.8427 26.2672C24.6448 26.2672 23.5558 26.2672 22.4729 26.2672C21.7126 21.3322 23.5054 17.6674 27.7546 16.3473C32.5603 14.8535 37.3984 18.3624 37.5274 23.3493C37.5516 24.304 37.5315 25.2606 37.5315 26.2691Z" fill="white"/>
</svg>
