<svg width="18" height="18" viewBox="0 0 18 18" fill="none" xmlns="http://www.w3.org/2000/svg">
<path d="M9 16.5C13.1421 16.5 16.5 13.1421 16.5 9C16.5 4.85786 13.1421 1.5 9 1.5C4.85786 1.5 1.5 4.85786 1.5 9C1.5 13.1421 4.85786 16.5 9 16.5Z" stroke="#A0AEC0" stroke-width="1.5" stroke-linecap="round" stroke-linejoin="round"/>
<path d="M6.91667 11.5C7.18823 11.7772 7.51237 11.9974 7.87011 12.1477C8.22784 12.298 8.61197 12.3755 9 12.3755C9.38803 12.3755 9.77216 12.298 10.1299 12.1477C10.4876 11.9974 10.8118 11.7772 11.0833 11.5M6.5 7.33337H6.50833H6.5ZM11.5 7.33337H11.5083H11.5Z" stroke="#A0AEC0" stroke-width="1.5" stroke-linecap="round" stroke-linejoin="round"/>
</svg>
