<svg width="10" height="11" viewBox="0 0 10 11" fill="none" xmlns="http://www.w3.org/2000/svg">
<path d="M0.879751 10.0038L3.16823 9.6766C3.49833 9.6294 3.80424 9.47629 4.04003 9.24027L8.45886 4.81712C8.45886 4.81712 7.36911 4.81712 6.27936 3.72631C5.18961 2.63549 5.18961 1.54468 5.18961 1.54468L0.770776 5.96783C0.534986 6.20385 0.382033 6.51005 0.334876 6.84048L0.00795056 9.13119C-0.0646994 9.64024 0.371201 10.0766 0.879751 10.0038Z" fill="#2F3032"/>
<path opacity="0.4" d="M9.54846 1.5446L8.45871 0.453784C7.85685 -0.148657 6.88106 -0.148657 6.27921 0.453784L5.18945 1.5446C5.18945 1.5446 5.18945 2.63542 6.2792 3.72623C7.36895 4.81705 8.4587 4.81705 8.4587 4.81705L9.54846 3.72623C10.1503 3.12379 10.1503 2.14704 9.54846 1.5446Z" fill="#2F3032"/>
</svg>
