<svg width="58" height="59" viewBox="0 0 58 59" fill="none" xmlns="http://www.w3.org/2000/svg">
<circle cx="27" cy="27.2373" r="23.625" fill="#028CB0"/>
<path d="M11.7004 29.1345C11.7004 35.9657 15.6879 41.8493 21.4544 44.646L13.2034 22.1199C12.2126 24.3267 11.7004 26.717 11.7004 29.1345ZM29 46.3729C31.0091 46.3729 32.9415 46.0214 34.7512 45.3948L34.6285 45.1656L29.3067 30.6474L24.123 45.6699C25.6566 46.1284 27.2976 46.3729 29 46.3729ZM31.3772 21.0502L37.6345 39.5876L39.3675 33.8414C40.1037 31.4574 40.6711 29.7458 40.6711 28.2634C40.6711 26.1239 39.9043 24.6568 39.2601 23.5259C38.3706 22.0894 37.5578 20.8821 37.5578 19.4761C37.5578 17.8868 38.754 16.4197 40.4717 16.4197H40.6864C37.4988 13.5037 33.3272 11.8889 29 11.8961C26.1348 11.8956 23.3145 12.6048 20.7927 13.96C18.2708 15.3151 16.1267 17.2737 14.553 19.6595L15.6572 19.6901C17.4669 19.6901 20.2582 19.4608 20.2582 19.4608C21.209 19.415 21.3164 20.7751 20.3809 20.8821C20.3809 20.8821 19.4453 21.0043 18.3871 21.0502L24.7058 39.7251L28.4939 28.4162L25.7947 21.0502C25.1901 21.0169 24.5866 20.966 23.985 20.8974C23.0494 20.8362 23.1568 19.415 24.0923 19.4608C24.0923 19.4608 26.9449 19.6901 28.6473 19.6901C30.457 19.6901 33.2482 19.4608 33.2482 19.4608C34.1838 19.415 34.3064 20.7751 33.3709 20.8821C33.3709 20.8821 32.4354 20.9891 31.3772 21.0502ZM37.6958 44.0347C40.3129 42.5184 42.4849 40.3442 43.9947 37.7295C45.5045 35.1148 46.2992 32.1511 46.2996 29.1345C46.2996 26.1392 45.5328 23.3272 44.1832 20.8668C44.4572 23.5737 44.046 26.3059 42.9869 28.8136L37.6958 44.0347ZM29 49.0014C23.7122 49.0014 18.6411 46.9083 14.9021 43.1825C11.1631 39.4568 9.0625 34.4035 9.0625 29.1345C9.0625 23.8655 11.1631 18.8122 14.9021 15.0865C18.6411 11.3607 23.7122 9.26758 29 9.26758C34.2878 9.26758 39.3589 11.3607 43.0979 15.0865C46.8369 18.8122 48.9375 23.8655 48.9375 29.1345C48.9375 34.4035 46.8369 39.4568 43.0979 43.1825C39.3589 46.9083 34.2878 49.0014 29 49.0014Z" fill="white"/>
</svg>
