<svg width="44" height="44" viewBox="0 0 44 44" fill="none" xmlns="http://www.w3.org/2000/svg">
<path fill-rule="evenodd" clip-rule="evenodd" d="M38.3367 0.57959H5.69095C2.686 0.57959 0.25 3.00542 0.25 5.99784V38.5074C0.25 41.4998 2.686 43.9256 5.69095 43.9256H38.3367C41.3308 43.9105 43.75 41.4891 43.75 38.5074V5.99784C43.75 3.01613 41.3308 0.594725 38.3367 0.57959ZM9.3125 5.99784H16.5625C18.5645 5.99784 20.1875 7.61507 20.1875 9.61001V34.8952C20.1875 36.8901 18.5645 38.5074 16.5625 38.5074H9.3125C7.31047 38.5074 5.6875 36.8901 5.6875 34.8952V9.61001C5.6875 7.61507 7.31047 5.99784 9.3125 5.99784ZM34.6875 5.99784H27.4375C25.4355 5.99784 23.8125 7.61507 23.8125 9.61001V22.2526C23.8125 24.2475 25.4355 25.8648 27.4375 25.8648H34.6875C36.6895 25.8648 38.3125 24.2475 38.3125 22.2526V9.61001C38.3125 7.61507 36.6895 5.99784 34.6875 5.99784Z" fill="url(#paint0_linear_1574_702)"/>
<defs>
<linearGradient id="paint0_linear_1574_702" x1="22.0138" y1="43.9256" x2="22.0138" y2="0.57959" gradientUnits="userSpaceOnUse">
<stop stop-color="#0052CC"/>
<stop offset="0.51698" stop-color="#217EF8"/>
<stop offset="1" stop-color="#2684FF"/>
</linearGradient>
</defs>
</svg>
