<svg width="58" height="59" viewBox="0 0 58 59" fill="none" xmlns="http://www.w3.org/2000/svg">
<path d="M29 3.96777C15.0041 3.96777 3.625 15.3066 3.625 29.253C3.625 43.1993 15.0041 54.5381 29 54.5381C42.9959 54.5381 54.375 43.1993 54.375 29.253C54.375 15.3066 42.9959 3.96777 29 3.96777Z" fill="#FDDD4C"/>
<path d="M17.8873 35.8452C17.3324 35.0081 18.7279 33.7413 18.1603 32.6776C17.8331 32.0641 17.2983 31.6819 16.656 31.6016C16.0396 31.5245 15.4045 31.7494 14.9998 32.1889C14.3607 32.8818 14.2613 33.8251 14.3849 34.1589C14.4302 34.2812 14.5013 34.3146 14.5522 34.3218C14.9002 34.3674 15.0961 33.4772 15.2163 33.2919C15.5485 32.7808 16.303 32.6262 16.8241 32.9621C17.812 33.5988 16.9553 34.6279 17.0293 35.4971C17.1012 36.3434 17.6304 36.6835 18.1054 36.7193C18.5675 36.7368 18.8907 36.4809 18.9723 36.2942C19.168 35.8483 18.3438 36.5339 17.8873 35.8452Z" fill="black"/>
<path d="M38.5296 28.1615C38.2705 28.1258 37.9872 28.1266 37.6926 28.1615C37.4688 27.8802 37.2684 27.4248 37.1553 26.8932C36.9541 25.9475 36.9751 25.2625 37.5367 25.1735C38.0982 25.0845 38.3696 25.6567 38.5708 26.6024C38.7057 27.2381 38.6799 27.8222 38.5296 28.1615Z" fill="black"/>
<path d="M32.3796 28.7241C32.4018 28.9383 32.4097 29.155 32.4034 29.3545C32.9467 29.3862 33.3315 29.6434 33.434 29.8065C33.4865 29.8908 33.4655 29.9456 33.4485 29.971C33.3923 30.0582 33.2718 30.0447 33.0193 30.0165C32.7987 29.9918 32.5612 29.9702 32.3144 29.9815C32.1801 30.3919 31.7818 30.4303 31.502 30.1268C31.3065 30.1861 30.9226 30.4304 30.8082 30.1649C30.8072 30.0332 30.9455 29.8417 31.1958 29.6726C31.0249 29.3477 30.9104 28.9999 30.8427 28.6398C30.4878 28.7035 30.1685 28.8026 29.9182 28.8803C29.8007 28.9167 29.3358 29.126 29.2813 28.8902C29.2449 28.7272 29.4994 28.4586 29.7685 28.2647C30.0691 28.0521 30.4026 27.9009 30.7483 27.8137C30.7409 27.3007 30.8722 26.9429 31.2462 26.8837C31.7099 26.8102 31.9973 27.1659 32.1962 27.8247C32.7566 27.9798 33.3162 28.3645 33.5633 28.7622C33.6594 28.9164 33.678 29.0356 33.6158 29.0984C33.4604 29.2588 32.6 28.7938 32.3796 28.7241Z" fill="black"/>
<path d="M36.0646 31.0295C36.4201 31.2011 36.8111 31.1336 36.9388 30.8785C37.0664 30.6234 36.8814 30.2777 36.5259 30.1061C36.1704 29.9344 35.7794 30.002 35.6518 30.257C35.5241 30.5121 35.7091 30.8578 36.0646 31.0295Z" fill="black"/>
<path d="M37.8145 29.7627C37.821 29.3726 38.0609 29.061 38.3493 29.0658C38.6378 29.0714 38.8664 29.3908 38.8599 29.7802C38.8535 30.1696 38.6135 30.4811 38.3251 30.4764C38.0367 30.4716 37.808 30.1521 37.8145 29.7627Z" fill="black"/>
<path fill-rule="evenodd" clip-rule="evenodd" d="M45.636 34.5411C45.6417 34.561 45.6336 34.533 45.636 34.5411C46.2153 34.5411 47.125 35.196 47.125 36.7782C47.125 38.3524 46.4609 40.1357 46.3042 40.5314C43.9119 46.1704 38.2023 49.3094 31.4013 49.1107C25.0607 48.9255 19.6533 45.6348 17.2869 40.27C15.8561 40.2715 14.3809 39.6525 13.2595 38.675C12.0775 37.6451 11.3487 36.3125 11.2065 34.9226C11.0959 33.8402 11.2308 32.8334 11.5758 31.9553L10.2467 30.8475C4.16472 25.7966 23.1872 4.99993 29.2708 10.2194C29.3015 10.2456 31.3407 12.2132 31.3455 12.218C34.2789 10.9929 42.1386 8.66042 42.1474 14.0902C42.1506 15.8933 40.9824 17.996 39.1104 19.904C41.2738 21.8774 40.7033 24.6805 41.0478 27.2524L41.7992 27.4574C43.2316 27.8524 44.2504 28.3792 44.7489 28.8942C45.2474 29.4083 45.4946 29.9066 45.5843 30.4907C45.6683 30.9619 45.657 31.794 45.0252 32.7245C45.2527 33.3248 45.4604 33.9233 45.636 34.5411ZM17.1795 38.807C17.392 38.8117 17.6028 38.7982 17.8097 38.7632C20.0322 38.3905 20.6139 36.0161 20.248 33.6845C19.8343 31.0517 18.0238 30.1236 16.7949 30.0576C16.4532 30.0401 16.1357 30.0703 15.8739 30.122C13.6804 30.5567 12.4418 32.3924 12.6858 34.7764C12.9064 36.9339 15.1249 38.7529 17.1795 38.807ZM12.2116 30.7688C12.9476 29.7175 14.1506 28.957 15.516 28.6955C17.2538 24.1071 20.1559 19.8794 23.9967 16.9701C26.847 14.6314 29.9212 12.9538 29.9212 12.9538C29.9212 12.9538 28.2657 11.0657 27.7656 10.9266C24.6899 10.1097 18.0472 14.6155 13.8056 20.5692C12.0896 22.9778 9.63271 27.2437 10.8074 29.4378C10.952 29.7095 11.7721 30.408 12.2116 30.7688ZM37.148 37.7532C37.1529 37.8025 37.1222 37.8534 37.0777 37.8716C37.0777 37.8716 34.6063 39.0024 30.6806 37.8081C30.8218 38.9806 32.2488 39.425 33.2458 39.5857C38.1102 40.409 42.658 37.673 43.6816 36.984C43.8574 36.8657 43.6795 37.1698 43.6477 37.2144C42.3946 38.8046 39.0256 40.6458 34.6427 40.645C32.7311 40.6442 30.8204 39.9823 30.1191 38.9643C29.0308 37.3853 30.065 35.0799 31.8788 35.3199C34.9446 35.6604 38.0877 35.4046 40.9258 34.1088C43.4005 32.9788 44.3353 31.7359 44.1947 30.7291C43.9767 29.1687 41.655 28.9247 40.4815 28.5453C39.9709 28.3792 39.7188 28.2465 39.6614 27.3017C39.6364 26.8892 39.5637 25.4501 39.537 24.8549C39.4902 23.813 39.3625 22.3882 38.4641 21.8001C38.2298 21.6468 37.9697 21.5729 37.6958 21.5586C37.4774 21.5482 37.3479 21.5781 37.2783 21.5941C37.2627 21.5977 37.25 21.6007 37.2401 21.6023C36.755 21.6834 36.4577 21.928 36.1072 22.2164C36.087 22.233 36.0666 22.2497 36.046 22.2666C34.9254 23.1853 33.9794 23.3354 32.9266 23.2909C32.5988 23.2773 32.2609 23.2447 31.9044 23.2102C31.5766 23.1786 31.233 23.1454 30.8672 23.1241L30.4205 23.0986C28.6576 23.0096 26.7671 24.5068 26.4528 26.6333C26.1017 29.007 27.4331 30.4609 28.299 31.4064C28.513 31.6401 28.6985 31.8427 28.8232 32.0204C28.9032 32.1277 28.9961 32.2787 28.9961 32.4225C28.9961 32.5942 28.883 32.7301 28.7723 32.8461C26.9739 34.6651 26.3986 37.5553 27.0765 39.964C27.1613 40.2644 27.2688 40.5521 27.3956 40.827C28.9856 44.4817 33.9188 46.1839 38.7372 44.6359C42.1142 43.5509 45.0979 40.929 45.7055 37.3122C45.8501 36.3697 45.6376 36.0057 45.3484 35.8301C45.0422 35.645 44.6754 35.7093 44.6754 35.7093C44.6754 35.7093 44.5082 34.5833 44.0347 33.5597C42.6297 34.65 40.8216 35.4161 39.4449 35.8047C37.2392 36.4271 34.8566 36.6694 32.5773 36.3759C31.6529 36.2569 31.0317 36.1769 30.7655 37.0277C33.8057 38.1227 37.0236 37.6539 37.0236 37.6539C37.0858 37.6475 37.1415 37.692 37.148 37.7532ZM28.3764 16.5028C26.7137 17.3396 24.8571 18.8296 23.3496 20.5438C23.2962 20.605 23.3754 20.6892 23.4409 20.6423C24.7432 19.7101 26.5287 18.844 28.8676 18.2829C31.4877 17.6543 34.0101 17.9182 35.5508 18.2654C35.6283 18.2829 35.6768 18.1518 35.6081 18.1136C34.5901 17.5518 33.0276 17.1704 31.9192 17.1624C31.865 17.1616 31.8343 17.0996 31.8666 17.0567C32.0581 16.8032 32.3207 16.5529 32.5606 16.3717C32.614 16.3304 32.5817 16.2454 32.5138 16.2493C31.1349 16.3326 27.9854 17.7636 27.9967 17.7115C28.0775 17.3301 28.332 16.8263 28.4637 16.591C28.4952 16.5354 28.4338 16.4742 28.3764 16.5028Z" fill="black"/>
</svg>
