<svg width="48" height="54" viewBox="0 0 48 54" fill="none" xmlns="http://www.w3.org/2000/svg">
<path d="M16.2063 27.9915C11.9243 27.9915 8.46492 31.4509 8.5282 35.6907C8.57039 38.4118 10.068 40.7743 12.2723 42.0927C11.5235 40.9431 11.0805 39.5825 11.0594 38.1165C10.9962 33.8767 14.4555 30.4173 18.7376 30.4173C19.5813 30.4173 20.3934 30.5544 21.1528 30.797V22.3067C20.3618 22.1907 19.5497 22.1274 18.7376 22.1274C18.6954 22.1274 18.6637 22.1274 18.6216 22.1274V28.3712C17.8622 28.1286 17.0501 27.9915 16.2063 27.9915Z" fill="#F00044"/>
<path d="M34.716 2.53125H34.6527H32.459C33.0918 5.70586 34.8742 8.46914 37.3633 10.3465C35.7285 8.18437 34.7371 5.48438 34.716 2.53125Z" fill="#F00044"/>
<path d="M47.6246 15.4513C46.7914 15.4513 45.9898 15.3669 45.1988 15.2192V21.3048C42.3301 21.3048 39.5457 20.7458 36.9301 19.6278C35.2426 18.9106 33.6711 17.9931 32.2262 16.8856L32.2684 35.6485C32.2473 39.8673 30.5809 43.8224 27.5645 46.8071C25.107 49.2329 21.9957 50.7833 18.6207 51.279C17.8297 51.395 17.0176 51.4583 16.2055 51.4583C12.5984 51.4583 9.16016 50.2876 6.36523 48.1255C6.68164 48.5052 7.01914 48.8743 7.38828 49.2329C10.4258 52.2282 14.4547 53.8841 18.7473 53.8841C19.5594 53.8841 20.3715 53.8208 21.1625 53.7048C24.5375 53.2091 27.6488 51.6587 30.1062 49.2329C33.1227 46.2481 34.7891 42.2931 34.8102 38.0743L34.652 19.3114C36.0863 20.4188 37.6578 21.347 39.3559 22.0536C41.982 23.161 44.7664 23.7306 47.6246 23.7306" fill="#F00044"/>
<path d="M7.35669 26.7997C10.3625 23.8149 14.3598 22.1591 18.6208 22.1274V19.881C17.8297 19.7649 17.0176 19.7017 16.2055 19.7017C11.9024 19.7017 7.86294 21.3575 4.82544 24.3739C1.84067 27.3376 0.13208 31.3876 0.142627 35.5958C0.142627 39.8356 1.81958 43.8118 4.84653 46.8177C5.33169 47.2923 5.82739 47.7353 6.35474 48.136C3.97114 45.2989 2.67388 41.7552 2.66333 38.0216C2.67388 33.8134 4.37192 29.7634 7.35669 26.7997Z" fill="#08FFF9"/>
<path d="M45.1988 15.2193V12.9623H45.1777C42.2457 12.9623 39.5457 11.992 37.373 10.3467C39.2609 12.8357 42.0242 14.6076 45.1988 15.2193Z" fill="#08FFF9"/>
<path d="M18.3043 45.5836C19.3062 45.6363 20.266 45.4992 21.152 45.2145C24.2105 44.2125 26.4148 41.3648 26.4148 38.0109L26.4254 25.4602V2.53125H32.4582C32.3 1.74023 32.2156 0.938672 32.2051 0.105469H23.8941V23.0238L23.8836 35.5746C23.8836 38.9285 21.6793 41.7762 18.6207 42.7781C17.7348 43.0734 16.775 43.2105 15.773 43.1473C14.4969 43.0734 13.3051 42.6937 12.2715 42.082C13.5688 44.0859 15.7836 45.4465 18.3043 45.5836Z" fill="#08FFF9"/>
<path d="M18.6208 51.2789C21.9958 50.7832 25.1071 49.2328 27.5645 46.807C30.5809 43.8223 32.2473 39.8672 32.2684 35.6484L32.2262 16.8855C33.6606 17.993 35.2321 18.9211 36.9301 19.6277C39.5563 20.7352 42.3407 21.3047 45.1989 21.3047V15.2191C42.0243 14.6074 39.261 12.8355 37.3731 10.3465C34.884 8.46914 33.0911 5.70586 32.4688 2.53125H26.4254V25.4496L26.4149 38.0004C26.4149 41.3543 24.2106 44.202 21.152 45.2039C20.2661 45.4992 19.3063 45.6363 18.3043 45.573C15.7731 45.4359 13.5688 44.0754 12.2715 42.082C10.0672 40.7742 8.56958 38.4012 8.52739 35.6801C8.46411 31.4402 11.9235 27.9809 16.2055 27.9809C17.0493 27.9809 17.8614 28.118 18.6208 28.3605V22.1168C14.3598 22.1484 10.3625 23.8043 7.35669 26.7891C4.37192 29.7527 2.66333 33.8027 2.67388 38.0004C2.67388 41.734 3.97114 45.2777 6.36528 48.1148C9.17075 50.277 12.5985 51.4477 16.2055 51.4477C17.0176 51.4582 17.8297 51.3949 18.6208 51.2789Z" fill="black"/>
</svg>
