<svg width="40" height="34" viewBox="0 0 40 34" fill="none" xmlns="http://www.w3.org/2000/svg">
<path d="M0.0625 30.7881C0.0625 32.225 1.24059 33.3888 2.69209 33.3888H2.72989C1.25616 33.3888 0.0625 32.225 0.0625 30.7881Z" fill="#FBBC05"/>
<path d="M22.6585 10.6327V17.4228L31.8455 10.0389V3.48063C31.8455 2.04372 30.6674 0.879883 29.2159 0.879883H9.31271L9.29492 10.6327H22.6585Z" fill="#FBBC05"/>
<path d="M22.6612 24.2159H9.27533L9.25977 33.39H29.2185C30.6722 33.39 31.8481 32.2262 31.8481 30.7893V24.8683L22.6612 17.4258V24.2159V24.2159Z" fill="#34A853"/>
<path d="M9.31389 0.879883L0.0625 10.6327H9.29833L9.31389 0.879883Z" fill="#EA4335"/>
<path d="M0.0625 24.2148V30.7882C0.0625 32.2251 1.25616 33.389 2.72989 33.389H9.25832L9.27389 24.2148H0.0625V24.2148Z" fill="#1967D2"/>
<path d="M9.29833 10.6328H0.0625V24.2152H9.27388L9.29833 10.6328Z" fill="#4285F4"/>
<path d="M39.9251 28.4766V6.15349C39.4072 3.1908 36.1463 6.58695 36.1463 6.58695L31.8496 10.0394V24.8659L38.0002 29.8485C40.2208 30.1389 39.9251 28.4766 39.9251 28.4766Z" fill="#34A853"/>
<path d="M22.6602 17.4228L31.8493 24.8675V10.041L22.6602 17.4228Z" fill="#188038"/>
</svg>
