<svg width="58" height="59" viewBox="0 0 58 59" fill="none" xmlns="http://www.w3.org/2000/svg">
<rect x="13.5" y="3.73047" width="40.5" height="47.25" rx="3.375" fill="#2FB776"/>
<path d="M13.5 39.168H54V47.6055C54 49.4694 52.489 50.9805 50.625 50.9805H16.875C15.011 50.9805 13.5 49.4694 13.5 47.6055V39.168Z" fill="url(#paint0_linear_1385_30536)"/>
<rect x="33.75" y="27.3555" width="20.25" height="11.8125" fill="#229C5B"/>
<rect x="33.75" y="15.543" width="20.25" height="11.8125" fill="#27AE68"/>
<path d="M13.5 7.10547C13.5 5.24151 15.011 3.73047 16.875 3.73047H33.75V15.543H13.5V7.10547Z" fill="#1D854F"/>
<rect x="13.5" y="15.543" width="20.25" height="11.8125" fill="#197B43"/>
<rect x="13.5" y="27.3555" width="20.25" height="11.8125" fill="#1B5B38"/>
<path d="M13.5 20.6055C13.5 17.8095 15.7666 15.543 18.5625 15.543H28.6875C31.4834 15.543 33.75 17.8095 33.75 20.6055V40.8555C33.75 43.6514 31.4834 45.918 28.6875 45.918H13.5V20.6055Z" fill="black" fill-opacity="0.3"/>
<rect y="12.168" width="30.375" height="30.375" rx="3.375" fill="url(#paint1_linear_1385_30536)"/>
<path d="M21.9375 35.793L17.1823 27.1867L21.7287 18.918H18.0174L15.2107 24.1974L12.4504 18.918H8.62307L13.1927 27.1867L8.4375 35.793H12.1488L15.1411 30.2001L18.1102 35.793H21.9375Z" fill="white"/>
<defs>
<linearGradient id="paint0_linear_1385_30536" x1="13.5" y1="45.0742" x2="54" y2="45.0742" gradientUnits="userSpaceOnUse">
<stop stop-color="#163C27"/>
<stop offset="1" stop-color="#2A6043"/>
</linearGradient>
<linearGradient id="paint1_linear_1385_30536" x1="0" y1="27.3555" x2="30.375" y2="27.3555" gradientUnits="userSpaceOnUse">
<stop stop-color="#185A30"/>
<stop offset="1" stop-color="#176F3D"/>
</linearGradient>
</defs>
</svg>
