<svg width="44" height="40" viewBox="0 0 44 40" fill="none" xmlns="http://www.w3.org/2000/svg">
<path d="M29.9409 0.666504C24.8566 0.666504 20.735 4.99442 20.735 10.3332C20.735 11.1399 20.8291 11.9236 21.0064 12.6727C16.1177 12.6727 8.7542 11.6843 2.60451 5.52305C1.78675 4.70376 0.278818 5.25154 0.33554 6.40772C1.24693 24.9846 9.2028 30.4034 13.2999 30.7406C10.6542 33.3536 6.81111 35.4161 2.94393 36.3418C1.92331 36.5861 1.67118 37.7034 2.66918 38.028C5.43633 38.928 9.39709 39.2747 11.529 39.3332C26.6111 39.3332 38.8694 26.6388 39.1423 10.8704C41.1224 9.58267 42.3908 6.78671 43.1034 4.80603C43.277 4.32365 42.4864 3.7616 42.0131 3.95863C40.534 4.57444 38.656 4.72043 37.0564 4.1992C35.368 2.04223 32.8075 0.666504 29.9409 0.666504Z" fill="#03A9F4"/>
</svg>
