<svg width="48" height="49" viewBox="0 0 48 49" fill="none" xmlns="http://www.w3.org/2000/svg">
<path d="M43.4009 22.3559C45.9407 22.3559 47.9995 20.297 47.9995 17.7572C47.9995 15.2175 45.9323 13.1586 43.3925 13.1586C40.8435 13.1586 38.7688 15.225 38.7688 17.774V22.3559H43.4009ZM30.4611 22.3559C33.0101 22.3559 35.0765 20.2895 35.0765 17.7405V4.89664C35.0765 2.34763 33.0101 0.28125 30.4611 0.28125C27.9121 0.28125 25.8457 2.34763 25.8457 4.89664V17.7405C25.8457 20.2895 27.9121 22.3559 30.4611 22.3559Z" fill="#2EB67D"/>
<path d="M4.5991 26.0367C2.05933 26.0367 0.000450134 28.0956 0.000450134 30.6353C0.000450134 33.1751 2.06769 35.234 4.60745 35.234C7.15646 35.234 9.23122 33.1676 9.23122 30.6186V26.0367H4.5991ZM17.5389 26.0367C14.9899 26.0367 12.9235 28.1031 12.9235 30.6521V43.4959C12.9235 46.045 14.9899 48.1113 17.5389 48.1113C20.0879 48.1113 22.1543 46.0449 22.1543 43.4959V30.6521C22.1543 28.1031 20.0879 26.0367 17.5389 26.0367Z" fill="#E01E5A"/>
<path d="M25.8469 43.4966C25.8469 46.0454 27.9211 48.1116 30.4699 48.1116C33.0099 48.1116 35.0769 46.0525 35.0769 43.5125C35.0769 40.9725 33.0179 38.9135 30.4779 38.9135L25.8469 38.9135L25.8469 43.4966ZM25.8469 30.6352C25.8469 33.1752 27.906 35.2342 30.446 35.2342L43.401 35.2342C45.9409 35.2342 48 33.1752 48 30.6352C48 28.0952 45.9409 26.0361 43.401 26.0361L30.446 26.0361C27.906 26.0361 25.8469 28.0952 25.8469 30.6352Z" fill="#ECB22E"/>
<path d="M22.1531 4.89601C22.1531 2.34722 20.0789 0.281022 17.5301 0.281022C14.9901 0.281022 12.9231 2.34009 12.9231 4.88007C12.9231 7.42005 14.9821 9.47911 17.5221 9.47911L22.1531 9.47911L22.1531 4.89601ZM22.1531 17.7574C22.1531 15.2174 20.094 13.1584 17.554 13.1584L4.59904 13.1584C2.05906 13.1584 3.13165e-07 15.2174 2.01745e-07 17.7574C9.03243e-08 20.2974 2.05906 22.3564 4.59905 22.3564L17.554 22.3564C20.094 22.3564 22.1531 20.2974 22.1531 17.7574Z" fill="#36C5F0"/>
</svg>
