<svg width="58" height="59" viewBox="0 0 58 59" fill="none" xmlns="http://www.w3.org/2000/svg">
<path d="M29 3.96777C15.0041 3.96777 3.625 15.3066 3.625 29.253C3.625 43.1993 15.0041 54.5381 29 54.5381C42.9959 54.5381 54.375 43.1993 54.375 29.253C54.375 15.3066 42.9959 3.96777 29 3.96777Z" fill="#F48024"/>
<path d="M35.4176 33.5203L21.9466 31.58L22.4135 28.64L35.5865 31.1643L35.4176 33.5203Z" fill="white"/>
<path d="M35.656 30.3922L23.7348 24.8486L24.8276 22.4728L36.7488 28.0163L35.656 30.3922Z" fill="white"/>
<path d="M37.2455 27.4224L27.1125 19.0081L28.8013 17.0282L38.9344 25.4426L37.2455 27.4224Z" fill="white"/>
<path d="M31.4836 14.4545L33.5698 12.8706L41.418 23.3637L39.3317 24.9476L31.4836 14.4545Z" fill="white"/>
<path d="M35.4573 37.4206H21.5493V34.4508H35.4573V37.4206Z" fill="white"/>
<path d="M37.4442 31.4809V39.4002H19.5623V31.4809H16.582V42.37H40.4245V31.4809H37.4442Z" fill="white"/>
</svg>
