<svg width="16" height="16" viewBox="0 0 16 16" fill="none" xmlns="http://www.w3.org/2000/svg">
<path d="M6.33398 9.66665C6.60555 9.94382 6.92969 10.164 7.28742 10.3143C7.64516 10.4647 8.02929 10.5421 8.41732 10.5421C8.80535 10.5421 9.18948 10.4647 9.54721 10.3143C9.90494 10.164 10.2291 9.94382 10.5007 9.66665L13.834 6.33332C14.3865 5.78079 14.6969 5.03139 14.6969 4.24999C14.6969 3.46859 14.3865 2.71919 13.834 2.16666C13.2814 1.61412 12.5321 1.30371 11.7507 1.30371C10.9692 1.30371 10.2199 1.61412 9.66732 2.16666L9.25065 2.58332" stroke="#A0AEC0" stroke-width="1.5" stroke-linecap="round" stroke-linejoin="round"/>
<path d="M9.66763 6.33331C9.39607 6.05615 9.07192 5.83595 8.71419 5.68563C8.35646 5.53531 7.97233 5.45789 7.5843 5.45789C7.19627 5.45789 6.81214 5.53531 6.4544 5.68563C6.09667 5.83595 5.77253 6.05615 5.50097 6.33331L2.16763 9.66664C1.6151 10.2192 1.30469 10.9686 1.30469 11.75C1.30469 12.5314 1.6151 13.2808 2.16763 13.8333C2.72017 14.3858 3.46956 14.6963 4.25097 14.6963C5.03237 14.6963 5.78176 14.3858 6.3343 13.8333L6.75096 13.4166" stroke="#A0AEC0" stroke-width="1.5" stroke-linecap="round" stroke-linejoin="round"/>
</svg>
