<svg width="24" height="24" viewBox="0 0 24 24" fill="none" xmlns="http://www.w3.org/2000/svg">
<path d="M19.9102 10.448C19.9102 16.4935 11.9102 21.6753 11.9102 21.6753C11.9102 21.6753 3.91016 16.4935 3.91016 10.448C3.91016 8.38656 4.75301 6.40954 6.2533 4.95187C7.75359 3.4942 9.78842 2.67529 11.9102 2.67529C14.0319 2.67529 16.0667 3.4942 17.567 4.95187C19.0673 6.40954 19.9102 8.38656 19.9102 10.448Z" stroke="#94A3B8" stroke-width="1.5" stroke-linecap="round" stroke-linejoin="round"/>
<path d="M12 12.6753C13.3807 12.6753 14.5 11.556 14.5 10.1753C14.5 8.79458 13.3807 7.67529 12 7.67529C10.6193 7.67529 9.5 8.79458 9.5 10.1753C9.5 11.556 10.6193 12.6753 12 12.6753Z" stroke="#94A3B8" stroke-width="1.5" stroke-linecap="round" stroke-linejoin="round"/>
</svg>
