<svg width="28" height="21" viewBox="0 0 28 21" fill="none" xmlns="http://www.w3.org/2000/svg">
<path d="M13.5935 2.78233C9.61787 2.78233 5.64343 2.78233 1.66784 2.78233C1.50683 2.78233 1.34582 2.78808 1.18597 2.78003C0.571866 2.75243 0.162465 2.37292 0.154415 1.82897C0.146365 1.28041 0.550016 0.884808 1.15722 0.851458C1.29752 0.843408 1.43783 0.849158 1.57928 0.849158C9.63052 0.849158 17.6806 0.849158 25.7318 0.849158C26.699 0.849158 27.1659 1.17231 27.1544 1.83127C27.1441 2.47183 26.6898 2.78118 25.7594 2.78118C21.7045 2.78233 17.6496 2.78233 13.5935 2.78233Z" fill="#2F3032"/>
<path d="M11.6625 11.4672C8.28956 11.4672 4.91771 11.4672 1.54472 11.4672C1.38372 11.4672 1.22273 11.4764 1.06288 11.4603C0.535021 11.4074 0.161264 11.0107 0.154364 10.5116C0.148613 10.009 0.515476 9.6019 1.03988 9.54325C1.19858 9.52485 1.36073 9.5352 1.52173 9.5352C8.32635 9.5352 15.1321 9.5352 21.9368 9.5352C22.1173 9.5352 22.3036 9.51565 22.4773 9.55245C22.9925 9.66055 23.2961 9.98716 23.2903 10.5196C23.2846 11.0245 22.9844 11.3373 22.5003 11.4454C22.3082 11.4879 22.1012 11.4661 21.9 11.4661C18.4879 11.4672 15.0746 11.4672 11.6625 11.4672Z" fill="#2F3032"/>
<path d="M7.32358 20.151C5.33751 20.151 3.35144 20.1533 1.36422 20.1499C0.602913 20.1487 0.162456 19.7957 0.154406 19.1965C0.146356 18.5905 0.585665 18.2202 1.33777 18.219C5.37087 18.2167 9.40396 18.2167 13.4359 18.219C14.1823 18.219 14.6262 18.5974 14.6158 19.2011C14.6055 19.8003 14.1662 20.1487 13.4014 20.1499C11.3774 20.1533 9.3499 20.151 7.32358 20.151Z" fill="#2F3032"/>
</svg>
