<svg width="28" height="21" viewBox="0 0 28 21" fill="none" xmlns="http://www.w3.org/2000/svg">
<path d="M13.7614 20.7897C10.1829 20.7897 6.60322 20.7942 3.02471 20.7874C1.6427 20.7851 0.708139 20.0873 0.462322 18.8911C0.413611 18.6555 0.41021 18.4074 0.41021 18.165C0.407945 13.1252 0.405685 8.08535 0.409083 3.04553C0.410216 1.40637 1.34704 0.448027 2.99299 0.445762C10.1681 0.436699 17.3433 0.436699 24.5195 0.445762C26.187 0.448027 27.1091 1.40864 27.1103 3.09198C27.1125 8.1148 27.1125 13.1376 27.1103 18.1593C27.1091 19.8313 26.1757 20.7817 24.4992 20.7863C20.9195 20.7965 17.341 20.7897 13.7614 20.7897ZM3.41892 2.04301C6.82977 5.54448 10.2905 9.09807 13.6583 12.5554C17.213 9.00178 20.7043 5.5105 24.1729 2.04301C17.2617 2.04301 10.2689 2.04301 3.41892 2.04301ZM10.7878 11.7658C8.24351 14.3101 5.78647 16.7682 3.38041 19.1743C10.2656 19.1743 17.2651 19.1743 24.2307 19.1743C21.7759 16.7195 19.3279 14.2716 16.8516 11.7941C16.1085 12.544 15.3292 13.3359 14.543 14.1209C14.0015 14.6612 13.6186 14.6658 13.0806 14.122C12.2853 13.3211 11.506 12.5055 10.7878 11.7658ZM2.00859 3.14975C2.00859 8.17484 2.00859 13.0765 2.00859 17.9192C4.4679 15.4587 6.93853 12.9858 9.29814 10.6251C6.917 8.18277 4.49622 5.70081 2.00859 3.14975ZM18.2246 10.5764C20.6612 13.0142 23.1092 15.461 25.5107 17.8637C25.5107 13.0595 25.5107 8.15785 25.5107 3.29022C23.0605 5.74046 20.6103 8.1907 18.2246 10.5764Z" fill="#2F3032"/>
</svg>
