<svg width="32" height="31" viewBox="0 0 32 31" fill="none" xmlns="http://www.w3.org/2000/svg">
<path fill-rule="evenodd" clip-rule="evenodd" d="M11.845 0.423828C10.1166 0.425043 8.71773 1.75869 8.719 3.40206C8.71773 5.04544 10.1178 6.37909 11.8463 6.3803H14.9736V3.40328C14.9748 1.7599 13.5747 0.426257 11.845 0.423828C11.8463 0.423828 11.8463 0.423828 11.845 0.423828V0.423828ZM11.845 8.36741H3.50814C1.77971 8.36863 0.379585 9.70227 0.380863 11.3456C0.378308 12.989 1.77843 14.3227 3.50687 14.3251H11.845C13.5734 14.3239 14.9736 12.9902 14.9723 11.3469C14.9736 9.70227 13.5734 8.36863 11.845 8.36741Z" fill="#36C5F0"/>
<path fill-rule="evenodd" clip-rule="evenodd" d="M31.6481 11.3456C31.6494 9.70227 30.2492 8.36863 28.5208 8.36741C26.7924 8.36863 25.3922 9.70227 25.3935 11.3456V14.3251H28.5208C30.2492 14.3239 31.6494 12.9902 31.6481 11.3456ZM23.3099 11.3456V3.40206C23.3112 1.7599 21.9124 0.426257 20.1839 0.423828C18.4555 0.425043 17.0554 1.75869 17.0566 3.40206V11.3456C17.0541 12.989 18.4542 14.3227 20.1826 14.3251C21.9111 14.3239 23.3112 12.9902 23.3099 11.3456Z" fill="#2EB67D"/>
<path fill-rule="evenodd" clip-rule="evenodd" d="M20.1839 30.2111C21.9124 30.2099 23.3125 28.8763 23.3112 27.2329C23.3125 25.5895 21.9124 24.2559 20.1839 24.2546H17.0566V27.2329C17.0554 28.8751 18.4555 30.2087 20.1839 30.2111ZM20.1839 22.2663H28.5221C30.2505 22.2651 31.6506 20.9314 31.6493 19.2881C31.6519 17.6447 30.2518 16.311 28.5233 16.3086H20.1852C18.4568 16.3098 17.0566 17.6435 17.0579 19.2868C17.0566 20.9314 18.4555 22.2651 20.1839 22.2663Z" fill="#ECB22E"/>
<path fill-rule="evenodd" clip-rule="evenodd" d="M0.38086 19.2898C0.379583 20.9332 1.77971 22.2668 3.50814 22.268C5.23658 22.2668 6.6367 20.9332 6.63543 19.2898V16.3115H3.50814C1.77971 16.3127 0.379583 17.6464 0.38086 19.2898ZM8.719 19.2898V27.2334C8.71645 28.8768 10.1166 30.2104 11.845 30.2129C13.5734 30.2116 14.9736 28.878 14.9723 27.2346V19.2922C14.9748 17.6488 13.5747 16.3152 11.8463 16.3127C10.1166 16.3127 8.71773 17.6464 8.719 19.2898C8.719 19.291 8.719 19.2898 8.719 19.2898Z" fill="#E01E5A"/>
</svg>
