<svg width="29" height="35" viewBox="0 0 29 35" fill="none" xmlns="http://www.w3.org/2000/svg">
<path d="M9.37801 26.2283C9.37801 26.2283 7.94418 27.0621 10.3985 27.3442C13.3719 27.6834 14.8914 27.6348 18.1681 27.0146C18.1681 27.0146 19.0296 27.5548 20.2326 28.0227C12.8873 31.1707 3.60855 27.8403 9.37801 26.2283ZM8.48043 22.1201C8.48043 22.1201 6.87222 23.3106 9.32837 23.5646C12.5046 23.8923 15.0129 23.9191 19.3533 23.0833C19.3533 23.0833 19.9536 23.6919 20.8976 24.0248C12.0166 26.6217 2.12474 24.2296 8.48043 22.1201Z" fill="#5382A1"/>
<path d="M15.6674 15.6209C17.4704 17.4515 15.1937 19.0989 15.1937 19.0989C15.1937 19.0989 19.7717 17.0147 17.6692 14.4046C15.7056 11.9707 14.1997 10.7612 22.3519 6.59155C22.3519 6.59155 9.55561 9.41008 15.6674 15.6208" fill="#E76F00"/>
<path d="M25.7615 29.2676C25.7615 29.2676 26.8226 30.1418 24.5928 30.8182C20.353 32.1027 6.94614 32.4905 3.22173 30.8694C1.88295 30.2871 4.39363 29.4788 5.18334 29.3091C6.00695 29.1305 6.47769 29.1638 6.47769 29.1638C4.98877 28.1149 -3.14602 31.2233 2.34565 32.1134C17.3221 34.5422 29.6462 31.0198 25.7615 29.2676ZM10.0668 17.8645C10.0668 17.8645 3.24737 19.4843 7.65198 20.0724C9.51169 20.3214 13.219 20.2651 16.6724 19.9757C19.4947 19.7377 22.3286 19.2315 22.3286 19.2315C22.3286 19.2315 21.3334 19.6577 20.6135 20.1493C13.6883 21.9706 0.310053 21.1233 4.16147 19.2603C7.41862 17.6859 10.067 17.8645 10.067 17.8645H10.0668ZM22.3004 24.7025C29.3403 21.0444 26.0854 17.529 23.8135 18.0026C23.2566 18.1185 23.0083 18.2188 23.0083 18.2188C23.0083 18.2188 23.2151 17.8951 23.6099 17.7549C28.1043 16.1748 31.5609 22.4153 22.159 24.8869C22.159 24.887 22.2679 24.7896 22.3004 24.7025Z" fill="#5382A1"/>
<path d="M18.2563 0.337984C18.2563 0.337984 22.0368 3.69511 14.6706 8.85713C8.7638 12.9981 13.3237 15.3591 14.6682 18.0567C11.2202 15.2952 8.68984 12.8643 10.3875 10.6018C12.879 7.2805 19.7816 5.67029 18.2563 0.337891" fill="#E76F00"/>
<path d="M10.7579 34.6151C17.5153 35.0477 27.8919 34.3751 28.1376 31.1777C28.1376 31.1777 27.6652 32.3899 22.553 33.3525C16.7855 34.4378 9.67218 34.3111 5.45312 33.6155C5.45323 33.6155 6.31682 34.3304 10.758 34.6151" fill="#5382A1"/>
</svg>
