<svg width="27" height="36" viewBox="0 0 27 36" fill="none" xmlns="http://www.w3.org/2000/svg">
<path d="M0.507812 28.9002L0.722395 28.5998L10.8707 9.34356L10.8922 9.13969L6.41868 0.736613C6.04369 0.032726 4.98847 0.210719 4.86556 0.9987L0.507812 28.9002Z" fill="#FFC24A"/>
<path d="M0.634766 28.6714L0.796991 28.355L10.8391 9.3005L6.37664 0.863262C6.00579 0.166754 5.06398 0.344342 4.94228 1.12404L0.634766 28.6714Z" fill="#FFA712"/>
<path d="M14.1529 15.4957L17.4838 12.0844L14.1519 5.72374C13.8356 5.12164 12.9525 5.11982 12.6396 5.72374L10.8594 9.11855V9.40763L14.1528 15.4957H14.1529Z" fill="#F4BD62"/>
<path d="M14.0944 15.3543L17.3328 12.0378L14.0944 5.8715C13.787 5.28618 13.0399 5.22482 12.7357 5.81187L10.9461 9.25944L10.8926 9.43571L14.0944 15.3543Z" fill="#FFA50E"/>
<path d="M0.507812 28.8997L0.605047 28.8019L0.958405 28.6584L13.9442 15.7208L14.1088 15.2729L10.8693 9.09985L0.507812 28.8997Z" fill="#F6820C"/>
<path d="M14.5695 35.4246L26.322 28.8702L22.9659 8.20086C22.8609 7.55418 22.0675 7.29856 21.6046 7.76219L0.507812 28.8999L12.1929 35.4241C12.5561 35.6269 12.9651 35.7334 13.3811 35.7335C13.7971 35.7336 14.2062 35.6272 14.5695 35.4246Z" fill="#FDE068"/>
<path d="M26.2171 28.8163L22.8865 8.30392C22.7824 7.66209 22.1226 7.39656 21.6632 7.85676L0.638672 28.8608L12.1955 35.3203C12.5559 35.5215 12.9618 35.6272 13.3747 35.6273C13.7875 35.6274 14.1934 35.5219 14.554 35.3209L26.2172 28.8162L26.2171 28.8163Z" fill="#FCCA3F"/>
<path d="M14.5693 35.2319C14.206 35.4346 13.7969 35.5409 13.381 35.5408C12.965 35.5407 12.556 35.4342 12.1928 35.2314L0.601812 28.801L0.507812 28.9004L12.1928 35.4246C12.556 35.6274 12.965 35.7339 13.381 35.734C13.797 35.7341 14.2061 35.6277 14.5694 35.4251L26.3219 28.8707L26.2931 28.6936L14.5694 35.232L14.5693 35.2319Z" fill="#EEAB37"/>
</svg>
