<svg width="38" height="34" viewBox="0 0 38 34" fill="none" xmlns="http://www.w3.org/2000/svg">
<path d="M19.0253 33.1783L25.9294 12.9756H12.1211L19.0252 33.1783H19.0253Z" fill="#E24329"/>
<path d="M19.0253 33.1783L12.121 12.9756H2.44531L19.0253 33.1783Z" fill="#FC6D26"/>
<path d="M2.44534 12.9756L0.347316 19.1151C0.254032 19.3881 0.254019 19.6821 0.34728 19.955C0.44054 20.228 0.622286 20.4658 0.866471 20.6345L19.0253 33.1784L2.44519 12.9757L2.44534 12.9756Z" fill="#FCA326"/>
<path d="M2.44531 12.976H12.121L7.96296 0.807929C7.74897 0.181793 6.81737 0.181932 6.60352 0.807929L2.44531 12.976Z" fill="#E24329"/>
<path d="M19.0236 33.1783L25.9276 12.9756H35.6035L19.0234 33.1783H19.0236Z" fill="#FC6D26"/>
<path d="M35.6053 12.9756L37.7033 19.1151C37.7966 19.3881 37.7965 19.6821 37.7033 19.955C37.61 20.228 37.4282 20.4659 37.184 20.6345L19.0254 33.1784L35.6053 12.9757V12.9756Z" fill="#FCA326"/>
<path d="M35.6055 12.976H25.9297L30.0879 0.807929C30.3019 0.181793 31.2335 0.181932 31.4473 0.807929L35.6055 12.976Z" fill="#E24329"/>
</svg>
