<svg width="32" height="30" viewBox="0 0 32 30" fill="none" xmlns="http://www.w3.org/2000/svg">
<path d="M15.873 0.423828C7.95017 0.423828 8.44486 3.69056 8.44486 3.69056L8.45366 7.075H16.0143V8.0911H5.45069C5.45069 8.0911 0.380859 7.54442 0.380859 15.1451C0.380859 22.746 4.80593 22.4765 4.80593 22.4765H7.4468V18.9494C7.4468 18.9494 7.30443 14.742 11.8012 14.742H19.3C19.3 14.742 23.5131 14.8068 23.5131 10.8706V4.3625C23.5131 4.3625 24.153 0.423828 15.873 0.423828ZM11.7041 2.6998C11.8828 2.69964 12.0597 2.73299 12.2248 2.79792C12.3899 2.86286 12.5399 2.95811 12.6662 3.07823C12.7926 3.19835 12.8927 3.34097 12.961 3.49794C13.0293 3.65491 13.0644 3.82314 13.0642 3.99301C13.0644 4.16288 13.0293 4.33112 12.961 4.48809C12.8927 4.64505 12.7926 4.78768 12.6662 4.90779C12.5399 5.02791 12.3899 5.12316 12.2248 5.1881C12.0597 5.25304 11.8828 5.28638 11.7041 5.28623C11.5254 5.28638 11.3485 5.25304 11.1834 5.1881C11.0183 5.12316 10.8683 5.02791 10.742 4.90779C10.6156 4.78768 10.5154 4.64505 10.4471 4.48809C10.3788 4.33112 10.3438 4.16288 10.3439 3.99301C10.3438 3.82314 10.3788 3.65491 10.4471 3.49794C10.5154 3.34097 10.6156 3.19835 10.742 3.07823C10.8683 2.95811 11.0183 2.86286 11.1834 2.79792C11.3485 2.73299 11.5254 2.69964 11.7041 2.6998Z" fill="url(#paint0_linear_1385_27588)"/>
<path d="M16.0989 29.9435C24.0218 29.9435 23.5271 26.6767 23.5271 26.6767L23.5183 23.2924H15.9575V22.2763H26.5211C26.5211 22.2763 31.591 22.823 31.591 15.2221C31.591 7.62127 27.1659 7.89083 27.1659 7.89083H24.525V11.4178C24.525 11.4178 24.6674 15.6251 20.1706 15.6251H12.6718C12.6718 15.6251 8.45873 15.5604 8.45873 19.4967V26.0049C8.45873 26.0049 7.81898 29.9435 16.0988 29.9435H16.0989ZM20.2679 27.6677C20.0892 27.6679 19.9122 27.6345 19.7472 27.5696C19.5821 27.5047 19.4321 27.4094 19.3057 27.2893C19.1794 27.1692 19.0792 27.0266 19.0109 26.8696C18.9426 26.7126 18.9075 26.5444 18.9077 26.3745C18.9075 26.2046 18.9426 26.0364 19.0109 25.8794C19.0792 25.7224 19.1793 25.5798 19.3057 25.4597C19.432 25.3395 19.582 25.2443 19.7471 25.1793C19.9122 25.1144 20.0892 25.081 20.2679 25.0812C20.4465 25.081 20.6235 25.1144 20.7885 25.1793C20.9536 25.2443 21.1036 25.3395 21.23 25.4596C21.3563 25.5797 21.4565 25.7224 21.5248 25.8793C21.5931 26.0363 21.6282 26.2045 21.628 26.3744C21.6282 26.5443 21.5931 26.7125 21.5248 26.8695C21.4565 27.0265 21.3563 27.1691 21.23 27.2892C21.1036 27.4093 20.9536 27.5046 20.7885 27.5695C20.6235 27.6344 20.4465 27.6678 20.2679 27.6676V27.6677Z" fill="url(#paint1_linear_1385_27588)"/>
<defs>
<linearGradient id="paint0_linear_1385_27588" x1="3.38005" y1="3.07889" x2="18.074" y2="18.3792" gradientUnits="userSpaceOnUse">
<stop stop-color="#387EB8"/>
<stop offset="1" stop-color="#366994"/>
</linearGradient>
<linearGradient id="paint1_linear_1385_27588" x1="12.8742" y1="12.4281" x2="28.6906" y2="28.1537" gradientUnits="userSpaceOnUse">
<stop stop-color="#FFE052"/>
<stop offset="1" stop-color="#FFC331"/>
</linearGradient>
</defs>
</svg>
