<svg width="20" height="21" viewBox="0 0 20 21" fill="none" xmlns="http://www.w3.org/2000/svg">
<path d="M10 20.1338C4.477 20.1338 0 15.6568 0 10.1338C0 4.61079 4.477 0.133789 10 0.133789C15.523 0.133789 20 4.61079 20 10.1338C20 15.6568 15.523 20.1338 10 20.1338ZM10 18.1338C12.1217 18.1338 14.1566 17.2909 15.6569 15.7906C17.1571 14.2904 18 12.2555 18 10.1338C18 8.01206 17.1571 5.97723 15.6569 4.47693C14.1566 2.97664 12.1217 2.13379 10 2.13379C7.87827 2.13379 5.84344 2.97664 4.34315 4.47693C2.84285 5.97723 2 8.01206 2 10.1338C2 12.2555 2.84285 14.2904 4.34315 15.7906C5.84344 17.2909 7.87827 18.1338 10 18.1338ZM9 10.9258C8.4736 10.696 8.04236 10.2921 7.77878 9.78176C7.51521 9.27146 7.43539 8.68596 7.55273 8.12373C7.67008 7.56149 7.97744 7.05681 8.42313 6.69454C8.86881 6.33226 9.42565 6.1345 10 6.1345C10.5744 6.1345 11.1312 6.33226 11.5769 6.69454C12.0226 7.05681 12.3299 7.56149 12.4473 8.12373C12.5646 8.68596 12.4848 9.27146 12.2212 9.78176C11.9576 10.2921 11.5264 10.696 11 10.9258V14.1338H9V10.9258Z" fill="#96A3BE"/>
</svg>
