<svg width="164" height="164" viewBox="0 0 164 164" fill="none" xmlns="http://www.w3.org/2000/svg">
<path d="M133.23 71.7323C133.23 86.1573 128.383 99.5331 120.261 110.286C115.806 116.056 110.435 121.171 104.278 125.105C94.3219 131.661 82.4006 135.464 69.5622 135.464C34.3224 135.333 5.76367 106.746 5.76367 71.7323C5.76367 36.4567 34.3224 8.00024 69.4312 8.00024C82.2696 8.00024 94.1909 11.8032 104.147 18.2288C110.304 22.1629 115.675 27.2772 120.129 33.0472C128.383 43.8004 133.23 57.1762 133.23 71.7323Z" fill="#EAEEF9"/>
<path d="M2.22706 118.81C3.40609 118.81 4.45411 117.892 4.45411 116.581C4.45411 115.4 3.53709 114.351 2.22706 114.351C1.04803 114.351 0 115.269 0 116.581C0.131003 117.892 1.04803 118.81 2.22706 118.81Z" fill="url(#paint0_linear_1385_19163)"/>
<path d="M107.815 14.0326C108.994 14.0326 110.042 13.1146 110.042 11.8033C110.042 10.6231 109.125 9.57397 107.815 9.57397C106.636 9.57397 105.588 10.4919 105.588 11.8033C105.588 12.9835 106.636 14.0326 107.815 14.0326Z" fill="url(#paint1_linear_1385_19163)"/>
<path d="M147.248 52.1931C149.213 50.3572 149.345 47.3411 147.51 45.374C145.676 43.407 142.663 43.2759 140.567 45.1118C138.602 46.9477 138.471 49.9638 140.305 51.9308C142.139 53.8979 145.283 54.029 147.248 52.1931Z" fill="#EAEEF9"/>
<path d="M146.2 30.949C147.379 30.949 148.296 30.0311 148.296 28.8509C148.296 27.6706 147.379 26.7527 146.2 26.7527C145.021 26.7527 144.104 27.6706 144.104 28.8509C144.104 30.0311 145.021 30.949 146.2 30.949Z" fill="url(#paint2_linear_1385_19163)"/>
<g filter="url(#filter0_d_1385_19163)">
<path d="M115.621 40.6945L116.593 124.98C116.593 127.777 114.285 130.088 111.49 130.088H29.5991C26.8046 130.088 24.4961 127.777 24.4961 124.98V16.6131C24.4961 13.8157 26.8046 11.5049 29.5991 11.5049H89.0128L115.621 40.6945Z" fill="white"/>
</g>
<path d="M89.0137 11.626V34.8561C89.0137 38.0183 91.8082 40.8156 95.0887 40.8156H115.744" fill="#F0F4F8"/>
<path d="M40.5345 53.5866C40.0485 53.5866 39.5625 53.1001 39.5625 52.6136C39.5625 52.1271 40.0485 51.6406 40.5345 51.6406H98.8547C99.3407 51.6406 99.8267 52.1271 99.8267 52.6136C99.8267 53.1001 99.3407 53.5866 98.8547 53.5866H40.5345Z" fill="#CED7E2"/>
<path d="M40.5345 61.1271C40.0485 61.1271 39.5625 60.6406 39.5625 60.1541C39.5625 59.6676 40.0485 59.1812 40.5345 59.1812H98.8547C99.3407 59.1812 99.8267 59.6676 99.8267 60.1541C99.8267 60.6406 99.3407 61.1271 98.8547 61.1271H40.5345Z" fill="#CED7E2"/>
<path d="M40.5345 68.5463C40.0485 68.5463 39.5625 68.0598 39.5625 67.5733C39.5625 67.0868 40.0485 66.6003 40.5345 66.6003H98.8547C99.3407 66.6003 99.8267 67.0868 99.8267 67.5733C99.8267 68.0598 99.3407 68.5463 98.8547 68.5463H40.5345Z" fill="#CED7E2"/>
<path d="M40.5345 76.0868C40.0485 76.0868 39.5625 75.6004 39.5625 75.1139C39.5625 74.6274 40.0485 74.1409 40.5345 74.1409H98.8547C99.3407 74.1409 99.8267 74.6274 99.8267 75.1139C99.8267 75.6004 99.3407 76.0868 98.8547 76.0868H40.5345Z" fill="#CED7E2"/>
<path d="M40.5345 83.506C40.0485 83.506 39.5625 83.0195 39.5625 82.5331C39.5625 82.0466 40.0485 81.5601 40.5345 81.5601H98.8547C99.3407 81.5601 99.8267 82.0466 99.8267 82.5331C99.8267 83.0195 99.3407 83.506 98.8547 83.506H40.5345Z" fill="#CED7E2"/>
<path d="M40.5345 90.9252C40.0485 90.9252 39.5625 90.4387 39.5625 89.9522C39.5625 89.4657 40.0485 88.9792 40.5345 88.9792H66.1711C66.6571 88.9792 67.1431 89.4657 67.1431 89.9522C67.1431 90.4387 66.6571 90.9252 66.1711 90.9252H40.5345Z" fill="#CED7E2"/>
<path d="M67.8721 34.978H40.656C40.0485 34.978 39.5625 34.4915 39.5625 33.8834C39.5625 33.2753 40.0485 32.7888 40.656 32.7888H67.8721C68.4796 32.7888 68.9656 33.2753 68.9656 33.8834C68.9656 34.3699 68.4796 34.978 67.8721 34.978Z" fill="#CED7E2"/>
<path d="M54.1426 40.6946H40.656C40.0485 40.6946 39.5625 40.2081 39.5625 39.6C39.5625 38.9919 40.0485 38.5054 40.656 38.5054H54.1426C54.7501 38.5054 55.2361 38.9919 55.2361 39.6C55.2361 40.2081 54.7501 40.6946 54.1426 40.6946Z" fill="#CED7E2"/>
<path d="M94.2378 113.669C93.9948 111.966 93.8733 110.75 92.6583 110.264C90.7143 109.777 90.1067 112.331 88.1627 114.399C87.5552 115.007 86.7047 115.494 85.9757 115.98C85.7327 116.102 85.2467 116.345 85.1252 115.858C84.6392 114.399 85.1252 115.129 87.1907 112.818C88.1627 111.723 88.7702 110.385 88.5272 108.683C88.4057 107.71 87.7982 106.858 86.8262 106.493C85.8542 106.128 84.8822 106.25 84.1532 107.101C82.4522 109.169 82.9382 110.507 82.8167 113.548C82.8167 113.791 82.6952 114.034 82.4522 114.156C80.7512 115.129 78.9287 115.737 76.7417 115.98C76.7417 115.858 76.7417 115.858 76.7417 115.858C77.8352 114.399 80.0222 111.723 80.5082 107.345C80.7512 105.642 80.7512 103.939 79.9007 102.358C78.3212 99.4392 73.9472 99.8041 72.0032 103.331C70.0592 107.223 70.4237 113.061 73.0967 116.466C72.4892 116.953 72.0032 117.439 71.3957 117.804C71.0312 118.048 70.9097 118.656 71.1527 119.021C71.3957 119.507 72.1247 119.629 72.6107 119.264C74.5547 117.683 74.4332 117.804 74.6762 117.683C75.0407 117.561 75.4052 117.683 75.7697 117.683C77.1062 117.683 77.9567 117.561 78.9287 117.439C79.4147 117.318 82.6952 116.102 82.8167 116.102C82.8167 116.102 82.8167 116.223 82.9382 116.345C83.3027 117.683 84.0317 118.169 85.4897 118.048C86.5832 117.926 87.5552 117.439 88.4057 116.71C89.3778 115.737 90.9573 113.791 91.8078 112.575C92.0508 113.426 92.0508 114.156 92.2938 114.885C92.7798 116.223 94.1163 116.466 94.9668 115.372C95.9388 114.277 96.3033 112.818 97.3968 112.21C97.7613 112.088 98.0043 111.723 98.0043 111.358C98.0043 110.629 97.2753 110.264 96.6678 110.507C95.6958 111.115 94.9668 112.331 94.2378 113.669ZM74.6762 115.372C73.7042 114.156 73.3397 112.818 73.0967 111.237C72.6107 109.047 72.8537 106.737 73.7042 104.669C74.1902 103.574 74.7977 102.723 76.0127 102.48C77.2277 102.237 78.0782 102.48 78.3212 103.696C79.4147 107.953 77.7137 111.966 74.6762 115.372ZM85.0037 108.926C85.7327 107.466 86.5832 108.804 86.4617 109.412C86.2187 110.142 85.8542 110.75 85.4897 111.358C85.2467 111.723 85.0037 111.966 84.6392 112.331C84.5177 111.115 84.5177 110.02 85.0037 108.926Z" fill="url(#paint3_linear_1385_19163)"/>
<path d="M50.7407 118.655C49.8902 119.507 48.6751 119.993 47.7031 119.263C46.2451 118.169 45.7591 117.926 44.7871 117.804C43.5721 117.682 42.4786 117.561 42.1141 116.223C41.9926 115.858 41.9926 115.615 41.9926 115.25C41.8711 114.399 41.5066 113.547 40.8991 112.817C40.0486 111.844 39.4411 110.993 40.0486 109.898C40.7776 108.682 41.5066 108.196 41.5066 106.736C41.5066 106.25 41.5066 105.885 41.6281 105.52C41.8711 104.547 42.7216 103.817 43.6936 103.817C44.0581 103.817 44.4226 103.696 44.7871 103.696C46.0021 103.574 46.3666 102.723 47.9461 102.115C48.4321 101.871 48.9181 101.993 49.4042 102.236C49.7687 102.479 50.1332 102.723 50.6192 103.088C51.7127 103.939 52.4417 103.574 54.0212 104.06C54.7502 104.304 55.1147 104.912 55.2362 105.52C55.2362 106.25 55.4792 107.101 55.7222 107.709C56.3297 108.925 57.5447 109.534 57.4232 110.871C57.4232 111.115 57.3017 111.48 57.1802 111.601C56.5727 112.331 56.0867 113.304 55.7222 114.277C55.6007 114.642 55.6007 114.885 55.6007 115.25C55.6007 115.98 55.3577 116.588 54.8717 116.953C53.4137 118.412 52.0772 117.317 50.7407 118.655ZM43.0861 114.155C45.0301 116.953 48.7966 117.804 51.7127 115.858C54.5072 114.155 55.2362 110.263 53.5352 107.588C53.5352 107.588 53.5352 107.466 53.4137 107.466C51.5912 104.669 47.5816 103.817 44.7871 105.763C41.9926 107.466 41.2636 111.358 42.9646 114.034C43.0861 114.034 43.0861 114.155 43.0861 114.155Z" fill="#CED7E2"/>
<path d="M45.395 106.614C47.7035 105.033 50.984 105.641 52.685 108.074C54.2645 110.263 53.657 113.425 51.47 115.006L51.3485 115.128C49.04 116.709 45.7595 115.979 44.0584 113.669C42.4789 111.479 43.0864 108.317 45.2734 106.736C45.2734 106.614 45.2735 106.614 45.395 106.614Z" fill="#CED7E2"/>
<path d="M92.1329 85.5519C92.9368 85.3041 93.3697 84.4369 93.1223 83.6317C92.875 82.8264 92.0092 82.3928 91.2053 82.6406C90.4014 82.8884 89.9686 83.7556 90.2159 84.5608C90.4633 85.3661 91.329 85.7997 92.1329 85.5519Z" fill="#EAEEF9"/>
<path d="M95.906 81.5874C96.4625 81.4016 96.7099 80.8441 96.5862 80.2866C96.4007 79.7291 95.8441 79.4814 95.2876 79.6052C94.7311 79.7911 94.4837 80.3485 94.6074 80.906C94.7311 81.4635 95.3494 81.7113 95.906 81.5874Z" fill="#EAEEF9"/>
<path d="M90.4634 97.3829C91.0199 97.3829 91.5146 96.9493 91.5146 96.3299C91.5146 95.7105 91.0817 95.2769 90.4634 95.2769C89.9068 95.2769 89.4121 95.7105 89.4121 96.3299C89.4121 96.9493 89.845 97.3829 90.4634 97.3829Z" fill="url(#paint4_linear_1385_19163)"/>
<path d="M154.589 73.349C155.022 73.349 155.393 72.9774 155.393 72.5438C155.393 72.1102 155.022 71.7385 154.589 71.7385C154.156 71.7385 153.785 72.1102 153.785 72.5438C153.785 72.9774 154.156 73.349 154.589 73.349Z" fill="url(#paint5_linear_1385_19163)"/>
<path d="M161.949 87.2242C162.877 86.357 162.939 84.9324 162.073 84.0032C161.207 83.0741 159.785 83.0122 158.857 83.8794C157.93 84.7465 157.868 86.1712 158.734 87.1004C159.537 88.0295 160.96 88.0914 161.949 87.2242Z" fill="#EAEEF9"/>
<path d="M129.483 70.1895H124.289V73.5963H129.483V70.1895Z" fill="#B3BFCF"/>
<path d="M129.483 70.1895H124.289V71.6141H129.483V70.1895Z" fill="#9FADBF"/>
<path d="M109.819 76.9421L106.975 79.7915L109.015 81.8356L111.86 78.9862L109.819 76.9421Z" fill="#B3BFCF"/>
<path d="M142.717 78.8004L145.561 81.6498L147.417 79.7915L144.572 76.9421L142.717 78.8004Z" fill="#B3BFCF"/>
<path d="M128.803 123.895C142.593 123.895 153.786 112.683 153.786 98.87C153.786 85.0569 142.593 73.9072 128.803 73.9072C115.013 73.9072 103.82 85.1188 103.82 98.932C103.82 112.745 115.013 123.895 128.803 123.895Z" fill="#D3DAE6"/>
<path d="M127.319 122.965C141.109 122.965 152.301 111.754 152.301 97.9407C152.301 84.1276 141.109 72.916 127.319 72.916C113.529 72.916 102.336 84.1895 102.336 98.0027C102.336 111.816 113.529 122.965 127.319 122.965Z" fill="#DAE1ED" stroke="#D3DAE6" stroke-miterlimit="10"/>
<path d="M105.304 99.365C104.686 99.365 104.191 98.8695 104.191 98.2501C104.191 98.1262 104.191 98.0023 104.191 97.9404C104.191 86.2952 112.849 76.4464 124.413 74.9597C125.031 74.8978 125.587 75.3314 125.649 75.9508C125.711 76.5702 125.278 77.1277 124.66 77.1897C114.209 78.4905 106.356 87.4721 106.356 97.9404C106.356 98.0643 106.356 98.1262 106.356 98.2501C106.356 98.8695 105.861 99.365 105.304 99.365Z" fill="#EDF0FC"/>
<path d="M127.32 121.169C124.846 121.169 122.373 120.797 120.085 119.992C119.466 119.806 119.157 119.187 119.343 118.629C119.528 118.01 120.146 117.7 120.703 117.886C122.805 118.629 125.032 118.939 127.258 118.939C137.709 118.939 146.613 111.134 148.035 100.728C148.097 100.108 148.654 99.6749 149.272 99.7368C149.891 99.7988 150.324 100.356 150.262 100.976C149.52 106.489 146.799 111.568 142.656 115.284C138.389 119.125 132.947 121.169 127.32 121.169Z" fill="#C8D3DE"/>
<path d="M146.798 98.0025C146.798 98.2503 146.798 98.4361 146.798 98.6839C146.427 109.152 137.893 117.514 127.319 117.514C116.745 117.514 108.149 109.09 107.84 98.6219C107.84 98.3742 107.84 98.1883 107.84 97.9406C107.84 87.4104 116.188 78.8004 126.577 78.4287C126.824 78.4287 127.072 78.4287 127.319 78.4287C138.017 78.4287 146.612 86.9768 146.798 97.5689C146.798 97.7547 146.798 97.8786 146.798 98.0025Z" fill="#EDF0FC"/>
<path d="M146.798 98.6218C146.427 109.09 137.893 117.452 127.319 117.452C116.745 117.452 108.149 109.09 107.84 98.6218C108.211 88.1536 116.745 79.7914 127.319 79.7914C137.831 79.7294 146.427 88.1536 146.798 98.6218Z" fill="white"/>
<path d="M132.515 110.452H121.384C120.827 110.452 120.395 110.019 120.395 109.461V103.887C120.395 103.329 120.827 102.896 121.384 102.896H132.515C133.071 102.896 133.504 103.329 133.504 103.887V109.461C133.442 110.019 133.01 110.452 132.515 110.452Z" fill="#F2F5FC"/>
<path d="M144.201 98.9309H140.986C140.429 98.9309 139.996 98.4973 139.996 97.9398C139.996 97.3823 140.429 96.9487 140.986 96.9487H144.201C144.758 96.9487 145.191 97.3823 145.191 97.9398C145.129 98.4973 144.696 98.9309 144.201 98.9309Z" fill="#DAE1ED"/>
<path d="M112.664 98.9309H109.448C108.892 98.9309 108.459 98.4973 108.459 97.9398C108.459 97.3823 108.892 96.9487 109.448 96.9487H112.664C113.221 96.9487 113.653 97.3823 113.653 97.9398C113.592 98.4973 113.097 98.9309 112.664 98.9309Z" fill="#DAE1ED"/>
<path d="M126.825 116.399C126.269 116.399 125.836 115.965 125.836 115.408V112.187C125.836 111.629 126.269 111.196 126.825 111.196C127.382 111.196 127.815 111.629 127.815 112.187V115.408C127.753 115.965 127.32 116.399 126.825 116.399Z" fill="#DAE1ED"/>
<path d="M126.825 84.8082C126.269 84.8082 125.836 84.3746 125.836 83.8171V80.6581C125.836 80.1006 126.269 79.667 126.825 79.667C127.382 79.667 127.815 80.1006 127.815 80.6581V83.8791C127.753 84.3746 127.32 84.8082 126.825 84.8082Z" fill="#DAE1ED"/>
<path d="M127.072 100.665C128.68 100.665 130.04 99.3647 130.04 97.6922C130.04 96.0198 128.741 94.719 127.072 94.719C125.464 94.719 124.104 96.0198 124.104 97.6922C124.104 99.3647 125.402 100.665 127.072 100.665Z" fill="#F2F5FC"/>
<path d="M139.624 85.9855C139.253 85.6757 138.696 85.6757 138.387 85.9855L127.936 96.9493C127.875 96.9493 127.875 96.9493 127.813 96.9493C127.009 96.9493 126.452 97.5687 126.452 98.312C126.452 98.3739 126.452 98.4359 126.452 98.4978L124.783 100.232C124.473 100.604 124.473 101.161 124.783 101.471C124.968 101.657 125.154 101.719 125.401 101.719C125.648 101.719 125.896 101.657 126.019 101.471L127.689 99.7367C127.751 99.7367 127.813 99.7367 127.813 99.7367C128.617 99.7367 129.173 99.1172 129.173 98.3739C129.173 98.312 129.173 98.2501 129.173 98.1881L139.624 87.2862C139.995 86.7907 139.995 86.2332 139.624 85.9855Z" fill="#DAE1ED"/>
<path d="M138.82 85.3038C138.449 84.9941 137.892 84.9941 137.583 85.3038L127.194 96.2676C127.132 96.2676 127.132 96.2676 127.071 96.2676C126.267 96.2676 125.71 96.887 125.71 97.6303C125.71 97.6923 125.71 97.7542 125.71 97.8162L124.04 99.5506C123.731 99.9222 123.731 100.48 124.04 100.789C124.226 100.975 124.412 101.037 124.659 101.037C124.906 101.037 125.154 100.975 125.277 100.789L126.947 99.055C127.009 99.055 127.071 99.055 127.071 99.055C127.874 99.055 128.431 98.4356 128.431 97.6923C128.431 97.6304 128.431 97.5684 128.431 97.5065L138.882 86.6046C139.191 86.171 139.129 85.6135 138.82 85.3038Z" fill="#EB358A"/>
<path d="M138.45 85.6137L124.289 100.418C124.166 100.418 124.166 100.418 124.042 100.418C123.918 100.232 123.98 99.9844 124.104 99.7985L137.708 85.4898C137.894 85.304 138.203 85.304 138.389 85.4279C138.512 85.4279 138.512 85.5518 138.45 85.6137Z" fill="#FF4FA2"/>
<path d="M131.957 65.4206V68.7035C131.957 69.9424 130.906 70.9335 129.731 70.9335H124.166C122.929 70.9335 121.939 69.8805 121.939 68.7035V65.4206C121.939 64.1818 122.991 63.1907 124.166 63.1907H129.731C130.968 63.1907 131.957 64.2437 131.957 65.4206Z" fill="#1C3754"/>
<path d="M131.957 65.4206V68.7035C131.957 69.9424 130.906 70.9335 129.731 70.9335H124.166C122.929 70.9335 121.939 69.8805 121.939 68.7035V68.0841C122.31 69.6327 123.671 69.6327 123.671 69.6327H129.422C130.226 69.6327 130.844 68.9513 130.844 68.208V65.8542C130.844 64.2437 130.535 63.6243 129.669 63.1907C130.968 63.1907 131.957 64.2437 131.957 65.4206Z" fill="#172D45"/>
<path d="M122.805 69.0755C122.62 69.0755 122.496 68.9516 122.496 68.7658V65.0492C122.496 64.8634 122.62 64.7395 122.805 64.7395C122.991 64.7395 123.114 64.8634 123.114 65.0492V68.7658C122.991 68.9516 122.867 69.0755 122.805 69.0755Z" fill="#2D5887"/>
<path d="M124.167 69.0755C123.981 69.0755 123.857 68.9516 123.857 68.7658V65.0492C123.857 64.8634 123.981 64.7395 124.167 64.7395C124.352 64.7395 124.476 64.8634 124.476 65.0492V68.7658C124.476 68.9516 124.352 69.0755 124.167 69.0755Z" fill="#2D5887"/>
<path d="M125.588 69.0755C125.403 69.0755 125.279 68.9516 125.279 68.7658V65.0492C125.279 64.8634 125.403 64.7395 125.588 64.7395C125.774 64.7395 125.898 64.8634 125.898 65.0492V68.7658C125.836 68.9516 125.712 69.0755 125.588 69.0755Z" fill="#2D5887"/>
<path d="M127.01 69.0755C126.825 69.0755 126.701 68.9516 126.701 68.7658V65.0492C126.701 64.8634 126.825 64.7395 127.01 64.7395C127.196 64.7395 127.32 64.8634 127.32 65.0492V68.7658C127.32 68.9516 127.196 69.0755 127.01 69.0755Z" fill="#2D5887"/>
<path d="M128.432 69.0755C128.247 69.0755 128.123 68.9516 128.123 68.7658V65.0492C128.123 64.8634 128.247 64.7395 128.432 64.7395C128.618 64.7395 128.741 64.8634 128.741 65.0492V68.7658C128.68 68.9516 128.556 69.0755 128.432 69.0755Z" fill="#2D5887"/>
<path d="M129.854 69.0755C129.669 69.0755 129.545 68.9516 129.545 68.7658V65.0492C129.545 64.8634 129.669 64.7395 129.854 64.7395C130.04 64.7395 130.163 64.8634 130.163 65.0492V68.7658C130.163 68.9516 129.978 69.0755 129.854 69.0755Z" fill="#2D5887"/>
<path opacity="0.7" d="M131.215 69.0755C131.03 69.0755 130.906 68.9516 130.906 68.7658V65.0492C130.906 64.8634 131.03 64.7395 131.215 64.7395C131.401 64.7395 131.525 64.8634 131.525 65.0492V68.7658C131.525 68.9516 131.401 69.0755 131.215 69.0755Z" fill="#2D5887"/>
<path d="M110.376 77.1897L107.346 80.2248C106.666 80.9062 105.615 80.9062 104.872 80.2248L103.141 78.4904C102.461 77.8091 102.461 76.7561 103.141 76.0128L106.171 72.9776C106.851 72.2962 107.903 72.2962 108.645 72.9776L110.376 74.712C110.994 75.4553 110.994 76.5702 110.376 77.1897Z" fill="#1C3754"/>
<path d="M144.016 77.1897L147.046 80.2248C147.726 80.9062 148.778 80.9062 149.52 80.2248L151.251 78.4904C151.931 77.8091 151.931 76.7561 151.251 76.0128L148.221 72.9776C147.541 72.2962 146.49 72.2962 145.747 72.9776L144.016 74.712C143.336 75.4553 143.336 76.5702 144.016 77.1897Z" fill="#1C3754"/>
<path d="M127.072 97.9399C127.195 97.9399 127.319 97.816 127.319 97.6921C127.319 97.5682 127.195 97.4443 127.072 97.4443C126.948 97.4443 126.824 97.5682 126.824 97.6921C126.824 97.816 126.948 97.9399 127.072 97.9399Z" fill="#1C3754"/>
<path opacity="0.4" d="M146.798 97.6921H126.639V78.49C126.886 78.49 127.133 78.49 127.381 78.49C137.955 78.49 146.612 87.038 146.798 97.6921Z" fill="url(#paint6_linear_1385_19163)"/>
<path d="M97.3184 124.514H163.001" stroke="#B1B9CC" stroke-width="2" stroke-miterlimit="10" stroke-linecap="round" stroke-linejoin="round"/>
<path d="M91.9688 124.514H94.753" stroke="#B1B9CC" stroke-width="2" stroke-miterlimit="10" stroke-linecap="round" stroke-linejoin="round"/>
<defs>
<filter id="filter0_d_1385_19163" x="2.49609" y="0.504883" width="136.098" height="162.583" filterUnits="userSpaceOnUse" color-interpolation-filters="sRGB">
<feFlood flood-opacity="0" result="BackgroundImageFix"/>
<feColorMatrix in="SourceAlpha" type="matrix" values="0 0 0 0 0 0 0 0 0 0 0 0 0 0 0 0 0 0 127 0" result="hardAlpha"/>
<feOffset dy="11"/>
<feGaussianBlur stdDeviation="11"/>
<feColorMatrix type="matrix" values="0 0 0 0 0.397708 0 0 0 0 0.47749 0 0 0 0 0.575 0 0 0 0.26 0"/>
<feBlend mode="normal" in2="BackgroundImageFix" result="effect1_dropShadow_1385_19163"/>
<feBlend mode="normal" in="SourceGraphic" in2="effect1_dropShadow_1385_19163" result="shape"/>
</filter>
<linearGradient id="paint0_linear_1385_19163" x1="0.110829" y1="116.668" x2="4.34551" y2="116.668" gradientUnits="userSpaceOnUse">
<stop stop-color="#FF66A9"/>
<stop offset="1" stop-color="#F53689"/>
</linearGradient>
<linearGradient id="paint1_linear_1385_19163" x1="105.6" y1="11.8085" x2="109.835" y2="11.8085" gradientUnits="userSpaceOnUse">
<stop stop-color="#FF66A9"/>
<stop offset="1" stop-color="#F53689"/>
</linearGradient>
<linearGradient id="paint2_linear_1385_19163" x1="144.185" y1="28.852" x2="148.163" y2="28.852" gradientUnits="userSpaceOnUse">
<stop stop-color="#83A6FF"/>
<stop offset="1" stop-color="#5A78FF"/>
</linearGradient>
<linearGradient id="paint3_linear_1385_19163" x1="70.8407" y1="109.937" x2="98.3368" y2="109.937" gradientUnits="userSpaceOnUse">
<stop stop-color="#83A6FF"/>
<stop offset="1" stop-color="#5A78FF"/>
</linearGradient>
<linearGradient id="paint4_linear_1385_19163" x1="89.4121" y1="96.3512" x2="91.4063" y2="96.3512" gradientUnits="userSpaceOnUse">
<stop stop-color="#83A6FF"/>
<stop offset="1" stop-color="#5A78FF"/>
</linearGradient>
<linearGradient id="paint5_linear_1385_19163" x1="153.781" y1="72.5526" x2="155.339" y2="72.5526" gradientUnits="userSpaceOnUse">
<stop stop-color="#FF66A9"/>
<stop offset="1" stop-color="#F53689"/>
</linearGradient>
<linearGradient id="paint6_linear_1385_19163" x1="125.248" y1="82.3018" x2="143.281" y2="100.314" gradientUnits="userSpaceOnUse">
<stop stop-color="#EF4896"/>
<stop offset="1" stop-color="#F14D9A" stop-opacity="0"/>
</linearGradient>
</defs>
</svg>
