<svg width="16" height="16" viewBox="0 0 16 16" fill="none" xmlns="http://www.w3.org/2000/svg">
<path d="M10.5 4.66675H10.5083" stroke="#A0AEC0" stroke-width="2" stroke-linecap="round" stroke-linejoin="round"/>
<path d="M12.1673 1.33337H3.83398C2.45327 1.33337 1.33398 2.45266 1.33398 3.83337V12.1667C1.33398 13.5474 2.45327 14.6667 3.83398 14.6667H12.1673C13.548 14.6667 14.6673 13.5474 14.6673 12.1667V3.83337C14.6673 2.45266 13.548 1.33337 12.1673 1.33337Z" stroke="#A0AEC0" stroke-width="1.5" stroke-linecap="round" stroke-linejoin="round"/>
<path d="M1.33398 10.5001L4.66732 7.16675C5.04737 6.80105 5.47848 6.60852 5.91732 6.60852C6.35616 6.60852 6.78727 6.80105 7.16732 7.16675L11.334 11.3334" stroke="#A0AEC0" stroke-width="1.5" stroke-linecap="round" stroke-linejoin="round"/>
<path d="M9.66797 9.66671L10.5013 8.83337C10.8813 8.46767 11.3125 8.27515 11.7513 8.27515C12.1901 8.27515 12.6213 8.46767 13.0013 8.83337L14.668 10.5" stroke="#A0AEC0" stroke-width="1.5" stroke-linecap="round" stroke-linejoin="round"/>
</svg>
