<svg width="61" height="51" viewBox="0 0 61 51" fill="none" xmlns="http://www.w3.org/2000/svg">
<g opacity="0.3">
<ellipse cx="29.531" cy="22.5343" rx="22.529" ry="22.5343" fill="#9B51E0"/>
<ellipse cx="3.37935" cy="3.38015" rx="3.37935" ry="3.38015" fill="#9B51E0"/>
</g>
<path d="M43.5827 33.5834C43.5827 31.0521 41.5307 29.0001 38.9993 29.0001C36.468 29.0001 34.416 31.0521 34.416 33.5834C34.416 36.1147 36.468 38.1667 38.9993 38.1667C41.5307 38.1667 43.5827 36.1147 43.5827 33.5834Z" stroke="#9B51E0" stroke-width="2"/>
<path d="M28.4651 23.9359C29.2818 21.4858 31.5747 19.8333 34.1572 19.8333H43.8415C46.424 19.8333 48.7169 21.4858 49.5336 23.9359L54.7002 39.4359C55.9953 43.3211 53.1035 47.3333 49.0081 47.3333H28.9906C24.8952 47.3333 22.0034 43.3211 23.2985 39.4359L28.4651 23.9359Z" stroke="#9B51E0" stroke-width="2" stroke-linejoin="round"/>
<path d="M42.8235 19.8334L35.1752 19.8334L32.6066 16.8872C30.0886 13.9991 33.0261 9.6822 36.7023 10.8681L38.4032 11.4168C38.7905 11.5418 39.2082 11.5418 39.5955 11.4168L41.2964 10.8681C44.9726 9.68221 47.9101 13.9991 45.3921 16.8872L42.8235 19.8334Z" stroke="#9B51E0" stroke-width="2" stroke-linejoin="round"/>
</svg>
