<svg width="61" height="52" viewBox="0 0 61 52" fill="none" xmlns="http://www.w3.org/2000/svg">
<g opacity="0.3">
<ellipse cx="29.531" cy="22.5343" rx="22.529" ry="22.5343" fill="#0A82FD"/>
<ellipse cx="3.37935" cy="3.38015" rx="3.37935" ry="3.38015" fill="#0A82FD"/>
</g>
<path d="M42.472 30.5606C42.472 28.7887 40.8304 27.3523 38.8053 27.3523C36.7803 27.3523 35.1387 28.7887 35.1387 30.5606C35.1387 32.3325 36.7803 33.769 38.8053 33.769C40.8304 33.769 42.472 35.2054 42.472 36.9773C42.472 38.7492 40.8304 40.1856 38.8053 40.1856C36.7803 40.1856 35.1387 38.7492 35.1387 36.9773" stroke="#0A82FD" stroke-width="2" stroke-linecap="round"/>
<path d="M38.8047 24.6023V27.3523" stroke="#0A82FD" stroke-width="2" stroke-linecap="round" stroke-linejoin="round"/>
<path d="M38.8047 40.1855V42.9355" stroke="#0A82FD" stroke-width="2" stroke-linecap="round" stroke-linejoin="round"/>
<path d="M28.2698 24.1214C29.0865 21.6714 31.3793 20.0188 33.9619 20.0188H43.6461C46.2287 20.0188 48.5216 21.6714 49.3382 24.1214L54.5049 39.6214C55.8 43.5066 52.9082 47.5188 48.8128 47.5188H28.7953C24.6999 47.5188 21.8081 43.5066 23.1032 39.6214L28.2698 24.1214Z" stroke="#0A82FD" stroke-width="2" stroke-linejoin="round"/>
<path d="M42.6282 20.019L34.9799 20.019L32.4113 17.0727C29.8933 14.1846 32.8308 9.86775 36.507 11.0537L38.2079 11.6024C38.5952 11.7273 39.0129 11.7273 39.4002 11.6024L41.1011 11.0537C44.7773 9.86775 47.7148 14.1846 45.1968 17.0727L42.6282 20.019Z" stroke="#0A82FD" stroke-width="2" stroke-linejoin="round"/>
</svg>
