<svg width="20" height="20" viewBox="0 0 20 20" fill="none" xmlns="http://www.w3.org/2000/svg">
<path d="M15.0581 7.09166L7.92473 3.52499C3.13306 1.12499 1.1664 3.09166 3.5664 7.88332L4.2914 9.33332C4.49973 9.75832 4.49973 10.25 4.2914 10.675L3.5664 12.1167C1.1664 16.9083 3.12473 18.875 7.92473 16.475L15.0581 12.9083C18.2581 11.3083 18.2581 8.69166 15.0581 7.09166ZM12.3664 10.625H7.8664C7.52473 10.625 7.2414 10.3417 7.2414 9.99999C7.2414 9.65832 7.52473 9.37499 7.8664 9.37499H12.3664C12.7081 9.37499 12.9914 9.65832 12.9914 9.99999C12.9914 10.3417 12.7081 10.625 12.3664 10.625Z" fill="white"/>
</svg>
