<svg width="20" height="20" viewBox="0 0 20 20" fill="none" xmlns="http://www.w3.org/2000/svg">
<path d="M4 13.0659C5.65685 13.0659 7 11.7228 7 10.0659C7 8.40906 5.65685 7.06592 4 7.06592C2.34315 7.06592 1 8.40906 1 10.0659C1 11.7228 2.34315 13.0659 4 13.0659Z" stroke="#64748B" stroke-width="1.5" stroke-linecap="round" stroke-linejoin="round"/>
<path d="M16 7.06592C17.6569 7.06592 19 5.72277 19 4.06592C19 2.40906 17.6569 1.06592 16 1.06592C14.3431 1.06592 13 2.40906 13 4.06592C13 5.72277 14.3431 7.06592 16 7.06592Z" stroke="#64748B" stroke-width="1.5" stroke-linecap="round" stroke-linejoin="round"/>
<path d="M16 19.0659C17.6569 19.0659 19 17.7228 19 16.0659C19 14.4091 17.6569 13.0659 16 13.0659C14.3431 13.0659 13 14.4091 13 16.0659C13 17.7228 14.3431 19.0659 16 19.0659Z" stroke="#64748B" stroke-width="1.5" stroke-linecap="round" stroke-linejoin="round"/>
<path d="M6.69922 8.76572L13.2992 5.36572" stroke="#64748B" stroke-width="1.5" stroke-linecap="round" stroke-linejoin="round"/>
<path d="M6.69922 11.3657L13.2992 14.7657" stroke="#64748B" stroke-width="1.5" stroke-linecap="round" stroke-linejoin="round"/>
</svg>
