<svg width="21" height="21" viewBox="0 0 21 21" fill="none" xmlns="http://www.w3.org/2000/svg">
<path d="M10.6348 0.896484C7.9826 0.896484 5.43906 1.95005 3.5637 3.82542C1.68833 5.70078 0.634766 8.24432 0.634766 10.8965C0.634766 13.5486 1.68833 16.0922 3.5637 17.9676C5.43906 19.8429 7.9826 20.8965 10.6348 20.8965C13.2869 20.8965 15.8305 19.8429 17.7058 17.9676C19.5812 16.0922 20.6348 13.5486 20.6348 10.8965C20.6348 8.24432 19.5812 5.70078 17.7058 3.82542C15.8305 1.95005 13.2869 0.896484 10.6348 0.896484Z" fill="#1565C0"/>
<path d="M11.9858 13.5467H14.5737L14.98 10.9177H11.9853V9.4809C11.9853 8.3888 12.3421 7.42037 13.3637 7.42037H15.0053V5.12616C14.7168 5.08722 14.1068 5.00195 12.9542 5.00195C10.5474 5.00195 9.13632 6.27301 9.13632 9.1688V10.9177H6.66211V13.5467H9.13632V20.7725C9.62632 20.8462 10.1226 20.8962 10.6321 20.8962C11.0926 20.8962 11.5421 20.8541 11.9858 20.7941V13.5467Z" fill="white"/>
</svg>
