<svg width="18" height="17" viewBox="0 0 18 17" fill="none" xmlns="http://www.w3.org/2000/svg">
<path fill-rule="evenodd" clip-rule="evenodd" d="M1.90131 8.6344C1.90131 4.89276 4.93451 1.85957 8.67615 1.85957C12.4178 1.85957 15.451 4.89276 15.451 8.6344C15.451 12.376 12.4178 15.4092 8.67615 15.4092C4.93451 15.4092 1.90131 12.376 1.90131 8.6344ZM8.67615 0.296143C4.07105 0.296143 0.337891 4.02931 0.337891 8.6344C0.337891 13.2395 4.07105 16.9727 8.67615 16.9727C13.2812 16.9727 17.0144 13.2395 17.0144 8.6344C17.0144 4.02931 13.2812 0.296143 8.67615 0.296143ZM9.45786 4.10059C9.45786 3.66886 9.10787 3.31888 8.67615 3.31888C8.24442 3.31888 7.89443 3.66886 7.89443 4.10059V8.63452C7.89443 8.93061 8.06172 9.20129 8.32655 9.3337L11.3492 10.845C11.7353 11.0381 12.2049 10.8816 12.3979 10.4954C12.591 10.1093 12.4345 9.63972 12.0484 9.44664L9.45786 8.15139V4.10059Z" fill="#0A82FD"/>
</svg>
