<svg width="6" height="22" viewBox="0 0 6 22" fill="none" xmlns="http://www.w3.org/2000/svg">
<path d="M5 11C5 12.1046 4.10457 13 3 13C1.89543 13 1 12.1046 1 11C1 9.89543 1.89543 9 3 9C4.10457 9 5 9.89543 5 11Z" stroke="#9AA2B1" stroke-width="1.5"/>
<path d="M5 3C5 4.10457 4.10457 5 3 5C1.89543 5 1 4.10457 1 3C1 1.89543 1.89543 1 3 1C4.10457 1 5 1.89543 5 3Z" stroke="#9AA2B1" stroke-width="1.5"/>
<path d="M5 19C5 20.1046 4.10457 21 3 21C1.89543 21 1 20.1046 1 19C1 17.8954 1.89543 17 3 17C4.10457 17 5 17.8954 5 19Z" stroke="#9AA2B1" stroke-width="1.5"/>
</svg>
