<svg width="22" height="7" viewBox="0 0 22 7" fill="none" xmlns="http://www.w3.org/2000/svg">
<path d="M11 5.30615C9.89543 5.30615 9 4.41389 9 3.31323C9 2.21257 9.89543 1.32031 11 1.32031C12.1046 1.32031 13 2.21257 13 3.31323C13 4.41389 12.1046 5.30615 11 5.30615Z" stroke="#718096" stroke-width="1.5"/>
<path d="M19 5.30615C17.8954 5.30615 17 4.41389 17 3.31323C17 2.21257 17.8954 1.32031 19 1.32031C20.1046 1.32031 21 2.21257 21 3.31323C21 4.41389 20.1046 5.30615 19 5.30615Z" stroke="#718096" stroke-width="1.5"/>
<path d="M3 5.30615C1.89543 5.30615 1 4.41389 1 3.31323C1 2.21257 1.89543 1.32031 3 1.32031C4.10457 1.32031 5 2.21257 5 3.31323C5 4.41389 4.10457 5.30615 3 5.30615Z" stroke="#718096" stroke-width="1.5"/>
</svg>
