<svg width="1920" height="930" viewBox="0 0 1920 930" fill="none" xmlns="http://www.w3.org/2000/svg">
<path d="M1920 0H0V930H1920V0Z" fill="#0A82FD"/>
<g opacity="0.5">
<path opacity="0.3" d="M1246.72 486.967C1067.78 432.394 866.637 396.812 680.218 436.003C460.186 482.261 305.869 620.924 128.23 726.014C89.2672 749.059 46.4128 771.23 0 784.12V930H1920V679.997C1872.23 674.845 1825.02 666.829 1779.51 656.636C1594.06 615.083 1425.66 541.539 1246.72 486.967Z" fill="url(#paint0_linear_1_15512)"/>
<path opacity="0.3" d="M0 0V77.562C52.1472 83.8302 103.68 92.7582 153.498 103.844C380.774 154.38 587.162 243.846 806.451 310.248C1025.74 376.65 1272.27 419.932 1500.72 372.26C1661.36 338.725 1793.43 265.292 1920 184.363V0H0Z" fill="#0A82FD"/>
</g>
<path d="M397.824 496.265C400.312 496.265 402.33 494.25 402.33 491.765C402.33 489.279 400.312 487.265 397.824 487.265C395.336 487.265 393.318 489.279 393.318 491.765C393.318 494.25 395.336 496.265 397.824 496.265Z" fill="white"/>
<path d="M1469.85 324.756C1472.34 324.756 1474.35 323.291 1474.35 321.483C1474.35 319.675 1472.34 318.209 1469.85 318.209C1467.36 318.209 1465.34 319.675 1465.34 321.483C1465.34 323.291 1467.36 324.756 1469.85 324.756Z" fill="white"/>
<path d="M170.393 618.895C170.393 621.376 168.371 623.396 165.887 623.396C163.404 623.396 161.382 621.376 161.382 618.895C161.382 616.415 163.404 614.396 165.887 614.396C168.371 614.396 170.393 616.415 170.393 618.895Z" fill="white"/>
<path d="M1583.13 101.445C1583.13 103.249 1581.11 104.718 1578.62 104.718C1576.14 104.718 1574.12 103.249 1574.12 101.445C1574.12 99.6403 1576.14 98.1709 1578.62 98.1709C1581.11 98.1895 1583.13 99.6403 1583.13 101.445Z" fill="white"/>
<path d="M1529.73 398.636C1529.73 400.44 1527.71 401.91 1525.22 401.91C1522.74 401.91 1520.72 400.44 1520.72 398.636C1520.72 396.832 1522.74 395.362 1525.22 395.362C1527.71 395.362 1529.73 396.832 1529.73 398.636Z" fill="white"/>
<path d="M498.867 692.59C501.355 692.59 503.373 691.125 503.373 689.317C503.373 687.509 501.355 686.043 498.867 686.043C496.379 686.043 494.361 687.509 494.361 689.317C494.361 691.125 496.379 692.59 498.867 692.59Z" fill="white"/>
<path d="M1490.92 647.912C1490.92 649.716 1488.9 651.186 1486.41 651.186C1483.93 651.186 1481.91 649.716 1481.91 647.912C1481.91 646.108 1483.93 644.639 1486.41 644.639C1488.9 644.639 1490.92 646.108 1490.92 647.912Z" fill="white"/>
<path d="M187.776 237.429C187.776 239.233 185.753 240.702 183.27 240.702C180.787 240.702 178.765 239.233 178.765 237.429C178.765 235.625 180.787 234.155 183.27 234.155C185.753 234.155 187.776 235.625 187.776 237.429Z" fill="white"/>
<path d="M1775.39 336.214C1777.87 336.214 1779.89 334.749 1779.89 332.941C1779.89 331.133 1777.87 329.667 1775.39 329.667C1772.9 329.667 1770.88 331.133 1770.88 332.941C1770.88 334.749 1772.9 336.214 1775.39 336.214Z" fill="white"/>
<path d="M152.192 530.863C152.941 530.863 153.549 530.422 153.549 529.877C153.549 529.333 152.941 528.892 152.192 528.892C151.442 528.892 150.835 529.333 150.835 529.877C150.835 530.422 151.442 530.863 152.192 530.863Z" fill="white"/>
<path d="M361.702 457.821C361.702 458.36 361.087 458.807 360.345 458.807C359.603 458.807 358.988 458.36 358.988 457.821C358.988 457.281 359.603 456.835 360.345 456.835C361.113 456.835 361.702 457.263 361.702 457.821Z" fill="white"/>
<path d="M1821.23 297.545C1821.98 297.545 1822.59 297.103 1822.59 296.559C1822.59 296.015 1821.98 295.573 1821.23 295.573C1820.49 295.573 1819.88 296.015 1819.88 296.559C1819.88 297.103 1820.49 297.545 1821.23 297.545Z" fill="white"/>
<path d="M1520.74 334.968C1521.49 334.968 1522.1 334.526 1522.1 333.982C1522.1 333.437 1521.49 332.996 1520.74 332.996C1519.99 332.996 1519.39 333.437 1519.39 333.982C1519.39 334.526 1519.99 334.968 1520.74 334.968Z" fill="white"/>
<path d="M1239.6 68.3925C1240.35 68.3925 1240.96 67.9511 1240.96 67.4067C1240.96 66.8623 1240.35 66.4209 1239.6 66.4209C1238.85 66.4209 1238.25 66.8623 1238.25 67.4067C1238.25 67.9511 1238.85 68.3925 1239.6 68.3925Z" fill="white"/>
<path d="M1775.39 541.111C1776.13 541.111 1776.74 540.67 1776.74 540.126C1776.74 539.581 1776.13 539.14 1775.39 539.14C1774.64 539.14 1774.03 539.581 1774.03 540.126C1774.03 540.67 1774.64 541.111 1775.39 541.111Z" fill="white"/>
<path d="M1474.64 720.583C1475.39 720.583 1475.99 720.142 1475.99 719.597C1475.99 719.053 1475.39 718.611 1474.64 718.611C1473.89 718.611 1473.28 719.053 1473.28 719.597C1473.28 720.142 1473.89 720.583 1474.64 720.583Z" fill="white"/>
<path d="M276.454 196.23C276.454 196.769 275.839 197.216 275.097 197.216C274.355 197.216 273.74 196.769 273.74 196.23C273.74 195.691 274.355 195.244 275.097 195.244C275.865 195.244 276.454 195.691 276.454 196.23Z" fill="white"/>
<path d="M500.224 59.6503C500.973 59.6503 501.581 59.209 501.581 58.6645C501.581 58.1201 500.973 57.6787 500.224 57.6787C499.475 57.6787 498.867 58.1201 498.867 58.6645C498.867 59.209 499.475 59.6503 500.224 59.6503Z" fill="white"/>
<path d="M213.196 621.564C213.196 622.939 212.044 624.064 210.636 624.064C209.228 624.064 208.076 622.939 208.076 621.564C208.076 620.189 209.228 619.064 210.636 619.064C212.07 619.064 213.196 620.189 213.196 621.564Z" fill="white"/>
<path d="M1188.84 55.8375C1188.84 56.8605 1187.69 57.6975 1186.28 57.6975C1184.87 57.6975 1183.72 56.8605 1183.72 55.8375C1183.72 54.8145 1184.87 53.9775 1186.28 53.9775C1187.69 53.9775 1188.84 54.8145 1188.84 55.8375Z" fill="white"/>
<path d="M280.218 274.387C280.218 275.41 279.066 276.247 277.658 276.247C276.25 276.247 275.098 275.41 275.098 274.387C275.098 273.364 276.25 272.527 277.658 272.527C279.091 272.546 280.218 273.364 280.218 274.387Z" fill="white"/>
<path d="M198.246 157.561C198.246 158.584 197.094 159.421 195.686 159.421C194.278 159.421 193.126 158.584 193.126 157.561C193.126 156.538 194.278 155.701 195.686 155.701C197.094 155.701 198.246 156.538 198.246 157.561Z" fill="white"/>
<path opacity="0.39" d="M1458 157.683C1461.5 159.148 1458.94 175.51 1458.94 175.51C1458.94 175.51 1475.07 181.766 1474.61 184.845C1474.15 187.949 1457.43 191.226 1457.43 191.226C1457.43 191.226 1456.1 208.084 1453.11 208.556C1450.11 209.052 1441.54 194.677 1441.54 194.677C1441.54 194.677 1424.95 198.351 1423.21 196.042C1421.47 193.733 1433.24 181.096 1433.24 181.096C1433.24 181.096 1424.46 166.646 1426.23 164.61C1427.99 162.574 1443.99 169.253 1443.99 169.253C1443.99 169.253 1454.51 156.218 1458 157.683Z" fill="white"/>
<g opacity="0.27">
<path opacity="0.43" d="M2108.88 288.905C1995.55 271.909 1932.74 289.388 1838.64 335.802C1775.4 366.953 1722.11 411.349 1646.74 424.793C1554.69 441.221 1459.6 405.778 1388.69 362.406C1317.72 319.033 1257.56 265.855 1174.22 234.476C1001.18 169.332 779.6 218.19 623.618 301.155C556.168 337.053 495.148 379.09 421.701 408.962C348.254 438.805 256.878 455.432 176.878 434.911C111.098 418.028 62.6895 378.919 0 357.204V31H2109V288.905H2108.88Z" fill="url(#paint1_linear_1_15512)"/>
<path opacity="0.6" d="M-25 162.631C79.937 145.289 138.061 163.118 225.273 210.537C283.802 242.374 333.19 287.695 402.979 301.441C488.222 318.221 576.242 282.001 641.941 237.729C707.691 193.382 763.391 139.072 840.554 107.01C1000.84 40.4892 1206.02 90.3797 1350.44 175.104C1412.91 211.773 1469.42 254.696 1537.44 285.223C1605.46 315.711 1690.1 332.678 1764.18 311.703C1825.13 294.474 1869.93 254.509 1928 232.336V0H-25V162.631Z" fill="url(#paint2_linear_1_15512)"/>
<g opacity="0.4">
<path d="M442.175 388.704C442.175 392.257 436.486 395.127 429.444 395.127C422.403 395.127 416.713 392.257 416.713 388.704C416.713 385.152 422.403 382.282 429.444 382.282C436.486 382.282 442.175 385.152 442.175 388.704Z" fill="white"/>
<path d="M457.95 344.857C457.95 346.988 454.513 348.722 450.288 348.722C446.063 348.722 442.627 346.988 442.627 344.857C442.627 342.726 446.063 340.992 450.288 340.992C454.57 340.992 457.95 342.726 457.95 344.857Z" fill="white"/>
<path d="M280.332 370.887C282.852 370.887 284.894 369.856 284.894 368.585C284.894 367.314 282.852 366.283 280.332 366.283C277.811 366.283 275.769 367.314 275.769 368.585C275.769 369.856 277.811 370.887 280.332 370.887Z" fill="white"/>
<path d="M1738.73 795.291C1738.73 796.57 1736.71 797.593 1734.17 797.593C1731.64 797.593 1729.61 796.57 1729.61 795.291C1729.61 794.012 1731.64 792.989 1734.17 792.989C1736.71 792.989 1738.73 794.012 1738.73 795.291Z" fill="white"/>
<path d="M1618.52 861.673C1621.04 861.673 1623.08 860.642 1623.08 859.371C1623.08 858.1 1621.04 857.069 1618.52 857.069C1616 857.069 1613.96 858.1 1613.96 859.371C1613.96 860.642 1616 861.673 1618.52 861.673Z" fill="white"/>
</g>
<g opacity="0.6">
<path d="M-84.9873 1292.75L635.51 929.304" stroke="white" stroke-width="0.49" stroke-miterlimit="10"/>
<path d="M646.664 935.527C653.142 932.259 653.142 926.945 646.664 923.678C640.186 920.41 629.651 920.41 623.173 923.678C616.695 926.945 616.695 932.259 623.173 935.527C629.651 938.795 640.186 938.795 646.664 935.527Z" fill="white"/>
</g>
<g opacity="0.6">
<path d="M1619.08 565.857C1612.6 572.295 1602.07 572.295 1595.59 565.857C1589.11 559.42 1589.11 548.951 1595.59 542.514C1602.07 536.076 1612.6 536.076 1619.08 542.514C1625.56 548.951 1625.56 559.42 1619.08 565.857Z" fill="white"/>
</g>
<g opacity="0.6">
<path d="M601.203 520.245L1501.35 66.1729" stroke="white" stroke-width="0.49" stroke-miterlimit="10"/>
<path d="M613.54 539.742C607.062 546.18 596.527 546.18 590.049 539.742C583.571 533.304 583.571 522.836 590.049 516.399C596.527 509.961 607.062 509.961 613.54 516.399C620.018 522.836 620.018 533.304 613.54 539.742Z" fill="white"/>
<path d="M1512.5 86.2675C1518.98 79.8298 1518.98 69.3616 1512.5 62.9239C1506.02 56.4863 1495.49 56.4863 1489.01 62.9239C1482.53 69.3616 1482.53 79.8298 1489.01 86.2675C1495.49 92.7051 1506.02 92.7051 1512.5 86.2675Z" fill="white"/>
</g>
<g opacity="0.6">
<path d="M1005.84 373.301L1905.99 -80.7988" stroke="white" stroke-width="0.49" stroke-miterlimit="10"/>
<path d="M1018.18 378.928C1011.7 382.196 1001.17 382.196 994.689 378.928C988.211 375.66 988.211 370.346 994.689 367.078C1001.17 363.81 1011.7 363.81 1018.18 367.078C1024.66 370.346 1024.66 375.631 1018.18 378.928Z" fill="white"/>
</g>
<path opacity="0.6" d="M168.388 583.616C189.824 583.616 207.201 566.327 207.201 544.999C207.201 523.672 189.824 506.383 168.388 506.383C146.952 506.383 129.574 523.672 129.574 544.999C129.574 566.327 146.952 583.616 168.388 583.616Z" fill="white"/>
<path opacity="0.6" d="M168.387 621C210.575 621 244.775 586.974 244.775 545C244.775 503.026 210.575 469 168.387 469C126.2 469 92 503.026 92 545C92 586.974 126.2 621 168.387 621Z" stroke="white" stroke-width="0.49" stroke-miterlimit="10"/>
<path opacity="0.6" d="M1790.45 582.088C1770.5 592.836 1745.66 585.35 1734.91 565.445C1724.16 545.498 1731.65 520.659 1751.55 509.912C1771.5 499.164 1796.34 506.65 1807.09 526.555C1817.84 546.502 1810.35 571.383 1790.45 582.088Z" fill="white"/>
<path opacity="0.6" d="M1620.81 250.466C1628.02 227.493 1596.95 205.923 1551.4 202.288C1505.86 198.652 1463.1 214.328 1455.9 237.301C1448.69 260.274 1479.77 281.844 1525.31 285.479C1570.85 289.114 1613.61 273.438 1620.81 250.466Z" stroke="white" stroke-width="0.49" stroke-miterlimit="10"/>
<path opacity="0.45" d="M43.3467 739.388C146.123 748.175 203.09 739.125 288.428 715.129C345.788 699.014 394.12 676.04 462.47 669.063C545.958 660.567 632.193 678.9 696.505 701.35C760.874 723.799 815.43 751.327 891.012 767.559C1047.95 801.276 1248.91 775.995 1390.37 733.053C1451.54 714.486 1506.88 692.709 1573.5 677.266C1640.11 661.823 1722.98 653.211 1795.59 663.837C1855.25 672.566 1899.15 692.825 1956 704.035V989.131H43.3467V739.388Z" fill="url(#paint3_linear_1_15512)"/>
</g>
<g opacity="0.63">
<path d="M284.518 273.75C282.364 274.377 281.189 275.906 279.936 278.728C284.126 281.236 286.281 283.157 289.022 286.92C290.041 284.921 291.372 283.902 294.388 282.412C291.568 278.61 288.67 276.298 284.518 273.75Z" fill="url(#paint4_linear_1_15512)"/>
<path d="M1207.72 191.36C1204.39 192.615 1202.71 194.457 1201.54 198.18C1203.61 201.316 1205.57 203.315 1208.27 204.295C1211.48 201.826 1214.26 201.12 1219.16 200.336C1214.34 197.632 1211.44 195.75 1207.72 191.36Z" fill="url(#paint5_linear_1_15512)"/>
<path d="M633.142 190.772C627.111 183.834 622.606 180.189 616.026 176.23C613.206 181.679 612.423 185.598 612.54 189.439C617.084 190.89 619.63 193.633 623.194 198.18C625.936 193.673 628.442 192.026 633.142 190.772Z" fill="url(#paint6_linear_1_15512)"/>
<path d="M642.779 570.854C641.878 572.931 640.664 574.577 638.666 576.458C644.032 578.418 647.557 579.986 651.16 582.455C653.784 581.005 654.724 579.594 655.703 577.478C653.158 575.596 648.419 573.127 642.779 570.854Z" fill="url(#paint7_linear_1_15512)"/>
<path d="M316.164 138.76C319.376 144.051 323.332 149.539 329.912 152.322C334.847 150.754 338.293 149.97 343.62 149.774C340.369 146.521 340.173 143.346 341.74 136.996C334.142 139.269 326.504 139.113 316.164 138.76Z" fill="url(#paint8_linear_1_15512)"/>
<path d="M1423.08 830.312C1416.14 829.763 1412.15 828.861 1405.72 826C1404.27 829.136 1403.61 832.036 1404.24 835.211C1408.35 837.524 1413.99 839.248 1421.74 840.777C1420.29 835.956 1420.37 833.251 1423.08 830.312Z" fill="url(#paint9_linear_1_15512)"/>
<path d="M752.172 402.664C758.243 398 762.159 395.844 769.523 393.453C768.387 389.847 766.82 386.947 764 384.791C758.909 385.928 753.073 388.671 745.592 393.061C750.331 396.001 752.25 398.274 752.172 402.664Z" fill="url(#paint10_linear_1_15512)"/>
<path d="M357.133 90.3917C352.825 92.0379 349.692 92.0771 344.952 89.2158C344.522 95.2912 345.657 99.3675 348.242 106.697C352.042 108.814 354.509 108.657 359.131 106.893C356.977 100.583 355.88 95.9183 357.133 90.3917Z" fill="url(#paint11_linear_1_15512)"/>
<path d="M671.096 311.692C667.258 310.594 664.046 310.124 660.795 310.947C659.934 313.455 659.895 315.219 660.443 317.218C664.438 316.552 666.788 316.748 670.587 318.041C669.843 315.376 669.765 313.691 671.096 311.692Z" fill="url(#paint12_linear_1_15512)"/>
<path d="M1400.35 429.906C1402.34 436.295 1401.6 440.488 1399.52 446.446C1410.37 445.192 1421.14 442.683 1425.45 440.057C1425.02 434.805 1423.45 430.533 1420.52 424.928C1415.66 427.985 1409.94 428.847 1400.35 429.906Z" fill="url(#paint13_linear_1_15512)"/>
<path d="M1430.7 342.499C1431.56 349.084 1430.11 353.043 1427.06 358.53C1437.91 359.157 1448.84 358.569 1453.5 356.727C1453.97 351.553 1453.18 347.085 1451.26 341.088C1446.02 343.244 1440.3 343.126 1430.7 342.499Z" fill="url(#paint14_linear_1_15512)"/>
<path d="M836.381 158.75C838.457 158.828 840.219 159.416 842.138 161.494C845.624 155.575 847.073 151.342 848.875 145.031C845.781 142.523 843.509 141.857 841.825 141.543C841.512 148.559 839.71 152.714 836.381 158.75Z" fill="url(#paint15_linear_1_15512)"/>
<path d="M1713.21 721.17C1711.29 717.721 1710.51 715.8 1710.55 712.468C1709.02 712.821 1708 712.821 1707.14 712.272C1706.87 715.878 1707.53 718.348 1709.26 722.228C1710.71 722.228 1711.96 721.836 1713.21 721.17Z" fill="url(#paint16_linear_1_15512)"/>
<path d="M215.388 115.556C211.51 118.025 209.395 119.083 205.518 119.318C206.027 121.082 206.105 122.219 205.518 123.277C209.748 123.316 212.528 122.337 216.876 120.063C216.759 118.339 216.249 116.928 215.388 115.556Z" fill="url(#paint17_linear_1_15512)"/>
<path d="M242.061 556.195C247.27 557.528 251.891 561.016 258.746 572.148C263.015 568.424 265.678 564.034 267.48 557.214C261.252 549.649 256.905 545.651 248.288 541.653C247.857 547.415 246.134 550.629 242.061 556.195Z" fill="url(#paint18_linear_1_15512)"/>
<path d="M839.573 660.839C836.988 660.173 834.677 658.487 831.269 653C829.154 654.842 827.862 657.037 827 660.408C830.094 664.132 832.248 666.091 836.518 668.051C836.713 665.19 837.575 663.583 839.573 660.839Z" fill="url(#paint19_linear_1_15512)"/>
<path d="M412.986 192.418C414.005 196.651 415.297 199.003 418.861 202.452C422.308 198.219 425.089 196.416 428.692 195.28C428.026 191.242 426.891 188.656 424.658 184.854C421.133 188.303 418.039 190.145 412.986 192.418Z" fill="url(#paint20_linear_1_15512)"/>
<path d="M163.492 192.654C164.98 192.105 165.646 191.086 166.743 189.4C162.944 187.205 159.536 183.717 156.011 179.327C155.071 180.66 154.17 181.248 152.525 181.914C155.972 186.774 158.361 189.204 163.492 192.654Z" fill="url(#paint21_linear_1_15512)"/>
<path d="M873.55 77.2999C875.704 74.6346 876.605 72.9492 876.448 69.2648C871.317 66.7563 868.458 64.9141 864.032 61.4648C863.405 63.4246 862.583 64.6397 861.643 65.5412C866.852 69.3432 869.554 72.3221 873.55 77.2999Z" fill="url(#paint22_linear_1_15512)"/>
<path d="M411.419 586.062C410.127 589.55 410.949 592.608 413.417 597.115C420.897 594.058 425.637 593.117 433.313 593.196C431.708 589.825 431.668 587.042 432.687 581.594C424.893 581.554 418.939 583.083 411.419 586.062Z" fill="url(#paint23_linear_1_15512)"/>
<path d="M906.098 336.385C895.836 337.404 889.648 339.128 881.736 342.578C884.87 348.692 887.964 351.946 891.528 354.336C895.797 351.122 899.949 350.574 906.411 350.299C904.061 344.851 904.218 341.48 906.098 336.385Z" fill="url(#paint24_linear_1_15512)"/>
<path d="M1117.32 180.581C1115.37 178.621 1114.07 176.505 1112.78 173.369C1108.12 178.621 1104.75 181.914 1100.33 184.893C1100.8 188.538 1101.93 190.223 1103.93 192.301C1107.26 190.223 1112.23 185.951 1117.32 180.581Z" fill="url(#paint25_linear_1_15512)"/>
<path d="M1234.2 362.999C1229.89 361.314 1227.54 359.981 1224.02 356.963C1222.49 358.688 1221.51 360.412 1221.31 362.529C1223.47 364.802 1226.72 366.958 1231.34 369.427C1231.38 366.017 1231.93 364.332 1234.2 362.999Z" fill="url(#paint26_linear_1_15512)"/>
<path d="M1385.03 490.385C1383.78 494.108 1382.76 496.147 1380.29 499.243C1381.78 500.458 1383.31 501.242 1385.11 501.32C1386.95 499.4 1388.64 496.539 1390.55 492.541C1387.7 492.658 1386.25 492.266 1385.03 490.385Z" fill="url(#paint27_linear_1_15512)"/>
<path d="M438.17 346.576C437.387 353.905 437.504 359.863 439.972 365.507C444.828 366.33 448.001 365.86 451.408 364.175C448.941 357.12 448.588 352.808 449.763 345.518C445.259 347.791 442.243 348.418 438.17 346.576Z" fill="url(#paint28_linear_1_15512)"/>
<path d="M1562.77 335.327C1557.37 333.289 1554.98 330.545 1552.04 325.959C1547.1 333.955 1543.07 342.578 1542.52 346.89C1546.28 349.398 1550 350.613 1555.37 351.593C1555.92 346.694 1558.34 342.382 1562.77 335.327Z" fill="url(#paint29_linear_1_15512)"/>
<path d="M1596.89 253.368C1597.98 252.074 1599.32 251.251 1601.63 251.055C1599.63 245.764 1597.67 242.628 1594.54 238.238C1591.33 238.944 1589.72 240.041 1588.66 240.982C1592.97 244.823 1594.73 248.116 1596.89 253.368Z" fill="url(#paint30_linear_1_15512)"/>
<path d="M1130.25 52.7635C1131.62 57.075 1132.05 59.3876 1131.27 63.1504C1133.07 63.1112 1134.17 63.3463 1135.03 64.1695C1136.16 60.1715 1135.97 57.2318 1134.91 52.5283C1133.27 52.1755 1131.78 52.3323 1130.25 52.7635Z" fill="url(#paint31_linear_1_15512)"/>
<path d="M716.961 181.954C723.306 177.211 726.831 175.134 733.49 174.232C732.354 171.292 732.119 169.293 732.942 167.451C725.696 167.922 720.996 169.96 713.828 174.428C714.22 177.329 715.316 179.68 716.961 181.954Z" fill="url(#paint32_linear_1_15512)"/>
<path d="M262.271 215.543C259.96 214.681 258.002 212.839 255.378 207.391C253.224 208.88 251.775 210.761 250.6 213.819C253.106 217.621 254.908 219.659 258.668 221.932C259.177 219.306 260.117 217.934 262.271 215.543Z" fill="url(#paint33_linear_1_15512)"/>
<path d="M1534.41 777.73C1535.78 782.355 1537.35 784.903 1541.46 788.509C1545.03 783.648 1548.04 781.493 1552 780.042C1551.06 775.613 1549.65 772.791 1546.99 768.715C1543.23 772.713 1539.9 774.908 1534.41 777.73Z" fill="url(#paint34_linear_1_15512)"/>
<path d="M1159 849.908C1164.44 851.163 1167.54 851.202 1172.83 848.301C1172.75 839.012 1173.37 833.446 1175.18 824.51C1171.89 825.019 1169.46 824.666 1167.5 824C1165.74 834.348 1163.39 840.462 1159 849.908Z" fill="url(#paint35_linear_1_15512)"/>
<path d="M717.079 88.3934C720.212 85.1401 720.8 81.299 720.212 75.0668C710.381 74.8708 704.624 73.6166 696.085 69.7754C696.281 74.3221 694.91 77.4186 691.15 83.0628C699.845 86.904 707.248 88.0798 717.079 88.3934Z" fill="url(#paint36_linear_1_15512)"/>
<path d="M1677.69 560.78C1680.27 562.074 1682.74 561.721 1686.46 560.192C1684.74 554.117 1684.42 550.354 1685.17 544.357C1682.43 545.337 1680.23 545.102 1676.08 543.809C1675.34 549.923 1676 554.705 1677.69 560.78Z" fill="url(#paint37_linear_1_15512)"/>
<path d="M1663.67 699.141C1667.35 702.708 1670.68 703.766 1676.24 702.983C1679.02 698.357 1680.43 694.673 1680.04 690.557C1674.91 687.931 1672.32 684.717 1668.37 678.838C1667.7 686.795 1667.07 691.694 1663.67 699.141Z" fill="url(#paint38_linear_1_15512)"/>
<path d="M598.833 104.149C593.584 100.112 587.474 96.1922 579.798 95.957C575.489 99.4455 572.356 101.601 567.068 103.875C571.573 105.874 573.022 108.931 573.923 115.908C580.659 110.655 588.375 107.833 598.833 104.149Z" fill="url(#paint39_linear_1_15512)"/>
<path d="M285.576 668.726C287.573 665.825 288.944 664.297 291.804 662.18C290.785 660.769 289.688 659.711 288.122 659.201C286.046 660.416 283.892 662.494 281.268 665.512C283.774 666.1 284.949 666.805 285.576 668.726Z" fill="url(#paint40_linear_1_15512)"/>
<path d="M1029.79 78.5547C1025.09 74.1648 1020.82 71.1075 1015.57 69.9316C1012.48 72.9105 1011.14 75.3799 1010.52 78.6331C1016.75 80.5929 1019.96 82.5919 1024.42 87.2562C1025.24 82.9054 1026.42 80.4753 1029.79 78.5547Z" fill="url(#paint41_linear_1_15512)"/>
<path d="M1662.37 813.633C1667.43 808.929 1671.62 807.793 1678.12 807.048C1672.13 797.523 1665.04 788.665 1660.65 785.765C1655.99 788.469 1652.7 791.84 1648.78 797.092C1653.8 800.267 1657.09 805.206 1662.37 813.633Z" fill="url(#paint42_linear_1_15512)"/>
<path d="M742.968 764.246C741.049 762.286 739.874 760.052 739.913 756.328C731.14 758.837 725.891 761.541 718.371 765.97C719.037 771.223 720.643 773.927 721.974 775.769C728.75 769.341 734.273 766.989 742.968 764.246Z" fill="url(#paint43_linear_1_15512)"/>
<path d="M1287.61 848.93C1288.98 846.578 1290.74 844.853 1294.3 843.912C1289.57 836.23 1285.57 831.958 1279.34 826C1274.53 828.038 1272.37 830.312 1271 832.036C1278.95 836.74 1282.67 841.365 1287.61 848.93Z" fill="url(#paint44_linear_1_15512)"/>
<path d="M297.129 495.833C302.221 493.678 304.962 492.854 309.623 493.364C309.349 491.169 309.506 489.797 310.407 488.66C305.393 487.798 301.907 488.386 296.267 490.189C296.032 492.227 296.385 494.03 297.129 495.833Z" fill="url(#paint45_linear_1_15512)"/>
<path d="M594.289 713.761C589.354 715.329 583.793 714.859 572.552 709.293C570.985 714.506 571.024 719.445 573.022 725.912C581.952 728.891 587.514 729.91 596.6 728.812C594.015 723.874 593.819 720.385 594.289 713.761Z" fill="url(#paint46_linear_1_15512)"/>
<path d="M134.744 618.595C140.11 620.241 143.596 620.358 149.706 618.673C147.278 612.088 147.121 607.816 148.218 602.995C143.322 601.074 139.679 600.604 134 600.564C135.528 606.836 135.528 611.461 134.744 618.595Z" fill="url(#paint47_linear_1_15512)"/>
<path d="M1613.14 732.889C1615.88 732.537 1617.49 731.047 1620.03 728.539C1614.32 723.208 1609.81 715.878 1605.39 706.863C1603.23 708.784 1601.47 709.489 1598.34 709.999C1602.41 719.759 1605.58 724.893 1613.14 732.889Z" fill="url(#paint48_linear_1_15512)"/>
<path d="M743.085 304.479C739.442 308.399 737.875 310.947 737.719 316.669C745.435 321.099 749.704 324.313 756.245 330.114C757.42 327.135 758.869 325.292 760.396 324.038C752.72 317.61 748.803 312.671 743.085 304.479Z" fill="url(#paint49_linear_1_15512)"/>
<path d="M1265.3 304.832C1264.16 307.497 1264.67 309.927 1266.43 313.533C1272.39 311.456 1276.11 310.868 1282.1 311.26C1280.97 308.555 1281.08 306.4 1282.06 302.167C1275.95 301.853 1271.29 302.794 1265.3 304.832Z" fill="url(#paint50_linear_1_15512)"/>
<path d="M692.99 495.755C694.792 498.89 696.868 500.262 700.784 500.85C703.605 498.263 705.25 496.029 705.798 493.129C702.821 490.346 701.685 487.641 700.119 482.859C698.16 488.112 696.75 491.326 692.99 495.755Z" fill="url(#paint51_linear_1_15512)"/>
<path d="M466.449 90.9792C471.815 92.2727 475.262 92.5078 479.883 92.1551C479.374 88.5099 478.395 86.3149 476.985 84.4727C474.243 85.335 472.089 84.8647 468.76 83.8848C468.995 87.0596 468.29 88.745 466.449 90.9792Z" fill="url(#paint52_linear_1_15512)"/>
<path d="M1491.37 270.379C1486.51 277.748 1484.28 282.843 1482.32 290.016C1488.08 291.192 1491.92 290.917 1495.44 289.82C1495.64 285.234 1497.48 282.177 1500.77 277.709C1495.87 276.297 1493.76 274.377 1491.37 270.379Z" fill="url(#paint53_linear_1_15512)"/>
<path d="M1652.74 354.297C1649.14 358.844 1645.65 364.135 1645.38 370.798C1648.39 374.6 1650.19 377.344 1652.11 382.008C1653.91 378.089 1656.62 376.874 1662.69 376.168C1658.18 370.25 1655.83 363.469 1652.74 354.297Z" fill="url(#paint54_linear_1_15512)"/>
<path d="M883 578.799C889.619 581.935 893.183 584.326 898.432 589.539C901.017 586.991 902.779 584.365 903.367 581.033C900.194 577.192 895.298 573.429 888.248 569C887.818 574.291 886.76 576.957 883 578.799Z" fill="url(#paint55_linear_1_15512)"/>
<path d="M1286.61 412.542C1288.88 412.699 1290.29 413.365 1291.81 415.639C1293.26 413.013 1293.62 410.935 1294.01 407.094C1292.75 405.369 1291.58 404.899 1289.15 404.703C1288.8 407.996 1288.33 410.308 1286.61 412.542Z" fill="url(#paint56_linear_1_15512)"/>
<path d="M788.441 51C786.522 53.6653 785.229 55.9779 784.955 58.7216C786.639 60.0934 787.971 60.6422 789.655 60.7598C790.243 57.5065 791.065 55.7427 793.141 53.195C790.908 53.0382 789.616 52.607 788.441 51Z" fill="url(#paint57_linear_1_15512)"/>
<path d="M1401.29 200.376C1399.99 199.631 1399.05 198.651 1398.54 196.691C1394.31 199.278 1391.96 201.473 1388.67 204.883C1389.81 207.549 1391.02 208.725 1391.96 209.469C1394.59 205.119 1397.13 203.08 1401.29 200.376Z" fill="url(#paint58_linear_1_15512)"/>
<path d="M945.54 188.303C950.945 182.189 954.078 179.406 960.619 177.132C958.896 174.389 958.23 172.429 958.7 170.391C951.493 172.35 947.146 175.368 940.84 181.326C941.819 184.227 943.425 186.383 945.54 188.303Z" fill="url(#paint59_linear_1_15512)"/>
<path d="M1212.58 77.3785C1212.54 80.0438 1212.97 81.6508 1214.58 84.2377C1217.24 82.2388 1219.2 81.5724 1221.51 81.4548C1221.7 78.9463 1221.43 77.2217 1220.69 74.6348C1218.02 76.1634 1215.91 76.7905 1212.58 77.3785Z" fill="url(#paint60_linear_1_15512)"/>
<path d="M543.217 475.883C544.353 479.019 546.546 480.469 550.189 482.742C554.849 474.59 562.213 467.299 571.495 459.656C568.636 457.696 567.344 455.776 565.934 452.248C555.594 459.734 550.502 464.83 543.217 475.883Z" fill="url(#paint61_linear_1_15512)"/>
<path d="M1374.34 176.896C1372.85 178.229 1372.5 179.758 1371.99 182.266C1377.55 183.129 1383.15 185.676 1389.42 189.243C1389.93 187.244 1390.71 186.108 1392.36 184.54C1386.01 180.385 1382.06 178.582 1374.34 176.896Z" fill="url(#paint62_linear_1_15512)"/>
<path d="M579.445 259.208C573.922 255.877 570.554 254.701 563.739 255.955C560.449 266.185 557.785 272.025 552.576 281.197C556.375 281.824 558.921 283.079 560.801 284.529C566.441 273.828 571.259 267.988 579.445 259.208Z" fill="url(#paint63_linear_1_15512)"/>
<path d="M308.645 381.499C311.387 379.069 312.601 377.423 313.071 373.464C308.058 369.936 305.316 367.506 301.243 363.116C300.264 365.076 299.167 366.252 298.031 367.036C302.849 371.896 305.238 375.541 308.645 381.499Z" fill="url(#paint64_linear_1_15512)"/>
<path d="M1567.47 535.97C1568.14 540.4 1570.8 543.182 1576.01 546.475C1582.12 538.91 1586.55 535.147 1594.73 530.757C1591.05 528.131 1589.44 525.231 1587.33 518.842C1579.06 523.389 1573.66 528.445 1567.47 535.97Z" fill="url(#paint65_linear_1_15512)"/>
<path d="M168.975 619.927C169.053 623.219 170.11 625.179 173.009 627.335C176.338 626.472 178.649 625.414 180.333 623.376C179.197 619.888 179.432 617.222 180.255 612.754C176.377 616.086 173.91 618.045 168.975 619.927Z" fill="url(#paint66_linear_1_15512)"/>
<path d="M727.027 246.156C725.891 249.096 726.087 251.251 727.889 254.23C731.179 254.701 733.607 254.583 735.879 253.407C736.153 249.88 737.328 247.606 739.717 243.922C735.017 245.49 732.079 246.313 727.027 246.156Z" fill="url(#paint67_linear_1_15512)"/>
<path d="M404.643 446.643C405.035 444.056 405.896 441.9 407.542 439.157C400.961 438.569 396.614 437.863 391.875 436.178C389.368 438.569 388.741 440.411 388.311 443.037C391.679 444.448 397.671 445.781 404.643 446.643Z" fill="url(#paint68_linear_1_15512)"/>
<path d="M470.522 722.738C466.527 720.111 461.983 717.603 456.461 717.799C453.523 720.503 451.408 722.228 447.727 724.109C451.056 725.285 452.231 727.441 453.249 732.38C457.792 728.303 463.158 725.912 470.522 722.738Z" fill="url(#paint69_linear_1_15512)"/>
<path d="M1021.09 849.173C1017.29 845.841 1012.86 842.549 1007.07 842C1003.62 844.43 1001.11 845.88 997 847.37C1000.33 849.094 1001.27 851.525 1001.58 856.855C1006.95 853.21 1012.94 851.446 1021.09 849.173Z" fill="url(#paint70_linear_1_15512)"/>
<path d="M217.229 343.754C211.746 345.753 208.377 346.419 202.463 346.458C202.424 349.359 202.933 351.828 204.5 354.023C208.456 354.376 213.351 353.71 219.814 352.22C217.072 349.006 216.171 346.89 217.229 343.754Z" fill="url(#paint71_linear_1_15512)"/>
<path d="M714.768 652.969C715.669 649.873 716.452 648.187 718.371 645.561C717.118 644.62 715.865 644.032 714.376 643.993C712.927 645.639 711.635 647.991 710.186 651.362C712.496 651.205 713.711 651.48 714.768 652.969Z" fill="url(#paint72_linear_1_15512)"/>
<path d="M1309.28 155.221C1308.81 152.948 1309.01 151.459 1310.77 149.303C1307.83 148.637 1305.72 148.872 1301.92 149.577C1300.59 151.302 1300.47 152.517 1300.98 154.908C1304.27 154.398 1306.66 154.202 1309.28 155.221Z" fill="url(#paint73_linear_1_15512)"/>
<path d="M556.18 552.824C550.423 555.137 546.036 557.606 542.824 561.682C544.156 565.602 545.762 567.797 548.347 569.678C552.616 565.053 555.671 563.054 561.585 561.055C558.099 558.547 556.454 556.587 556.18 552.824Z" fill="url(#paint74_linear_1_15512)"/>
<path d="M1483.77 125.942C1489.18 126.412 1491.92 127 1495.68 129.587C1496.46 127.588 1497.25 126.451 1498.5 125.902C1494.58 122.806 1491.29 121.709 1485.61 120.689C1484.48 122.336 1483.97 124.021 1483.77 125.942Z" fill="url(#paint75_linear_1_15512)"/>
<path d="M1374.69 617.34C1379.51 615.968 1384.92 616.596 1395.69 622.357C1397.37 617.34 1397.49 612.519 1395.73 606.169C1387.11 602.995 1381.74 601.819 1372.89 602.642C1375.24 607.541 1375.32 610.912 1374.69 617.34Z" fill="url(#paint76_linear_1_15512)"/>
<path d="M596.091 376.05C595.582 373.032 593.897 371.347 590.999 368.682C585.437 375.188 577.565 380.44 567.93 385.693C570.162 387.966 570.985 389.887 571.651 393.297C582.226 388.358 587.67 384.713 596.091 376.05Z" fill="url(#paint77_linear_1_15512)"/>
<path d="M809.944 497.793C814.605 493.874 816.68 491.208 817.62 484.702C809.474 478.626 805.048 474.472 798.468 467.024C796.744 470.238 794.864 472.12 792.984 473.374C800.818 481.644 804.578 487.759 809.944 497.793Z" fill="url(#paint78_linear_1_15512)"/>
</g>
<defs>
<linearGradient id="paint0_linear_1_15512" x1="-19.6165" y1="1326.84" x2="1536.32" y2="-142.382" gradientUnits="userSpaceOnUse">
<stop stop-color="white"/>
<stop offset="0.9993" stop-color="#3E85DB"/>
</linearGradient>
<linearGradient id="paint1_linear_1_15512" x1="1054.37" y1="30.992" x2="1054.37" y2="443.986" gradientUnits="userSpaceOnUse">
<stop offset="0.0401" stop-color="white" stop-opacity="0"/>
<stop offset="0.9671" stop-color="white" stop-opacity="0.9795"/>
<stop offset="0.9865" stop-color="white"/>
</linearGradient>
<linearGradient id="paint2_linear_1_15512" x1="951.508" y1="-0.00861473" x2="951.508" y2="321.014" gradientUnits="userSpaceOnUse">
<stop stop-color="white" stop-opacity="0"/>
<stop offset="0.9662" stop-color="white" stop-opacity="0.9795"/>
<stop offset="0.9865" stop-color="white"/>
</linearGradient>
<linearGradient id="paint3_linear_1_15512" x1="999.699" y1="989.156" x2="999.699" y2="659.15" gradientUnits="userSpaceOnUse">
<stop offset="0.0854" stop-color="#2390FF" stop-opacity="0"/>
<stop offset="1" stop-color="#2390FF"/>
</linearGradient>
<linearGradient id="paint4_linear_1_15512" x1="283.752" y1="283.968" x2="290.564" y2="276.118" gradientUnits="userSpaceOnUse">
<stop stop-color="#FF5C5C"/>
<stop offset="0.3013" stop-color="#F44444"/>
<stop offset="0.935" stop-color="#D60707"/>
<stop offset="1" stop-color="#D30000"/>
</linearGradient>
<linearGradient id="paint5_linear_1_15512" x1="1213.47" y1="194.893" x2="1204.7" y2="204.799" gradientUnits="userSpaceOnUse">
<stop stop-color="#FF5C5C"/>
<stop offset="0.3013" stop-color="#F44444"/>
<stop offset="0.935" stop-color="#D60707"/>
<stop offset="1" stop-color="#D30000"/>
</linearGradient>
<linearGradient id="paint6_linear_1_15512" x1="626.428" y1="180.902" x2="616.818" y2="194.112" gradientUnits="userSpaceOnUse">
<stop stop-color="#FF5C5C"/>
<stop offset="0.3013" stop-color="#F44444"/>
<stop offset="0.935" stop-color="#D60707"/>
<stop offset="1" stop-color="#D30000"/>
</linearGradient>
<linearGradient id="paint7_linear_1_15512" x1="644.325" y1="582.385" x2="649.571" y2="572.574" gradientUnits="userSpaceOnUse">
<stop stop-color="#FF5C5C"/>
<stop offset="0.3013" stop-color="#F44444"/>
<stop offset="0.935" stop-color="#D60707"/>
<stop offset="1" stop-color="#D30000"/>
</linearGradient>
<linearGradient id="paint8_linear_1_15512" x1="328.648" y1="136.576" x2="332.621" y2="154.733" gradientUnits="userSpaceOnUse">
<stop stop-color="#FF5C5C"/>
<stop offset="0.3013" stop-color="#F44444"/>
<stop offset="0.935" stop-color="#D60707"/>
<stop offset="1" stop-color="#D30000"/>
</linearGradient>
<linearGradient id="paint9_linear_1_15512" x1="1414.78" y1="827.817" x2="1411.77" y2="840.667" gradientUnits="userSpaceOnUse">
<stop stop-color="#FF5C5C"/>
<stop offset="0.3013" stop-color="#F44444"/>
<stop offset="0.935" stop-color="#D60707"/>
<stop offset="1" stop-color="#D30000"/>
</linearGradient>
<linearGradient id="paint10_linear_1_15512" x1="760.805" y1="398.622" x2="753.827" y2="385.888" gradientUnits="userSpaceOnUse">
<stop stop-color="#FF5C5C"/>
<stop offset="0.3013" stop-color="#F44444"/>
<stop offset="0.935" stop-color="#D60707"/>
<stop offset="1" stop-color="#D30000"/>
</linearGradient>
<linearGradient id="paint11_linear_1_15512" x1="358.531" y1="97.8835" x2="342.893" y2="99.2976" gradientUnits="userSpaceOnUse">
<stop stop-color="#FF5C5C"/>
<stop offset="0.3013" stop-color="#F44444"/>
<stop offset="0.935" stop-color="#D60707"/>
<stop offset="1" stop-color="#D30000"/>
</linearGradient>
<linearGradient id="paint12_linear_1_15512" x1="665.705" y1="310.586" x2="665.411" y2="317.816" gradientUnits="userSpaceOnUse">
<stop stop-color="#FF5C5C"/>
<stop offset="0.3013" stop-color="#F44444"/>
<stop offset="0.935" stop-color="#D60707"/>
<stop offset="1" stop-color="#D30000"/>
</linearGradient>
<linearGradient id="paint13_linear_1_15512" x1="1409.18" y1="425.991" x2="1413.61" y2="448.397" gradientUnits="userSpaceOnUse">
<stop stop-color="#FF5C5C"/>
<stop offset="0.3013" stop-color="#F44444"/>
<stop offset="0.935" stop-color="#D60707"/>
<stop offset="1" stop-color="#D30000"/>
</linearGradient>
<linearGradient id="paint14_linear_1_15512" x1="1440.03" y1="340.201" x2="1440.53" y2="362.861" gradientUnits="userSpaceOnUse">
<stop stop-color="#FF5C5C"/>
<stop offset="0.3013" stop-color="#F44444"/>
<stop offset="0.935" stop-color="#D60707"/>
<stop offset="1" stop-color="#D30000"/>
</linearGradient>
<linearGradient id="paint15_linear_1_15512" x1="838.56" y1="150.141" x2="848.466" y2="153.745" gradientUnits="userSpaceOnUse">
<stop stop-color="#FF5C5C"/>
<stop offset="0.3013" stop-color="#F44444"/>
<stop offset="0.935" stop-color="#D60707"/>
<stop offset="1" stop-color="#D30000"/>
</linearGradient>
<linearGradient id="paint16_linear_1_15512" x1="1706.69" y1="717.821" x2="1713.24" y2="715.976" gradientUnits="userSpaceOnUse">
<stop stop-color="#FF5C5C"/>
<stop offset="0.3013" stop-color="#F44444"/>
<stop offset="0.935" stop-color="#D60707"/>
<stop offset="1" stop-color="#D30000"/>
</linearGradient>
<linearGradient id="paint17_linear_1_15512" x1="211.982" y1="123.356" x2="209.343" y2="115.902" gradientUnits="userSpaceOnUse">
<stop stop-color="#FF5C5C"/>
<stop offset="0.3013" stop-color="#F44444"/>
<stop offset="0.935" stop-color="#D60707"/>
<stop offset="1" stop-color="#D30000"/>
</linearGradient>
<linearGradient id="paint18_linear_1_15512" x1="246.389" y1="566.164" x2="262.9" y2="545.628" gradientUnits="userSpaceOnUse">
<stop stop-color="#FF5C5C"/>
<stop offset="0.3013" stop-color="#F44444"/>
<stop offset="0.935" stop-color="#D60707"/>
<stop offset="1" stop-color="#D30000"/>
</linearGradient>
<linearGradient id="paint19_linear_1_15512" x1="837.412" y1="655.903" x2="829.294" y2="666.1" gradientUnits="userSpaceOnUse">
<stop stop-color="#FF5C5C"/>
<stop offset="0.3013" stop-color="#F44444"/>
<stop offset="0.935" stop-color="#D60707"/>
<stop offset="1" stop-color="#D30000"/>
</linearGradient>
<linearGradient id="paint20_linear_1_15512" x1="418.281" y1="188.855" x2="425.54" y2="200.268" gradientUnits="userSpaceOnUse">
<stop stop-color="#FF5C5C"/>
<stop offset="0.3013" stop-color="#F44444"/>
<stop offset="0.935" stop-color="#D60707"/>
<stop offset="1" stop-color="#D30000"/>
</linearGradient>
<linearGradient id="paint21_linear_1_15512" x1="156.368" y1="188.796" x2="162.263" y2="183.939" gradientUnits="userSpaceOnUse">
<stop stop-color="#FF5C5C"/>
<stop offset="0.3013" stop-color="#F44444"/>
<stop offset="0.935" stop-color="#D60707"/>
<stop offset="1" stop-color="#D30000"/>
</linearGradient>
<linearGradient id="paint22_linear_1_15512" x1="871.293" y1="65.2552" x2="866.639" y2="73.4251" gradientUnits="userSpaceOnUse">
<stop stop-color="#FF5C5C"/>
<stop offset="0.3013" stop-color="#F44444"/>
<stop offset="0.935" stop-color="#D60707"/>
<stop offset="1" stop-color="#D30000"/>
</linearGradient>
<linearGradient id="paint23_linear_1_15512" x1="424.216" y1="597.292" x2="420.577" y2="580.437" gradientUnits="userSpaceOnUse">
<stop stop-color="#4D8EFF"/>
<stop offset="0.4282" stop-color="#3F76FF"/>
<stop offset="1" stop-color="#2850FF"/>
</linearGradient>
<linearGradient id="paint24_linear_1_15512" x1="892.756" y1="336.113" x2="898.585" y2="353.447" gradientUnits="userSpaceOnUse">
<stop stop-color="#4D8EFF"/>
<stop offset="0.4282" stop-color="#3F76FF"/>
<stop offset="1" stop-color="#2850FF"/>
</linearGradient>
<linearGradient id="paint25_linear_1_15512" x1="1103.52" y1="177.122" x2="1112.33" y2="187.516" gradientUnits="userSpaceOnUse">
<stop stop-color="#4D8EFF"/>
<stop offset="0.4282" stop-color="#3F76FF"/>
<stop offset="1" stop-color="#2850FF"/>
</linearGradient>
<linearGradient id="paint26_linear_1_15512" x1="1229.43" y1="359.814" x2="1225.06" y2="367.392" gradientUnits="userSpaceOnUse">
<stop stop-color="#4D8EFF"/>
<stop offset="0.4282" stop-color="#3F76FF"/>
<stop offset="1" stop-color="#2850FF"/>
</linearGradient>
<linearGradient id="paint27_linear_1_15512" x1="1382.53" y1="494.568" x2="1389.12" y2="497.968" gradientUnits="userSpaceOnUse">
<stop stop-color="#4D8EFF"/>
<stop offset="0.4282" stop-color="#3F76FF"/>
<stop offset="1" stop-color="#2850FF"/>
</linearGradient>
<linearGradient id="paint28_linear_1_15512" x1="437.825" y1="356.748" x2="451.028" y2="355.057" gradientUnits="userSpaceOnUse">
<stop stop-color="#4D8EFF"/>
<stop offset="0.4282" stop-color="#3F76FF"/>
<stop offset="1" stop-color="#2850FF"/>
</linearGradient>
<linearGradient id="paint29_linear_1_15512" x1="1560.69" y1="343.387" x2="1543.21" y2="334.452" gradientUnits="userSpaceOnUse">
<stop stop-color="#4D8EFF"/>
<stop offset="0.4282" stop-color="#3F76FF"/>
<stop offset="1" stop-color="#2850FF"/>
</linearGradient>
<linearGradient id="paint30_linear_1_15512" x1="1592.48" y1="247.545" x2="1599.91" y2="243.041" gradientUnits="userSpaceOnUse">
<stop stop-color="#4D8EFF"/>
<stop offset="0.4282" stop-color="#3F76FF"/>
<stop offset="1" stop-color="#2850FF"/>
</linearGradient>
<linearGradient id="paint31_linear_1_15512" x1="1136.8" y1="58.0318" x2="1129.02" y2="58.6125" gradientUnits="userSpaceOnUse">
<stop stop-color="#4D8EFF"/>
<stop offset="0.4282" stop-color="#3F76FF"/>
<stop offset="1" stop-color="#2850FF"/>
</linearGradient>
<linearGradient id="paint32_linear_1_15512" x1="721.824" y1="168.103" x2="727.314" y2="180.589" gradientUnits="userSpaceOnUse">
<stop stop-color="#4D8EFF"/>
<stop offset="0.4282" stop-color="#3F76FF"/>
<stop offset="1" stop-color="#2850FF"/>
</linearGradient>
<linearGradient id="paint33_linear_1_15512" x1="260.785" y1="210.761" x2="252.167" y2="219.388" gradientUnits="userSpaceOnUse">
<stop stop-color="#4D8EFF"/>
<stop offset="0.4282" stop-color="#3F76FF"/>
<stop offset="1" stop-color="#2850FF"/>
</linearGradient>
<linearGradient id="paint34_linear_1_15512" x1="1540.1" y1="773.499" x2="1548.75" y2="785.757" gradientUnits="userSpaceOnUse">
<stop stop-color="#4D8EFF"/>
<stop offset="0.4282" stop-color="#3F76FF"/>
<stop offset="1" stop-color="#2850FF"/>
</linearGradient>
<linearGradient id="paint35_linear_1_15512" x1="1174.93" y1="837.883" x2="1159.64" y2="837.033" gradientUnits="userSpaceOnUse">
<stop stop-color="#4D8EFF"/>
<stop offset="0.4282" stop-color="#3F76FF"/>
<stop offset="1" stop-color="#2850FF"/>
</linearGradient>
<linearGradient id="paint36_linear_1_15512" x1="708.24" y1="69.6344" x2="704.109" y2="90.2453" gradientUnits="userSpaceOnUse">
<stop stop-color="#FC9512"/>
<stop offset="0.00696701" stop-color="#FC9612"/>
<stop offset="0.68" stop-color="#FED319"/>
<stop offset="1" stop-color="#FFEB1C"/>
</linearGradient>
<linearGradient id="paint37_linear_1_15512" x1="1687.52" y1="551.832" x2="1674.09" y2="553.18" gradientUnits="userSpaceOnUse">
<stop stop-color="#FC9512"/>
<stop offset="0.00696701" stop-color="#FC9612"/>
<stop offset="0.68" stop-color="#FED319"/>
<stop offset="1" stop-color="#FFEB1C"/>
</linearGradient>
<linearGradient id="paint38_linear_1_15512" x1="1664.74" y1="689.596" x2="1682.83" y2="694.897" gradientUnits="userSpaceOnUse">
<stop stop-color="#FC9512"/>
<stop offset="0.00696701" stop-color="#FC9612"/>
<stop offset="0.68" stop-color="#FED319"/>
<stop offset="1" stop-color="#FFEB1C"/>
</linearGradient>
<linearGradient id="paint39_linear_1_15512" x1="587.214" y1="111.195" x2="576.171" y2="94.5919" gradientUnits="userSpaceOnUse">
<stop stop-color="#FC9512"/>
<stop offset="0.00696701" stop-color="#FC9612"/>
<stop offset="0.68" stop-color="#FED319"/>
<stop offset="1" stop-color="#FFEB1C"/>
</linearGradient>
<linearGradient id="paint40_linear_1_15512" x1="288.738" y1="665.712" x2="283.837" y2="661.166" gradientUnits="userSpaceOnUse">
<stop stop-color="#FC9512"/>
<stop offset="0.00696701" stop-color="#FC9612"/>
<stop offset="0.68" stop-color="#FED319"/>
<stop offset="1" stop-color="#FFEB1C"/>
</linearGradient>
<linearGradient id="paint41_linear_1_15512" x1="1022.87" y1="72.9946" x2="1017.14" y2="83.1342" gradientUnits="userSpaceOnUse">
<stop stop-color="#FC9512"/>
<stop offset="0.00696701" stop-color="#FC9612"/>
<stop offset="0.68" stop-color="#FED319"/>
<stop offset="1" stop-color="#FFEB1C"/>
</linearGradient>
<linearGradient id="paint42_linear_1_15512" x1="1654.8" y1="807.174" x2="1673.63" y2="793.116" gradientUnits="userSpaceOnUse">
<stop stop-color="#FC9512"/>
<stop offset="0.00696701" stop-color="#FC9612"/>
<stop offset="0.68" stop-color="#FED319"/>
<stop offset="1" stop-color="#FFEB1C"/>
</linearGradient>
<linearGradient id="paint43_linear_1_15512" x1="733.013" y1="770.534" x2="726.784" y2="757.997" gradientUnits="userSpaceOnUse">
<stop stop-color="#FC9512"/>
<stop offset="0.00696701" stop-color="#FC9612"/>
<stop offset="0.68" stop-color="#FED319"/>
<stop offset="1" stop-color="#FFEB1C"/>
</linearGradient>
<linearGradient id="paint44_linear_1_15512" x1="1278.95" y1="841.138" x2="1289.21" y2="831.859" gradientUnits="userSpaceOnUse">
<stop stop-color="#FC9512"/>
<stop offset="0.00696701" stop-color="#FC9612"/>
<stop offset="0.68" stop-color="#FED319"/>
<stop offset="1" stop-color="#FFEB1C"/>
</linearGradient>
<linearGradient id="paint45_linear_1_15512" x1="302.725" y1="487.243" x2="304.365" y2="496.626" gradientUnits="userSpaceOnUse">
<stop stop-color="#FC9512"/>
<stop offset="0.00696701" stop-color="#FC9612"/>
<stop offset="0.68" stop-color="#FED319"/>
<stop offset="1" stop-color="#FFEB1C"/>
</linearGradient>
<linearGradient id="paint46_linear_1_15512" x1="585.676" y1="707.833" x2="582.699" y2="733.019" gradientUnits="userSpaceOnUse">
<stop stop-color="#FC9512"/>
<stop offset="0.00696701" stop-color="#FC9612"/>
<stop offset="0.68" stop-color="#FED319"/>
<stop offset="1" stop-color="#FFEB1C"/>
</linearGradient>
<linearGradient id="paint47_linear_1_15512" x1="134.254" y1="610.372" x2="151.694" y2="609.847" gradientUnits="userSpaceOnUse">
<stop stop-color="#FC9512"/>
<stop offset="0.00696701" stop-color="#FC9612"/>
<stop offset="0.68" stop-color="#FED319"/>
<stop offset="1" stop-color="#FFEB1C"/>
</linearGradient>
<linearGradient id="paint48_linear_1_15512" x1="1602.31" y1="723.394" x2="1614.43" y2="717.291" gradientUnits="userSpaceOnUse">
<stop stop-color="#FC9512"/>
<stop offset="0.00696701" stop-color="#FC9612"/>
<stop offset="0.68" stop-color="#FED319"/>
<stop offset="1" stop-color="#FFEB1C"/>
</linearGradient>
<linearGradient id="paint49_linear_1_15512" x1="745.353" y1="323.488" x2="753.457" y2="311.246" gradientUnits="userSpaceOnUse">
<stop stop-color="#FC9512"/>
<stop offset="0.00696701" stop-color="#FC9612"/>
<stop offset="0.68" stop-color="#FED319"/>
<stop offset="1" stop-color="#FFEB1C"/>
</linearGradient>
<linearGradient id="paint50_linear_1_15512" x1="1274.83" y1="314.097" x2="1272.66" y2="300.8" gradientUnits="userSpaceOnUse">
<stop stop-color="#FF3EB9"/>
<stop offset="0.0433" stop-color="#FF44BC"/>
<stop offset="0.7006" stop-color="#FF98E3"/>
<stop offset="1" stop-color="#FFB9F2"/>
</linearGradient>
<linearGradient id="paint51_linear_1_15512" x1="695.578" y1="489.451" x2="706.869" y2="496.603" gradientUnits="userSpaceOnUse">
<stop stop-color="#FF3EB9"/>
<stop offset="0.0433" stop-color="#FF44BC"/>
<stop offset="0.7006" stop-color="#FF98E3"/>
<stop offset="1" stop-color="#FFB9F2"/>
</linearGradient>
<linearGradient id="paint52_linear_1_15512" x1="473.152" y1="93.4857" x2="473.267" y2="83.6901" gradientUnits="userSpaceOnUse">
<stop stop-color="#FF3EB9"/>
<stop offset="0.0433" stop-color="#FF44BC"/>
<stop offset="0.7006" stop-color="#FF98E3"/>
<stop offset="1" stop-color="#FFB9F2"/>
</linearGradient>
<linearGradient id="paint53_linear_1_15512" x1="1483.96" y1="279.116" x2="1498.66" y2="284.603" gradientUnits="userSpaceOnUse">
<stop stop-color="#FF3EB9"/>
<stop offset="0.0433" stop-color="#FF44BC"/>
<stop offset="0.7006" stop-color="#FF98E3"/>
<stop offset="1" stop-color="#FFB9F2"/>
</linearGradient>
<linearGradient id="paint54_linear_1_15512" x1="1658.75" y1="364.534" x2="1644.13" y2="373.97" gradientUnits="userSpaceOnUse">
<stop stop-color="#FF3EB9"/>
<stop offset="0.0433" stop-color="#FF44BC"/>
<stop offset="0.7006" stop-color="#FF98E3"/>
<stop offset="1" stop-color="#FFB9F2"/>
</linearGradient>
<linearGradient id="paint55_linear_1_15512" x1="890.207" y1="584.36" x2="897.981" y2="572.854" gradientUnits="userSpaceOnUse">
<stop stop-color="#FF3EB9"/>
<stop offset="0.0433" stop-color="#FF44BC"/>
<stop offset="0.7006" stop-color="#FF98E3"/>
<stop offset="1" stop-color="#FFB9F2"/>
</linearGradient>
<linearGradient id="paint56_linear_1_15512" x1="1287.55" y1="408.884" x2="1294.87" y2="411.529" gradientUnits="userSpaceOnUse">
<stop stop-color="#FF3EB9"/>
<stop offset="0.0433" stop-color="#FF44BC"/>
<stop offset="0.7006" stop-color="#FF98E3"/>
<stop offset="1" stop-color="#FFB9F2"/>
</linearGradient>
<linearGradient id="paint57_linear_1_15512" x1="786.062" y1="54.85" x2="791.543" y2="57.1138" gradientUnits="userSpaceOnUse">
<stop stop-color="#FF3EB9"/>
<stop offset="0.0433" stop-color="#FF44BC"/>
<stop offset="0.7006" stop-color="#FF98E3"/>
<stop offset="1" stop-color="#FFB9F2"/>
</linearGradient>
<linearGradient id="paint58_linear_1_15512" x1="1397" y1="205.112" x2="1391.92" y2="199.465" gradientUnits="userSpaceOnUse">
<stop stop-color="#FF3EB9"/>
<stop offset="0.0433" stop-color="#FF44BC"/>
<stop offset="0.7006" stop-color="#FF98E3"/>
<stop offset="1" stop-color="#FFB9F2"/>
</linearGradient>
<linearGradient id="paint59_linear_1_15512" x1="947.613" y1="173.359" x2="955.708" y2="184.824" gradientUnits="userSpaceOnUse">
<stop stop-color="#FF3EB9"/>
<stop offset="0.0433" stop-color="#FF44BC"/>
<stop offset="0.7006" stop-color="#FF98E3"/>
<stop offset="1" stop-color="#FFB9F2"/>
</linearGradient>
<linearGradient id="paint60_linear_1_15512" x1="1216.25" y1="76.0679" x2="1218.85" y2="83.955" gradientUnits="userSpaceOnUse">
<stop stop-color="#FF3EB9"/>
<stop offset="0.0433" stop-color="#FF44BC"/>
<stop offset="0.7006" stop-color="#FF98E3"/>
<stop offset="1" stop-color="#FFB9F2"/>
</linearGradient>
<linearGradient id="paint61_linear_1_15512" x1="551.326" y1="460.588" x2="561.797" y2="473.084" gradientUnits="userSpaceOnUse">
<stop stop-color="#FF3EB9"/>
<stop offset="0.0433" stop-color="#FF44BC"/>
<stop offset="0.7006" stop-color="#FF98E3"/>
<stop offset="1" stop-color="#FFB9F2"/>
</linearGradient>
<linearGradient id="paint62_linear_1_15512" x1="1384.6" y1="178.163" x2="1379.85" y2="186.675" gradientUnits="userSpaceOnUse">
<stop stop-color="#FF3EB9"/>
<stop offset="0.0433" stop-color="#FF44BC"/>
<stop offset="0.7006" stop-color="#FF98E3"/>
<stop offset="1" stop-color="#FFB9F2"/>
</linearGradient>
<linearGradient id="paint63_linear_1_15512" x1="557.651" y1="266.647" x2="574.112" y2="273.102" gradientUnits="userSpaceOnUse">
<stop stop-color="#FF3EB9"/>
<stop offset="0.0433" stop-color="#FF44BC"/>
<stop offset="0.7006" stop-color="#FF98E3"/>
<stop offset="1" stop-color="#FFB9F2"/>
</linearGradient>
<linearGradient id="paint64_linear_1_15512" x1="308.27" y1="368.339" x2="301.957" y2="376.212" gradientUnits="userSpaceOnUse">
<stop stop-color="#FF3EB9"/>
<stop offset="0.0433" stop-color="#FF44BC"/>
<stop offset="0.7006" stop-color="#FF98E3"/>
<stop offset="1" stop-color="#FFB9F2"/>
</linearGradient>
<linearGradient id="paint65_linear_1_15512" x1="1587.49" y1="540.369" x2="1573.84" y2="524.7" gradientUnits="userSpaceOnUse">
<stop stop-color="#00EE98"/>
<stop offset="0.2798" stop-color="#00D685"/>
<stop offset="0.8679" stop-color="#009955"/>
<stop offset="1" stop-color="#008A49"/>
</linearGradient>
<linearGradient id="paint66_linear_1_15512" x1="173.769" y1="616.018" x2="179.668" y2="626.577" gradientUnits="userSpaceOnUse">
<stop stop-color="#00EE98"/>
<stop offset="0.2798" stop-color="#00D685"/>
<stop offset="0.8679" stop-color="#009955"/>
<stop offset="1" stop-color="#008A49"/>
</linearGradient>
<linearGradient id="paint67_linear_1_15512" x1="732.699" y1="244.455" x2="734.057" y2="256.033" gradientUnits="userSpaceOnUse">
<stop stop-color="#00EE98"/>
<stop offset="0.2798" stop-color="#00D685"/>
<stop offset="0.8679" stop-color="#009955"/>
<stop offset="1" stop-color="#008A49"/>
</linearGradient>
<linearGradient id="paint68_linear_1_15512" x1="399.491" y1="434.269" x2="396.564" y2="446.749" gradientUnits="userSpaceOnUse">
<stop stop-color="#00EE98"/>
<stop offset="0.2798" stop-color="#00D685"/>
<stop offset="0.8679" stop-color="#009955"/>
<stop offset="1" stop-color="#008A49"/>
</linearGradient>
<linearGradient id="paint69_linear_1_15512" x1="462.513" y1="728.382" x2="453.751" y2="717.029" gradientUnits="userSpaceOnUse">
<stop stop-color="#00EE98"/>
<stop offset="0.2798" stop-color="#00D685"/>
<stop offset="0.8679" stop-color="#009955"/>
<stop offset="1" stop-color="#008A49"/>
</linearGradient>
<linearGradient id="paint70_linear_1_15512" x1="1011.9" y1="853.953" x2="1004.35" y2="840.792" gradientUnits="userSpaceOnUse">
<stop stop-color="#00EE98"/>
<stop offset="0.2798" stop-color="#00D685"/>
<stop offset="0.8679" stop-color="#009955"/>
<stop offset="1" stop-color="#008A49"/>
</linearGradient>
<linearGradient id="paint71_linear_1_15512" x1="210.044" y1="344.691" x2="212.188" y2="355.563" gradientUnits="userSpaceOnUse">
<stop stop-color="#00EE98"/>
<stop offset="0.2798" stop-color="#00D685"/>
<stop offset="0.8679" stop-color="#009955"/>
<stop offset="1" stop-color="#008A49"/>
</linearGradient>
<linearGradient id="paint72_linear_1_15512" x1="716.69" y1="649.479" x2="711.186" y2="646.898" gradientUnits="userSpaceOnUse">
<stop stop-color="#00EE98"/>
<stop offset="0.2798" stop-color="#00D685"/>
<stop offset="0.8679" stop-color="#009955"/>
<stop offset="1" stop-color="#008A49"/>
</linearGradient>
<linearGradient id="paint73_linear_1_15512" x1="1305.48" y1="155.356" x2="1305.97" y2="147.548" gradientUnits="userSpaceOnUse">
<stop stop-color="#00EE98"/>
<stop offset="0.2798" stop-color="#00D685"/>
<stop offset="0.8679" stop-color="#009955"/>
<stop offset="1" stop-color="#008A49"/>
</linearGradient>
<linearGradient id="paint74_linear_1_15512" x1="548.484" y1="556.598" x2="554.993" y2="565.757" gradientUnits="userSpaceOnUse">
<stop stop-color="#00EE98"/>
<stop offset="0.2798" stop-color="#00D685"/>
<stop offset="0.8679" stop-color="#009955"/>
<stop offset="1" stop-color="#008A49"/>
</linearGradient>
<linearGradient id="paint75_linear_1_15512" x1="1492.57" y1="121.127" x2="1489.63" y2="129.973" gradientUnits="userSpaceOnUse">
<stop stop-color="#00EE98"/>
<stop offset="0.2798" stop-color="#00D685"/>
<stop offset="0.8679" stop-color="#009955"/>
<stop offset="1" stop-color="#008A49"/>
</linearGradient>
<linearGradient id="paint76_linear_1_15512" x1="1382.86" y1="623.371" x2="1386.51" y2="598.978" gradientUnits="userSpaceOnUse">
<stop stop-color="#00EE98"/>
<stop offset="0.2798" stop-color="#00D685"/>
<stop offset="0.8679" stop-color="#009955"/>
<stop offset="1" stop-color="#008A49"/>
</linearGradient>
<linearGradient id="paint77_linear_1_15512" x1="586.197" y1="388.337" x2="578.971" y2="375.338" gradientUnits="userSpaceOnUse">
<stop stop-color="#00EE98"/>
<stop offset="0.2798" stop-color="#00D685"/>
<stop offset="0.8679" stop-color="#009955"/>
<stop offset="1" stop-color="#008A49"/>
</linearGradient>
<linearGradient id="paint78_linear_1_15512" x1="809.948" y1="475.978" x2="799.139" y2="488.743" gradientUnits="userSpaceOnUse">
<stop stop-color="#00EE98"/>
<stop offset="0.2798" stop-color="#00D685"/>
<stop offset="0.8679" stop-color="#009955"/>
<stop offset="1" stop-color="#008A49"/>
</linearGradient>
</defs>
</svg>
